<svg width="40" height="40" fill="none" xmlns="http://www.w3.org/2000/svg"><rect width="40" height="40" rx="8" fill="#031E32"/><path fill-rule="evenodd" clip-rule="evenodd" d="M26.378 13.616A8.926 8.926 0 0020.038 11c-4.94 0-8.96 4.001-8.963 8.92a8.864 8.864 0 001.197 4.46L11 29l4.751-1.24a8.986 8.986 0 004.283 1.084h.004c4.939 0 8.96-4 8.962-8.92a8.845 8.845 0 00-2.622-6.308zm-6.34 13.723h-.003a7.463 7.463 0 01-3.792-1.033l-.272-.161-2.819.736.753-2.736-.178-.281a7.37 7.37 0 01-1.139-3.944c0-4.088 3.344-7.413 7.453-7.413a7.433 7.433 0 017.446 7.418c-.002 4.088-3.343 7.414-7.45 7.414zm4.085-5.552c-.223-.112-1.325-.651-1.53-.726-.204-.074-.354-.111-.503.112-.15.224-.579.723-.71.874-.13.15-.26.167-.484.056-.224-.112-.946-.347-1.802-1.107-.665-.59-1.115-1.32-1.245-1.543-.13-.223-.014-.344.098-.455.1-.1.224-.26.336-.39.112-.13.15-.224.224-.373.074-.148.037-.279-.019-.39-.056-.111-.504-1.208-.69-1.655-.182-.434-.367-.375-.504-.382a9.137 9.137 0 00-.43-.008.823.823 0 00-.597.279c-.205.223-.784.763-.784 1.86 0 1.095.804 2.156.915 2.305.11.148 1.579 2.4 3.825 3.365.418.178.844.335 1.277.47a3.08 3.08 0 001.41.087c.43-.063 1.326-.539 1.512-1.06.186-.52.187-.966.131-1.059-.056-.093-.205-.149-.43-.26z" fill="#fff"/></svg>