<svg width="217" height="226" fill="none" xmlns="http://www.w3.org/2000/svg"><path d="M177.832 83.938v56.036l2.083-1.214V82.73l-2.083 1.208z" fill="#263238"/><path d="M177.832 139.974l-2.088-1.214V82.73l2.088 1.208v56.036z" fill="#455A64"/><path d="M60.3 149.148L.5 114.453v3.469l59.8 34.694 119.615-69.358-.036-3.403-119.578 69.293z" fill="#455A64"/><path d="M179.879 79.855l.036 3.403-119.614 69.358v-3.468l119.578-69.293z" fill="#263238"/><path d="M120.108 45.095L.5 114.453l59.8 34.695 119.58-69.293-59.771-34.76zm-59.807 100.59L6.478 114.453l113.63-65.883 53.823 31.22-113.63 65.895z" fill="#37474F"/><path d="M6.478 114.46l113.63-65.89 53.823 31.22-2.992 1.737-50.831-29.494L9.469 116.19l-2.991-1.731z" fill="#263238"/><path d="M15.447 119.66l2.992-46.833-2.992-1.737-2.992 46.832 2.992 1.738z" fill="#455A64"/><path d="M179.879 76.386L132.069 0 12.491 69.293v3.468l47.81 76.387 119.578-69.293v-3.469z" fill="#0064AF"/><path opacity=".5" d="M179.879 76.386L132.069 0 12.491 69.293v3.468l47.81 76.387 119.578-69.293v-3.469z" fill="#fff"/><path opacity=".1" d="M60.3 145.679v3.469l119.58-69.293v-3.469L60.301 145.68z" fill="#000"/><path d="M60.3 145.679L12.492 69.293 132.07 0l47.81 76.386L60.301 145.68z" fill="#0064AF"/><path opacity=".65" d="M60.3 145.679L12.492 69.293 132.07 0l47.81 76.386L60.301 145.68z" fill="#fff"/><path d="M60.3 152.088v56.036l2.09-1.208v-56.037l-2.09 1.209z" fill="#263238"/><path d="M60.3 208.124l-2.081-1.208v-56.037l2.082 1.209v56.036z" fill="#455A64"/><path d="M2.582 118.596v56.03l2.083-1.208v-56.031l-2.083 1.209z" fill="#263238"/><path d="M2.582 174.626L.5 173.418v-56.031l2.082 1.209v56.03z" fill="#455A64"/><path opacity=".2" d="M22.275 73.392l106.814-61.898 39.965 63.858-106.808 61.892-39.971-63.852z" fill="#000"/><path d="M22.795 71.86L129.61 9.962l39.965 63.858-106.809 61.892-39.97-63.852z" fill="#455A64"/><path d="M49.674 97.512l-1.58-2.273a.4.4 0 00-.508-.114l-.138.078a.32.32 0 00-.102.47l1.586 2.272a.389.389 0 00.508.114l.132-.078a.318.318 0 00.102-.47zm1.604-.926l-1.586-2.272a.395.395 0 00-.509-.115l-.137.079a.317.317 0 00-.157.346c.01.044.028.086.055.122l1.586 2.273a.395.395 0 00.508.114l.132-.078a.318.318 0 00.108-.469zm-5.631 1.804l1.346-.03a.138.138 0 00.108-.217l-.748-1.07a.131.131 0 00-.227 0l-.599 1.1a.139.139 0 00.12.217z" fill="#F0F0F0"/><path d="M46.012 98.943l-.892-1.28a.221.221 0 00-.263-.073l-.078.042a.18.18 0 00-.054.265l.892 1.28a.215.215 0 00.287.066l.078-.042a.174.174 0 00.066-.195.174.174 0 00-.036-.063zm7.084-4.87l-.598 1.1a.137.137 0 01-.227 0l-.748-1.076a.14.14 0 01.038-.194.137.137 0 01.07-.022h1.346a.13.13 0 01.114.062.134.134 0 01.005.13z" fill="#F0F0F0"/><path d="M53.497 94.585l-.861-1.269a.187.187 0 01.06-.265l.077-.042a.226.226 0 01.288.067l.891 1.28a.18.18 0 01-.06.265l-.077.042a.216.216 0 01-.318-.078zm-2.106 10.22a.234.234 0 01-.133-.044.225.225 0 01-.082-.113 2.565 2.565 0 01.514-1.912 4.178 4.178 0 013.213-1.749.229.229 0 01.24.204.224.224 0 01-.203.235 3.744 3.744 0 00-2.902 1.575c-.34.434-.504.982-.455 1.533a.22.22 0 01-.072.238.227.227 0 01-.078.039l-.042-.006z" fill="#F0F0F0"/><path d="M56.423 100.909l-1.46-.541a.16.16 0 00-.08-.009.158.158 0 00-.122.101.158.158 0 00-.007.082l.275 1.431c.004.026.015.05.031.071a.152.152 0 00.209.025l1.196-.884a.159.159 0 00.058-.15.16.16 0 00-.1-.126zm-2.387 5.188a.224.224 0 01-.15-.06.23.23 0 01-.071-.144.225.225 0 01.052-.163.221.221 0 01.151-.078 3.741 3.741 0 002.884-1.563 2.17 2.17 0 00.455-1.533.22.22 0 01.018-.169.214.214 0 01.132-.107.227.227 0 01.275.15 2.565 2.565 0 01-.515 1.912 4.178 4.178 0 01-3.213 1.749l-.018.006z" fill="#F0F0F0"/><path d="M52.534 106.181l1.46.547a.161.161 0 00.21-.18l-.276-1.431a.152.152 0 00-.096-.116c-.025-.01-.051-.013-.077-.01a.16.16 0 00-.072.03l-1.197.89a.154.154 0 00-.02.224.159.159 0 00.068.046zm5.278 8.723a.213.213 0 01-.174-.096.204.204 0 01.078-.276c.742-.433 1.197-1.371 1.424-2.868.138-.98.527-2.272 1.562-2.874a.2.2 0 01.272.075.2.2 0 01-.075.274c-.897.523-1.238 1.689-1.364 2.585-.233 1.623-.766 2.657-1.622 3.156a.19.19 0 01-.101.024z" fill="#F0F0F0"/><path d="M62.018 108.412l-.598 1.148a.139.139 0 01-.052.047.136.136 0 01-.136 0 .14.14 0 01-.051-.047l-.778-1.118a.14.14 0 01.113-.217l1.4-.03a.137.137 0 01.068.025.13.13 0 01.045.054.14.14 0 01-.01.138zm-.844 3.775a6.891 6.891 0 01-1.89-.301c-1.574-.457-2.74-.469-3.483-.042a.176.176 0 01-.073.026.184.184 0 01-.077-.004.199.199 0 01-.144-.242.202.202 0 01.09-.122c.85-.493 2.095-.493 3.794 0 .778.222 2.22.517 3.172-.037a.222.222 0 01.077-.039.198.198 0 01.167.031.21.21 0 01.086.147.208.208 0 01-.055.161.196.196 0 01-.072.049 3.186 3.186 0 01-1.592.373z" fill="#F0F0F0"/><path d="M63.736 110.864l-1.4.03a.138.138 0 00-.138.147.14.14 0 00.024.07l.777 1.118a.14.14 0 00.052.047.136.136 0 00.136 0 .14.14 0 00.052-.047l.598-1.148a.138.138 0 00.011-.138.13.13 0 00-.046-.054.136.136 0 00-.066-.025zm3.943 7.166l-3.423 1.984a.363.363 0 01-.485-.108l-.047-.06a.312.312 0 01.003-.367.32.32 0 01.098-.084l3.423-1.984a.362.362 0 01.485.108l.041.06a.314.314 0 01.054.248.31.31 0 01-.15.203zm.796 1.161l-3.43 1.99a.382.382 0 01-.485-.108l-.04-.067a.297.297 0 01-.054-.244.297.297 0 01.15-.2l3.428-1.99a.379.379 0 01.484.108l.042.066a.297.297 0 01.054.244.3.3 0 01-.15.201zm.789 1.142l-3.422 1.984a.367.367 0 01-.485-.108l-.042-.061a.31.31 0 01-.054-.247.311.311 0 01.15-.203l3.423-1.984a.374.374 0 01.49.108l.042.06a.305.305 0 01-.003.366.308.308 0 01-.099.085zm-7.97-.054a.222.222 0 01-.106-.031.22.22 0 01-.08-.077.217.217 0 01.078-.295l2.13-1.232a.214.214 0 01.277.088.215.215 0 01-.061.285l-2.13 1.232a.24.24 0 01-.108.03z" fill="#F0F0F0"/><path d="M63.065 120.676a.209.209 0 01-.173-.091l-1.418-2.032a.215.215 0 01.353-.246l1.412 2.032a.217.217 0 01-.048.301.264.264 0 01-.126.036zm36.369-26.091a.716.716 0 01-.598-.289L80.047 67.339a.603.603 0 01-.096-.481.747.747 0 01.36-.475l15.682-9.072a.758.758 0 011.012.175l18.884 27.089a.44.44 0 01.079.168.433.433 0 01-.001.187.83.83 0 01-.437.468l-15.677 9.09a.817.817 0 01-.419.097zm-2.992-37.051a.495.495 0 00-.251.066L80.52 66.69a.383.383 0 00-.192.246.23.23 0 00.036.198l18.789 26.957a.424.424 0 00.55.073l15.678-9.09c.221-.132.263-.21.269-.24a.1.1 0 000-.073l-18.933-27.09a.347.347 0 00-.299-.131l.024-.007z" fill="#F0F0F0"/><path d="M82.422 67.32a.295.295 0 01-.095.434.358.358 0 01-.517-.221.29.29 0 01.146-.314.364.364 0 01.466.102zm1-.577a.291.291 0 01-.002.347.287.287 0 01-.094.08.363.363 0 01-.467-.102.295.295 0 01.096-.433.357.357 0 01.467.108zm1.005-.583a.294.294 0 01-.096.433.357.357 0 01-.518-.22.29.29 0 01.141-.315.363.363 0 01.473.102zm12.488-6.655l-1.197-.27a.09.09 0 01-.057-.107.09.09 0 01.1-.068l1.196.27a.095.095 0 01.072.109.088.088 0 01-.043.058.091.091 0 01-.071.008z" fill="#F0F0F0"/><path d="M96.155 59.932a.078.078 0 01-.066-.102l.246-1.118a.086.086 0 01.036-.055c.01-.006.02-.01.032-.013a.085.085 0 01.033.001.09.09 0 01.072.103l-.245 1.118a.096.096 0 01-.108.066zm-6.66 10.046L95.7 66.37a.324.324 0 00.155-.346.327.327 0 00-.053-.123l-.09-.133a.4.4 0 00-.508-.114l-6.205 3.607a.316.316 0 00-.157.346.32.32 0 00.055.123l.09.126a.389.389 0 00.508.12zm1.191.812l5.307-3.079a.125.125 0 00.06-.08.128.128 0 00-.018-.1L96 67.477a.149.149 0 00-.197-.042l-5.308 3.102a.126.126 0 00-.041.18l.035.055a.149.149 0 00.198.017zm11.447 3.132c.431.963.486 2.055.154 3.057a4.208 4.208 0 01-1.949 2.353 5.188 5.188 0 01-5.517-.288l.64-4.365 5.026 1.701c.389.127.443.037.126-.21l-1.263-.823.515-1.96 2.268.535z" fill="#F0F0F0"/><path d="M94.928 71.589a4.195 4.195 0 00-2.09 2.794 4.227 4.227 0 00.732 3.416c.176.25.377.481.599.691l.658-4.436a.192.192 0 01.101-.157.238.238 0 01.204 0l3.53 1.203.599-2.297a.24.24 0 01.293-.15l2.142.505v-.036a5.21 5.21 0 00-3.093-2.062 5.19 5.19 0 00-3.675.529zm2.717 1.31a.71.71 0 01-.915-.204.603.603 0 01.185-.848.703.703 0 01.915.21.605.605 0 01-.185.843zm5.331 11.099l-1.579-2.273a.403.403 0 00-.509-.114l-.137.084a.306.306 0 00-.157.208.3.3 0 000 .134.305.305 0 00.055.121l1.585 2.272a.385.385 0 00.509.115l.132-.078a.318.318 0 00.16-.211.312.312 0 00-.059-.258zm1.604-.926l-1.586-2.273a.393.393 0 00-.508-.114l-.138.078a.325.325 0 00-.102.469l1.586 2.272a.396.396 0 00.509.115l.137-.078a.323.323 0 00.155-.346.327.327 0 00-.053-.123zm-5.63 1.803h1.346a.14.14 0 00.069-.022.143.143 0 00.048-.054.136.136 0 00.014-.071.132.132 0 00-.024-.069l-.748-1.07a.132.132 0 00-.227 0l-.598 1.1a.139.139 0 00.12.186z" fill="#F0F0F0"/><path d="M99.308 85.428l-.891-1.28a.221.221 0 00-.287-.067l-.072.048a.173.173 0 00-.09.19.174.174 0 00.03.069l.892 1.287a.221.221 0 00.287.06l.078-.042a.175.175 0 00.053-.265zm7.091-4.869l-.598 1.1a.142.142 0 01-.114.06.138.138 0 01-.114-.06l-.748-1.076a.138.138 0 01-.025-.068.126.126 0 01.015-.07.13.13 0 01.118-.073h1.346a.131.131 0 01.131.123.129.129 0 01-.011.064z" fill="#F0F0F0"/><path d="M106.8 81.088l-.91-1.28a.178.178 0 01-.029-.147.177.177 0 01.089-.119l.078-.047a.226.226 0 01.287.066l.892 1.28c.015.02.025.045.03.07a.178.178 0 01-.09.195l-.078.042a.227.227 0 01-.269-.06zm-7.42 9.702a.078.078 0 01-.084-.06.996.996 0 01.204-.763 1.651 1.651 0 011.28-.697.082.082 0 01.065.018.08.08 0 01.022.027c.005.01.009.021.009.033a.083.083 0 01-.022.066.087.087 0 01-.028.021.084.084 0 01-.034.01 1.479 1.479 0 00-1.148.6.856.856 0 00-.18.602.097.097 0 01-.06.114l-.024.03z" fill="#F0F0F0"/><path d="M101.385 89.234l-.599-.217a.06.06 0 00-.062.007.067.067 0 00-.019.027.06.06 0 00-.002.032l.107.601a.068.068 0 00.04.049.065.065 0 00.062-.007l.473-.354a.066.066 0 00.048-.02.07.07 0 00.021-.05.07.07 0 00-.021-.048.066.066 0 00-.048-.02zm-.952 2.068a.083.083 0 01-.083-.084.077.077 0 01.018-.064.07.07 0 01.027-.02.074.074 0 01.032-.007 1.48 1.48 0 001.149-.6.849.849 0 00.182-.636.082.082 0 01.033-.06.077.077 0 01.031-.014.083.083 0 01.067.006c.01.006.019.014.026.023.007.009.012.02.014.03a1.015 1.015 0 01-.203.758 1.659 1.659 0 01-1.281.704l-.012-.036z" fill="#F0F0F0"/><path d="M99.835 91.338l.598.216a.06.06 0 00.078-.072l-.108-.601a.05.05 0 00-.013-.028.058.058 0 00-.082-.008l-.473.354a.07.07 0 000 .138zm5.11-2.537a.097.097 0 01-.078-.048.093.093 0 01-.006-.068.093.093 0 01.042-.052 1.613 1.613 0 00.628-1.263 1.706 1.706 0 01.689-1.268.09.09 0 01.152.056.092.092 0 01-.006.04.08.08 0 01-.022.034.09.09 0 01-.035.02 1.53 1.53 0 00-.598 1.142 1.913 1.913 0 01-.718 1.395l-.048.012z" fill="#F0F0F0"/><path d="M106.8 85.94l-.275.505a.06.06 0 01-.102 0l-.347-.494a.062.062 0 01-.005-.065.061.061 0 01.059-.03h.598a.065.065 0 01.032.003c.011.004.02.01.027.019a.064.064 0 01.014.029.06.06 0 01-.001.032zm-.371 1.658a3.059 3.059 0 01-.838-.132c-.491-.2-1.04-.2-1.531 0a.095.095 0 01-.126 0 .095.095 0 01.036-.126 2.161 2.161 0 011.675 0c.451.171.949.171 1.4 0a.09.09 0 01.12.03.095.095 0 01-.036.126 1.37 1.37 0 01-.7.102z" fill="#F0F0F0"/><path d="M107.56 87.015h-.598a.06.06 0 00-.034.007.065.065 0 00-.025.024.062.062 0 00.005.066l.347.493a.057.057 0 00.022.02.058.058 0 00.058 0 .066.066 0 00.022-.02l.275-.505a.067.067 0 00.006-.035.072.072 0 00-.014-.032.063.063 0 00-.029-.018.061.061 0 00-.035 0zm4.554-3.421l-1.437.818a.148.148 0 01-.197-.042.135.135 0 01-.019-.102.13.13 0 01.061-.084l1.406-.818a.167.167 0 01.203.042.132.132 0 01.027.045.126.126 0 01-.01.102.13.13 0 01-.034.04zm.323.47l-1.407.817a.16.16 0 01-.203-.042.124.124 0 01-.024-.101.112.112 0 01.021-.05.115.115 0 01.039-.035l1.412-.818a.156.156 0 01.198.042.11.11 0 01.028.048.104.104 0 01.003.055.106.106 0 01-.023.05.116.116 0 01-.044.034zm.329.468l-1.406.818a.157.157 0 01-.204-.042.144.144 0 01-.02-.05.135.135 0 01.002-.052.123.123 0 01.021-.049.143.143 0 01.039-.035l1.406-.818a.163.163 0 01.204.042c.01.015.018.031.022.05a.139.139 0 01-.001.053.14.14 0 01-.022.049.126.126 0 01-.041.034zm-3.285-.017a.092.092 0 01-.045-.014.094.094 0 01-.033-.035.09.09 0 01.03-.12l.879-.505a.09.09 0 01.12.03c.006.01.01.022.012.034a.104.104 0 01-.003.035.084.084 0 01-.045.052l-.873.51-.042.013z" fill="#F0F0F0"/><path d="M110.217 84.677a.094.094 0 01-.043-.01.09.09 0 01-.035-.026l-.598-.836a.088.088 0 01-.026-.063.088.088 0 01.085-.089.081.081 0 01.06.026l.599.835a.094.094 0 010 .12l-.042.043zm-6.6-8.784a.539.539 0 01-.096-.396.518.518 0 01.263-.385.727.727 0 01.76.114h.06a.602.602 0 01.192-.703.638.638 0 01.49-.066.627.627 0 01.353.246c.27.379.048.812-.084 1.245l-.173.432-.485-.042c-.484-.066-1.011-.06-1.28-.445zm35.387-30.853a1.466 1.466 0 01-.257-1.033 1.408 1.408 0 01.688-.998 1.9 1.9 0 011.975.306c.059.042.173 0 .155 0a1.546 1.546 0 01.491-1.803 1.676 1.676 0 011.28-.157c.372.101.698.328.922.644.706.991.126 2.11-.222 3.24l-.448 1.112-1.257-.108c-1.268-.229-2.621-.21-3.327-1.203zm-8.706 38.753a.71.71 0 01-.598-.289l-18.783-26.963a.611.611 0 01-.09-.475.742.742 0 01.359-.474l15.677-9.102a.77.77 0 011.012.174l18.884 27.095a.464.464 0 01.078.355.815.815 0 01-.437.463l-15.677 9.096a.837.837 0 01-.425.12zm-2.992-37.057a.54.54 0 00-.251.066l-15.677 9.096a.428.428 0 00-.192.247.277.277 0 00.001.103.275.275 0 00.041.095L130.017 83.3a.428.428 0 00.55.072l15.671-9.096c.228-.126.27-.21.276-.234.006-.024 0-.03-.03-.072l-18.879-27.096a.364.364 0 00-.317-.138h.018z" fill="#F0F0F0"/><path d="M127.755 48.708l-1.197-.276a.073.073 0 01-.032-.012.074.074 0 01-.025-.024.092.092 0 01-.012-.032.1.1 0 01.003-.035.088.088 0 01.037-.054c.01-.007.02-.01.031-.013a.084.084 0 01.034.001l1.197.27a.094.094 0 01.055.041.094.094 0 01-.002.1.104.104 0 01-.024.023.087.087 0 01-.065.011z" fill="#F0F0F0"/><path d="M127.025 49.129a.089.089 0 01-.055-.041.09.09 0 01-.011-.068l.245-1.112a.09.09 0 01.035-.059.084.084 0 01.067-.013.09.09 0 01.066.108l-.239 1.118a.093.093 0 01-.041.056.088.088 0 01-.067.01zm-11.088 9.949l6.205-3.607a.312.312 0 00.157-.211.307.307 0 000-.135.31.31 0 00-.055-.123l-.09-.132a.392.392 0 00-.509-.114l-6.205 3.607a.327.327 0 00-.154.346.327.327 0 00.053.123l.089.126a.396.396 0 00.509.12zm2.124 3.042l6.205-3.606a.323.323 0 00.155-.346.326.326 0 00-.053-.123l-.09-.133a.4.4 0 00-.508-.114l-6.205 3.607a.312.312 0 00-.157.212.307.307 0 000 .134.31.31 0 00.055.123l.09.127a.39.39 0 00.508.12zm11.429-6.613l.91-.529a.324.324 0 00.107-.469l-.095-.132a.391.391 0 00-.509-.114l-.91.529a.323.323 0 00-.157.21.321.321 0 00.05.259l.096.132a.386.386 0 00.508.114zm-10.89 7.762l5.307-3.078a.125.125 0 00.062-.133.12.12 0 00-.02-.048l-.036-.054a.153.153 0 00-.203-.042l-5.308 3.078a.139.139 0 00-.039.036.12.12 0 00-.019.102.124.124 0 00.023.048l.035.049a.15.15 0 00.198.042zm1.879 2.326l6.205-3.607a.323.323 0 00.157-.211.34.34 0 000-.135.327.327 0 00-.056-.123l-.089-.132a.398.398 0 00-.509-.114l-6.205 3.607a.324.324 0 00-.102.469l.09.126a.395.395 0 00.509.12zm11.429-6.625l.915-.535a.313.313 0 00.157-.212.307.307 0 000-.134.31.31 0 00-.055-.123l-.09-.127a.392.392 0 00-.509-.114l-.915.53a.313.313 0 00-.157.21.307.307 0 000 .135.31.31 0 00.055.123l.09.133a.4.4 0 00.509.114zm-10.885 7.773l5.308-3.078a.128.128 0 00.059-.138.14.14 0 00-.023-.048l-.036-.048a.15.15 0 00-.198-.042l-5.283 3.078a.135.135 0 00-.039.034.131.131 0 00-.023.099c.004.017.01.033.02.047l.036.054a.153.153 0 00.179.042zm1.879 2.327l6.205-3.607a.326.326 0 00.157-.346.31.31 0 00-.055-.123l-.09-.126a.393.393 0 00-.508-.115l-6.206 3.607a.323.323 0 00-.156.212.323.323 0 00-.001.135c.01.044.029.086.056.122l.09.133a.392.392 0 00.508.108zm11.429-6.63l.909-.53a.303.303 0 00.103-.087.312.312 0 00.06-.258.33.33 0 00-.055-.124l-.09-.126a.391.391 0 00-.514-.114l-.91.529a.323.323 0 00-.16.21.316.316 0 00.053.26l.095.125a.385.385 0 00.509.114zm-10.89 7.778l5.307-3.078a.131.131 0 00.062-.137.127.127 0 00-.02-.05l-.036-.047a.154.154 0 00-.197-.048l-5.314 3.078a.126.126 0 00-.041.034.14.14 0 00-.022.05.14.14 0 00-.001.053.143.143 0 00.022.049l.036.048a.15.15 0 00.204.048zm1.885 2.327l6.199-3.608a.323.323 0 00.156-.21.328.328 0 00.001-.136.327.327 0 00-.056-.122l-.089-.127a.391.391 0 00-.509-.114l-6.205 3.607a.325.325 0 00-.102.469l.09.132a.405.405 0 00.515.109zm11.422-6.631l.916-.53a.323.323 0 00.157-.21.34.34 0 000-.135.341.341 0 00-.055-.123l-.09-.132a.393.393 0 00-.509-.114l-.915.534a.306.306 0 00-.157.208.3.3 0 000 .134.304.304 0 00.055.121l.09.133a.392.392 0 00.508.114zm-10.884 7.779l5.308-3.078a.14.14 0 00.039-.036.12.12 0 00.019-.102.138.138 0 00-.022-.048l-.036-.054a.157.157 0 00-.198-.042l-5.307 3.078a.12.12 0 00-.039.036.125.125 0 00-.022.048.135.135 0 00.019.102l.036.048a.16.16 0 00.203.048zm1.879 2.321l6.205-3.607a.314.314 0 00.157-.212.307.307 0 000-.134.31.31 0 00-.055-.123l-.09-.132a.395.395 0 00-.509-.115l-6.205 3.608a.323.323 0 00-.157.21.327.327 0 00.056.258l.089.127a.391.391 0 00.509.12zm11.429-6.625l.915-.53a.323.323 0 00.155-.346.326.326 0 00-.053-.122l-.09-.132a.392.392 0 00-.508-.115l-.916.53a.322.322 0 00-.157.346c.01.044.028.086.055.122l.09.133a.391.391 0 00.509.114zm-10.89 7.761l5.307-3.078a.135.135 0 00.039-.034.131.131 0 00.022-.099.119.119 0 00-.019-.047l-.036-.055a.15.15 0 00-.197-.042l-5.308 3.078a.121.121 0 00-.038.034.119.119 0 00-.022.047.128.128 0 00.018.1l.036.054a.15.15 0 00.198.042zm1.884 2.339l6.199-3.608a.316.316 0 00.157-.346.31.31 0 00-.055-.123l-.09-.132a.392.392 0 00-.508-.114l-6.199 3.607a.326.326 0 00-.108.469l.096.132a.386.386 0 00.508.115zm11.423-6.631l.916-.53a.323.323 0 00.157-.21.327.327 0 00-.056-.258l-.089-.127a.391.391 0 00-.509-.114l-.916.53a.322.322 0 00-.157.345.32.32 0 00.056.123l.09.126a.386.386 0 00.508.115zm-10.884 7.778l5.307-3.078a.117.117 0 00.039-.036.113.113 0 00.021-.049.124.124 0 00-.024-.101l-.036-.048a.143.143 0 00-.197-.042l-5.308 3.078a.12.12 0 00-.038.034.118.118 0 00-.022.047.128.128 0 00.018.1l.036.053a.167.167 0 00.204.042zM127.653 51.3l-1.418.787a.155.155 0 01-.203-.048.135.135 0 01-.019-.102.125.125 0 01.022-.049.12.12 0 01.039-.036l1.406-.817a.16.16 0 01.203.048.127.127 0 01.035.053c.008.02.01.042.007.063a.138.138 0 01-.023.06.139.139 0 01-.049.04zm.329.438l-1.412.818a.149.149 0 01-.197-.048.124.124 0 01-.024-.102.125.125 0 01.02-.049.13.13 0 01.04-.036l1.412-.817a.148.148 0 01.197.048.124.124 0 01.024.1.112.112 0 01-.021.05.115.115 0 01-.039.036zm.323.469l-1.406.817a.16.16 0 01-.203-.048.135.135 0 01-.019-.102.125.125 0 01.022-.048.12.12 0 01.039-.036l1.406-.818a.155.155 0 01.203.048.135.135 0 01-.003.15.12.12 0 01-.039.037zm-3.267-.025a.098.098 0 01-.043-.012.1.1 0 01-.035-.03.097.097 0 01-.023-.063c0-.023.008-.045.023-.063l.88-.505a.09.09 0 01.152.056.079.079 0 01-.005.04.104.104 0 01-.022.034.092.092 0 01-.035.02l-.88.511-.012.012z" fill="#F0F0F0"/><path d="M125.756 52.345a.075.075 0 01-.071-.036l-.599-.836a.096.096 0 01-.014-.032.096.096 0 01.013-.068.09.09 0 01.151-.001l.598.835a.096.096 0 01.019.027.09.09 0 010 .066.096.096 0 01-.019.027.066.066 0 01-.078.018zm-12.685 4.257l.275-.505a.06.06 0 01.102 0l.347.493a.068.068 0 01-.001.062.074.074 0 01-.022.024.07.07 0 01-.031.01h-.598a.061.061 0 01-.035 0 .063.063 0 01-.029-.018.055.055 0 01-.014-.032.067.067 0 01.006-.034z" fill="#F0F0F0"/><path d="M113.376 56.56a.089.089 0 01-.08-.065.09.09 0 01.032-.098l.892-.517a.089.089 0 01.119.036c.011.02.013.045.007.067a.092.092 0 01-.042.053l-.886.511a.06.06 0 01-.042.012zm22.612-4.924l2.184 1.088a.243.243 0 01.13.213.242.242 0 01-.13.213l-2.028 1.203a.245.245 0 01-.365-.198l-.15-2.26a.244.244 0 01.094-.25.24.24 0 01.265-.01z" fill="#F0F0F0"/><path d="M138.92 56.541a.364.364 0 01-.287-.15l-2.315-3.288a.356.356 0 01.089-.487.347.347 0 01.479.084l2.316 3.325a.35.35 0 01-.084.48.353.353 0 01-.198.037zm5.864 8.405l-2.184-1.088a.24.24 0 01-.094-.338.24.24 0 01.094-.089l2.029-1.202a.246.246 0 01.325.077.26.26 0 01.04.115l.149 2.267a.244.244 0 01-.093.25.24.24 0 01-.266.008z" fill="#F0F0F0"/><path d="M144.186 64.056a.342.342 0 01-.281-.15l-2.316-3.319a.355.355 0 01-.074-.269.355.355 0 01.146-.237.34.34 0 01.272-.054.356.356 0 01.225.164l2.315 3.318a.35.35 0 01.006.39.36.36 0 01-.095.097.335.335 0 01-.198.06zM114.16 79.825a5.404 5.404 0 002.172-2.272c.544-.915.976-1.892 1.287-2.91.55-1.868.55-3.856 0-5.723-.036-.12-.252-.199-.228 0 .313 1.83.25 3.707-.185 5.513a12.605 12.605 0 01-1.293 2.97 24.563 24.563 0 01-1.741 2.35v.084l-.012-.012z" fill="#F0F0F0"/><path d="M116.171 70.982c.415-.249.751-.612.969-1.046a3.949 3.949 0 00.485-1.6l-.341-.108a4.814 4.814 0 001.406 2.586c.089.096.21.158.341.174.06 0 .054-.108.042-.138a2.27 2.27 0 00-.467-.601 5.188 5.188 0 01-.449-.602 4.868 4.868 0 01-.556-1.394c0-.127-.317-.265-.335-.06a3.795 3.795 0 01-.431 1.544 3.958 3.958 0 01-.748 1.113c-.054.042 0 .204.066.168l.018-.036zM56.98 82.76l-.413.24-.718-1.028a.885.885 0 00-1.143-.259l-.832.487a.712.712 0 00-.356.776c.02.1.063.194.123.276l.718 1.028-.413.24a.167.167 0 00-.085.187.168.168 0 00.031.066l1.197 1.696a1.304 1.304 0 001.688.378l1.34-.775a1.055 1.055 0 00.522-1.144 1.06 1.06 0 00-.181-.407l-1.197-1.696a.21.21 0 00-.281-.066zm-2.878.228a.24.24 0 01.078-.35l.831-.486a.297.297 0 01.383.084l.712 1.028-1.292.752-.712-1.028zm2.686 2.218l.39.439-.455.258-.282-.499a.597.597 0 01-.598-.24.495.495 0 01.156-.716.596.596 0 01.777.175.476.476 0 01.012.583zm29.56-7.268a11.7 11.7 0 00-2.729-1.359 27.79 27.79 0 00-2.788-.878 26.967 26.967 0 00-5.457-.956 17.09 17.09 0 00-6.02.926c-.978.322-1.935.703-2.866 1.142-.821.356-1.6.804-2.322 1.335a7.24 7.24 0 00-1.86 2.14 4.73 4.73 0 00-.51 1.269 4.227 4.227 0 000 1.4c0 .15.228.26.252.055.048-.277.126-.547.233-.806.066-.216.114-.433.192-.65.135-.365.301-.72.497-1.057a6.896 6.896 0 011.597-1.804 10.47 10.47 0 012.178-1.292 25.066 25.066 0 012.561-1.07 17.238 17.238 0 015.583-1.052c1.859.04 3.706.297 5.505.769a26.707 26.707 0 015.906 2.068c.084.042.102-.15.048-.192v.012z" fill="#F0F0F0"/><path d="M60.498 81.31c.201.383.427.753.677 1.106.215.337.436.68.64 1.028.072.114.305.259.395.078a4.711 4.711 0 012.92-2.128c.269-.084 0-.493-.24-.445.252-.054 0 0-.072 0a1.34 1.34 0 00-.22.054 4.18 4.18 0 00-.521.193 5.374 5.374 0 00-.898.487 4.14 4.14 0 00-1.382 1.515l.395.078a29.88 29.88 0 00-.694-1.076 9.02 9.02 0 00-.808-1.094c-.138-.145-.258.054-.192.186v.018zm54.871-46.748l14.69-8.513a.754.754 0 00.245-1.106l-.215-.307a.935.935 0 00-1.197-.276l-14.69 8.525a.764.764 0 00-.374.5.766.766 0 00.129.612l.215.306a.932.932 0 001.197.259zm.987 2.308l12.691-7.364a.29.29 0 00.149-.324.29.29 0 00-.053-.115l-.084-.12a.371.371 0 00-.478-.108l-12.692 7.364a.295.295 0 00-.146.198.302.302 0 00.05.241l.084.12a.378.378 0 00.479.109zm-9.059 14.08a1.302 1.302 0 01-1.083-.553l-6.427-9.222a1.097 1.097 0 01-.185-.896 1.109 1.109 0 01.538-.721l9.67-5.61a1.316 1.316 0 011.711.385l6.427 9.223a1.102 1.102 0 01-.008 1.314c-.092.124-.21.227-.345.303l-9.67 5.609a1.23 1.23 0 01-.628.168zm3.147-16.833a.916.916 0 00-.461.12l-9.669 5.64a.76.76 0 00-.371.492.76.76 0 00.131.601l6.415 9.229a.967.967 0 001.251.276l9.669-5.609a.762.762 0 00.371-.493.758.758 0 00-.131-.601l-6.427-9.228a.965.965 0 00-.778-.409v-.018z" fill="#F0F0F0"/><path d="M103.689 41.434l4.631 4.479c-.14.059-.269.14-.383.24a1.174 1.174 0 00-.391 1.317c.055.154.141.296.253.414a1.399 1.399 0 001.867-.054 1.167 1.167 0 00.45-.833 1.153 1.153 0 00-.318-.892l-3.74-3.607 3.465-3.066 2.95 2.85c-.143.06-.274.143-.389.246a1.165 1.165 0 00-.138 1.725 1.395 1.395 0 001.867-.054 1.152 1.152 0 00.453-.832 1.155 1.155 0 00-.315-.893l-5.44-5.267-4.822 4.227z" fill="#0064AF"/><path d="M131.022 34.039a3.548 3.548 0 00-.981.601 5.511 5.511 0 01-.665.246c-.203.103-.233.32-.4.457-.264.21-.665 0-.838.391-.084.174-.126.806-.533.445a2.497 2.497 0 01-.335-.493c-.072-.108-.299-.168-.347 0-.144.415-.054.932-.293 1.317-.132.204-.287.198-.413.096a2.104 2.104 0 00-.03-1.245.24.24 0 00-.293-.132c-.521.277-.437 1.052-.042 1.485a1.006 1.006 0 01-.533.523c-.203.072-.418.066-.55.24-.132.175-.126.355-.251.511-.108-.102-.216-.198-.311-.306-.096-.108-.132-.09-.168 0a3.893 3.893 0 01-.329.493c-.18-.457-.317-.956-.844-1.172a.072.072 0 00-.078 0 1.87 1.87 0 00-.472 1.022c0 .072.137.174.149.066.031-.233.12-.454.258-.644.143-.204.203-.378.508.049.149.286.271.586.365.895 0 .048.138.169.204.102a3.63 3.63 0 00.389-.57c.098.085.188.18.269.282.036.06.131.114.197.072.264-.186.21-.553.497-.697.287-.145.598-.127.844-.47.036-.059.068-.121.095-.186a.862.862 0 00.3.109c.73.096.831-.65.879-1.239a.778.778 0 00.467.355.596.596 0 00.76-.511c.066-.205.066-.295.323-.355h.245c.24-.072.281-.276.419-.445.138-.168.539-.258.79-.433a3.18 3.18 0 01.892-.6c.167-.043-.024-.301-.144-.26zm5.559-3.505c-.204.223-.246.56-.443.794a.693.693 0 01-.909.084c-.048 0-.156-.042-.186 0a2.75 2.75 0 00-.215.65.717.717 0 01-.569-.211c-.054-.072-.257-.18-.323-.066-.114.21-.191.487-.455.601-.263.114-.568-.114-.754-.319-.089-.108-.347-.162-.383 0-.027.254-.027.51 0 .764a.67.67 0 01-.077.373c-.108.162-.371.258-.437 0-.066-.259-.449-.283-.407-.048a.714.714 0 00.834.545.71.71 0 00.327-.16c.311-.271.215-.668.191-1.04.221.163.492.246.766.234a.797.797 0 00.712-.565c.247.146.528.223.814.222a.108.108 0 00.12-.078 3.19 3.19 0 00.149-.601.99.99 0 00.976 0 1.306 1.306 0 00.55-1.052c-.018-.097-.197-.21-.281-.127zm-5.505 7.046c-.305 0-1.095-.313-1.329-.03-.03.036 0 .12-.047.162a1.203 1.203 0 01-.318.391c-.281.24-.52 0-.789-.162a.157.157 0 00-.168 0c-.335.378-.329.865-.598 1.262a.473.473 0 01-.539.246.857.857 0 00-.371 0c-.341.09-.407.361-.497.644-.203.601-.598-.096-.861-.313-.096-.072-.251-.12-.305 0-.216.505-.341 1.335-.922 1.587 0-.096-.215-.258-.239-.114a.976.976 0 000 .265c.007.05.031.094.069.127a.208.208 0 00.134.053c.796-.102.982-.932 1.245-1.539.227.289.401.601.874.541.472-.06.365-.535.598-.805.233-.271.311-.085.52-.073a.644.644 0 00.449-.114c.503-.355.443-.98.682-1.467.401.259.724.379 1.101 0 .132-.138.234-.439.383-.493.347-.132.742.199 1.101.085.12-.06-.083-.247-.173-.253zm5.523-3.83c-.12.17-.228.367-.443.44a.84.84 0 01-.634-.09c-.09-.049-.222-.073-.258.036-.179.474-.682 1.424-1.304.709-.09-.102-.341-.168-.377 0a2.277 2.277 0 01-.317.794.678.678 0 01-.269.282c-.138.042-.168-.102-.228-.222-.06-.12-.359-.235-.395-.048a1.943 1.943 0 01-.431.805c-.059.078-.167.24-.281.253-.113.012 0 0 0 0s-.131-.193-.161-.259c-.09-.198-.599-.246-.467 0 .191.47.658.854 1.155.493.26-.206.447-.49.532-.811a.598.598 0 00.754 0c.262-.229.446-.534.527-.872a.973.973 0 00.957.096 1.34 1.34 0 00.67-.926c.229.096.48.126.724.084a.735.735 0 00.551-.553c0-.132-.215-.33-.305-.21zm1.52-.703a.138.138 0 00-.084 0l-.096.03a.188.188 0 00-.054 0h-.179a.122.122 0 00-.102 0 .066.066 0 00-.032.03.072.072 0 00-.01.042.14.14 0 00.042.097.226.226 0 00.108.078c.09.021.184.021.275 0a.486.486 0 00.126-.03.281.281 0 00.107-.096.1.1 0 000-.043.147.147 0 00-.042-.072l-.059-.036zm-5.098 7.1a2.83 2.83 0 01-1.251 0h-.09c-.108.283-.096.565-.371.764a.756.756 0 01-.993-.078c-.066-.06-.215-.084-.221.03-.006.114 0 .673-.132.559-.132-.114-.222-.078-.245 0-.024.21-.087.414-.186.601a.597.597 0 01-.281.18.643.643 0 01-.299 0c-.138 0-.21-.03-.312.084-.101.115-.149.494-.347.301-.047-.048-.245-.15-.269 0-.01.095-.032.188-.066.277-.083.216-.161.372-.419.312-.257-.06-.311-.246-.49-.39-.06-.055-.174-.085-.216 0-.239.432-.305.895-.724 1.202-.077.066.072.246.156.186.348-.297.615-.677.778-1.106.173.198.323.427.634.433.311.006.539-.313.598-.601a.333.333 0 00.306.042.685.685 0 00.221-.21.607.607 0 00.072-.103c.084-.12 0-.09.143-.114a2.9 2.9 0 00.312 0 1.01 1.01 0 00.389-.18 1.08 1.08 0 00.281-.602c.329.115.365-.276.365-.6a1.078 1.078 0 001.017.12.826.826 0 00.509-.896c.396.141.83.141 1.226 0 .138-.036.006-.223-.095-.21zm-20.854 51.906c-.221.361-.777.806-1.25.367-.066-.054-.186-.09-.204 0a4.082 4.082 0 01-.263.926c-.108.247-.562 1.022-.832.42-.048-.113-.317-.234-.365-.065-.149.493-.263 1.202-.873 1.352a.685.685 0 01-.383 0 .864.864 0 000-.715.284.284 0 00-.329-.174.517.517 0 00-.39.385.522.522 0 00.168.522.173.173 0 01-.036.037c-.259.185-.552.32-.861.396-.18.036-.287 0-.395.15-.108.15 0 .271-.114.367a.557.557 0 01-.598.042c-.048-.042-.15-.084-.204-.03a3.08 3.08 0 00-.347.602c-.149.3-.335.643-.658.198-.042-.06-.161-.132-.215-.048-.173.361-.41.687-.7.962-.276-.397-.551-1.076-1.089-1.124-.629-.055-.826.835-.88 1.256 0 .066.132.174.15.084.059-.385.388-1.509 1.023-1.028.335.259.484.716.742 1.034a.13.13 0 00.161.042c.324-.246.583-.568.754-.938.168.187.389.343.634.187.246-.157.413-.644.629-.938a.702.702 0 00.706 0c.203-.078.281-.12.335-.313 0-.042 0-.174.054-.21.054-.036.245 0 .341-.036.346-.088.666-.257.933-.493.039.02.079.038.12.054.915.319 1.502-.511 1.663-1.25a.6.6 0 00.904-.097 1.97 1.97 0 00.509-1.346c.538.21 1.196.12 1.352-.481.012-.036-.138-.187-.192-.097zm7.42-3.745c-.173.397-.796.601-1.197.601-.305 0-.424.078-.472.36-.03.181-.108.217-.281.301-.13.068-.266.12-.407.157a.978.978 0 01-1.101-.307c-.042-.06-.174-.138-.222-.048a1.81 1.81 0 01-.472.715c-.312.247-.748.41-.988 0-.054-.096-.341-.192-.317 0a1.67 1.67 0 01-.108 1.155 1.196 1.196 0 01-1.131.396c-.239 0-.041.277.12.295a1.508 1.508 0 001.329-.379 1.204 1.204 0 00.227-1.01.952.952 0 00.85 0 1.44 1.44 0 00.765-.775 1.744 1.744 0 001.933 0 .388.388 0 00.252-.325v-.198c0-.03.275 0 .382-.036.238-.046.467-.125.683-.235a.729.729 0 00.472-.505c.012-.132-.251-.312-.317-.162zm-10.262 8.994c-.215.324-.598 1.268-1.197.739-.095-.09-.347-.174-.377 0a1 1 0 01-.941.833.995.995 0 01-.441-.082.137.137 0 00-.167.079.925.925 0 01-.829.657.912.912 0 01-.368-.056.109.109 0 00-.102.003.118.118 0 00-.038.037.112.112 0 00-.016.05c0 .36-.245.415-.502.601a.874.874 0 00-.497.066c-.149.096-.209.319-.287.493a4.52 4.52 0 00-.67-.541c-.03 0-.078-.03-.102 0-.165.15-.297.332-.389.535-.036.084.138.253.186.151.081-.168.193-.319.329-.445.233.168.425.378.646.565.054.048.144.084.191 0 .048-.084.138-.349.258-.463a.788.788 0 01.341-.126.14.14 0 00.078.044c.031.005.062 0 .089-.014.329-.229.569-.265.641-.644a1.143 1.143 0 001.382-.685 1.291 1.291 0 001.597-.697.91.91 0 00.868.036 1.204 1.204 0 00.67-.992c-.024-.114-.263-.27-.353-.144zm2.914-.614l-.078.043-.125.09c-.083.06-.161.126-.234.198a6.281 6.281 0 00-.484-.68c-.162-.198-.335-.39-.509-.6-.072-.079-.329-.127-.299.036a1.813 1.813 0 01-.407 1.358c-.09.127.197.337.293.21.255-.315.422-.692.485-1.094.162.193.313.394.455.602.085.13.163.264.233.403-.06.072-.132.132-.179.204a1.202 1.202 0 00-.27 1.082.315.315 0 00.329.174.925.925 0 00.635-.42.88.88 0 000-.632 1.651 1.651 0 00-.078-.216c.06-.066.114-.138.173-.198l.198-.187a.862.862 0 00.161-.168c.078-.09-.161-.253-.299-.205zm8.742-6.21c-.329.114-.879.205-1.053.523-.072.126 0 .373-.137.475-.138.102-.324 0-.461 0a2.697 2.697 0 00-.599.144 3.4 3.4 0 01-.658.102c-.311 0-.257.169-.353.397-.096.229-.389.385-.532.602-.144.216 0 .318-.258.33-.143 0-.299-.126-.448-.132-.15-.006-.425.228-.533.39-.263.38-.359.512-.933.35a.193.193 0 00-.216.047c-.092.25-.233.479-.413.674-.257.192-.556-.036-.79-.187-.095-.06-.323-.078-.365.055-.149.474-.598 1.334-1.25.8-.168-.145-.419 0-.239.155.753.8 1.561.163 1.89-.565a1.2 1.2 0 00.91.163 1.1 1.1 0 00.628-.794c.245.093.515.093.76 0 .227-.126.299-.39.419-.601.245-.403.473 0 .826-.09a.307.307 0 00.203-.198c.06-.134.139-.257.234-.367.116-.106.224-.22.323-.343.048-.107.106-.21.173-.307.126-.12.251-.048.437-.072.29-.1.586-.182.886-.246.299 0 .568.15.718-.193.095-.204 0-.373.233-.535.249-.13.507-.245.772-.343.12-.078-.054-.276-.174-.234zm-34.107-11.14c-.951.866-1.268 2.285-1.442 3.5a16.671 16.671 0 000 4.694c.27 1.64.814 3.221 1.61 4.678a14.063 14.063 0 003.59 4.454 8.182 8.182 0 005.344 2.062c.15 0 .035-.228-.066-.246a10.315 10.315 0 01-2.483-.553 8.5 8.5 0 01-2.113-1.245 13.644 13.644 0 01-3.506-4.016 15.072 15.072 0 01-1.795-4.575 16.26 16.26 0 01-.222-4.31 8.143 8.143 0 011.299-4.268c.066-.085-.096-.253-.18-.175h-.036z" fill="#F0F0F0"/><path d="M92.846 99.394a16.47 16.47 0 011.795-.439 7.629 7.629 0 011.735-.066c.156 0 .27-.156.108-.259-.478-.312-1.005-.559-1.508-.841a6.162 6.162 0 01-.724-.463 3.346 3.346 0 01-.31-.27l-.127-.133c-.053-.048-.125-.138-.191-.192-.066-.054-.078-.048-.114-.085-.036-.036-.155-.042-.12.055.037.096 0 .114 0 .174a1.881 1.881 0 00.419.505c.241.205.5.388.772.547.55.319 1.143.601 1.682.926l.113-.259a8.014 8.014 0 00-1.896.072 8.18 8.18 0 00-.94.21c-.287.065-.563.17-.82.313-.101.06.042.229.132.205h-.006zm58.048-51.852c-.036.258-.042.51-.276.685a1.444 1.444 0 01-.688.234 3.832 3.832 0 01-1.454-.09c-.06 0-.161 0-.167.084 0 .541-.275 1.239-1.011.974a.727.727 0 01-.156-.072 1.04 1.04 0 00-.15-1.046c-.048-.072-.185-.156-.275-.096-.467.3-.365.751-.054 1.088a1.2 1.2 0 01-1.125.463c-.095 0-.185.048-.167.144.066.337.167.89-.204 1.094-.371.205-.796 0-1.101-.144-.083-.036-.281-.066-.287.072a2.414 2.414 0 01-.203.788 1.54 1.54 0 01-.27-.253c-.053-.072-.335-.192-.341 0-.016.171-.048.34-.095.505a1.564 1.564 0 00-1.287-.86.083.083 0 00-.037.01.095.095 0 00-.029.027c-.149.252-.048.378.054.6.048.127.287.17.222 0-.03-.077-.15-.294-.09-.36.131-.162.526.108.598.192.232.23.389.526.449.848 0 .096.275.24.311.09.036-.15.138-.438.198-.66.092.072.179.15.263.233.102.097.329.169.377 0a6.68 6.68 0 00.263-.865 1.7 1.7 0 001.245.096c.478-.216.454-.782.383-1.202a1.499 1.499 0 001.196-.523l.084.054a1.272 1.272 0 00.999.096 1.106 1.106 0 00.599-1.016c.939.162 3.141.144 2.501-1.112-.018-.09-.257-.217-.275-.078zm-.515 3.901c-.227.06-.371.253-.556.379-.186.126-.479.289-.724.427-.449.246-.982.343-1.418.601a6.89 6.89 0 00-.862.71.968.968 0 01-1.197.138c-.09-.048-.311-.042-.299.096a1.38 1.38 0 01-.317.92 1.36 1.36 0 01-.275.246v-.036a.56.56 0 00-.108-.222c-.042-.06-.156-.127-.21-.048-.275.402.294.817.695.6a1.57 1.57 0 00.676-1.13c.314.12.661.12.975 0a3.77 3.77 0 00.952-.72 5.584 5.584 0 011.43-.68 5.02 5.02 0 001.478-.956.126.126 0 000-.126.712.712 0 00-.042-.09.194.194 0 00-.198-.109zm-.377 2.579c.497 1.088 1.275 2.038 1.795 3.114a9.654 9.654 0 01-.371 9.62 10.61 10.61 0 01-.999 1.322 9.706 9.706 0 01-1.454 1.256c-.15.108.072.361.215.313a5.46 5.46 0 002.466-2.182 9.307 9.307 0 001.418-3.006c.61-2.267.414-4.676-.557-6.812a13.959 13.959 0 00-2.423-3.727c-.078-.084-.126.066-.096.126l.006-.024z" fill="#F0F0F0"/><path d="M149.709 67.2a3.37 3.37 0 00-.736 1.473 3.186 3.186 0 01-.646 1.142c-.162.169.101.41.275.385.419-.06.814-.204 1.227-.295.196-.047.396-.071.598-.072.085.006.169.018.251.036.132.067.273.11.419.127 0 0 .114-.042.102-.072-.012-.03-.03-.235-.114-.32l-.078-.06a.534.534 0 00-.167-.077 1.39 1.39 0 00-.347-.079 2.784 2.784 0 00-.742.048c-.419.079-.868.247-1.269.307l.282.385c.32-.368.555-.804.688-1.275.155-.48.311-.962.478-1.436.036-.109-.083-.32-.203-.217h-.018zM81.68 110.816a.301.301 0 01-.09.433.364.364 0 01-.472-.108.296.296 0 01-.05-.236.29.29 0 01.146-.191.36.36 0 01.466.102zm1.006-.601a.299.299 0 01-.002.352.297.297 0 01-.094.081.357.357 0 01-.517-.22.293.293 0 01.053-.235.295.295 0 01.093-.08.363.363 0 01.467.102zm.999-.601a.291.291 0 01-.002.347.295.295 0 01-.094.08.363.363 0 01-.466-.102.297.297 0 01.095-.433.357.357 0 01.467.108z" fill="#F0F0F0"/><path d="M75.655 117.237a.71.71 0 01-.598-.295l-18.79-26.957a.603.603 0 01-.095-.48.765.765 0 01.36-.476l15.676-9.09a.775.775 0 011.018.175l18.902 27.095a.453.453 0 01.078.355.822.822 0 01-.443.469l-15.671 9.09a.88.88 0 01-.437.114zM72.663 80.18a.477.477 0 00-.251.066l-15.677 9.09a.402.402 0 00-.192.246.254.254 0 00.036.199l18.795 26.963a.438.438 0 00.55.066l15.677-9.09c.228-.132.264-.21.27-.24.006-.03 0-.03 0-.073L72.992 80.312a.382.382 0 00-.347-.156l.018.024z" fill="#F0F0F0"/><path d="M67.643 94.542l5.307-3.078a.126.126 0 00.036-.186v-.048a.161.161 0 00-.203-.049l-5.308 3.079a.125.125 0 00-.06.085.126.126 0 00.024.101l.036.048a.15.15 0 00.168.048zm12.159 12.956l-1.586-2.273a.393.393 0 00-.509-.114l-.137.078a.323.323 0 00-.155.346.329.329 0 00.053.123l1.586 2.272a.395.395 0 00.508.115l.132-.079a.324.324 0 00.108-.468zm1.598-.932l-1.586-2.266a.39.39 0 00-.509-.115l-.132.079a.315.315 0 00-.162.345c.01.044.028.087.055.124l1.585 2.272a.4.4 0 00.509.114l.138-.084a.314.314 0 00.156-.211.32.32 0 00-.055-.258zm-5.631 1.804l1.346-.03a.131.131 0 00.119-.072.133.133 0 00-.011-.139l-.748-1.076a.138.138 0 00-.227 0l-.599 1.106a.133.133 0 00.046.197.127.127 0 00.074.014z" fill="#F0F0F0"/><path d="M76.14 108.923l-.898-1.281a.22.22 0 00-.287-.06l-.072.042a.177.177 0 00-.09.195.184.184 0 00.03.07l.892 1.28a.227.227 0 00.287.066l.078-.048a.18.18 0 00.06-.264zm7.078-4.864l-.598 1.1a.128.128 0 01-.048.048.126.126 0 01-.131 0 .128.128 0 01-.048-.048l-.748-1.07a.138.138 0 01.108-.216l1.346-.031a.135.135 0 01.073.018.136.136 0 01.07.127.139.139 0 01-.024.072z" fill="#F0F0F0"/><path d="M83.625 104.582l-.897-1.281a.178.178 0 01-.03-.146.181.181 0 01.09-.118l.077-.042a.22.22 0 01.288.06l.891 1.28a.184.184 0 01.03.146.179.179 0 01-.09.119l-.072.048a.222.222 0 01-.287-.066zM65.662 93.64a.084.084 0 010-.035V92.6a1.478 1.478 0 01-.455.169 1.253 1.253 0 01-.861-.157 1.143 1.143 0 01-.341-.318 1.03 1.03 0 01-.174-.415.881.881 0 010-.415.994.994 0 01.204-.373 1.509 1.509 0 01.82-.475c.152-.03.308-.03.46 0a1.099 1.099 0 01.874.691c.023.072.041.144.054.217.006.07.006.14 0 .21.006.067.006.133 0 .2l-.036 1.424a.3.3 0 010 .072.133.133 0 01-.066.078l-.353.205a.15.15 0 01-.09 0 .138.138 0 01-.036-.072zm-1.113-1.67a.527.527 0 00.371.234.718.718 0 00.443-.102.6.6 0 00.287-.331.417.417 0 00-.072-.397.516.516 0 00-.37-.234.668.668 0 00-.443.096.642.642 0 00-.293.33.44.44 0 00.077.403zm2.34-1.534a.173.173 0 01.096 0 .15.15 0 01.077.054l.258.367a.121.121 0 010 .09.11.11 0 01-.054.072l-.365.21a.13.13 0 01-.096 0 .106.106 0 01-.078-.054l-.257-.36a.127.127 0 010-.09.085.085 0 01.054-.073l.365-.216zm.91 1.31a.106.106 0 01.095 0 .12.12 0 01.078.049l.257.366a.126.126 0 010 .09.108.108 0 01-.054.072l-.365.21a.125.125 0 01-.095 0 .18.18 0 01-.078-.053l-.258-.367a.127.127 0 010-.09.11.11 0 01.054-.072l.365-.205zm.993-3.462a.173.173 0 01.096 0 .132.132 0 01.083.054l.186.265a.176.176 0 010 .096v.09l-.168.908a1.27 1.27 0 01.371-.103.983.983 0 01.353 0 .959.959 0 01.575.397.88.88 0 01.161.391c.017.13 0 .263-.048.385a1.131 1.131 0 01-.221.355c-.112.118-.241.22-.383.3a1.79 1.79 0 01-.52.216 1.443 1.443 0 01-.443.037.93.93 0 01-.36-.103.712.712 0 01-.25-.198.09.09 0 010-.084.115.115 0 01.06-.078l.304-.175a.106.106 0 01.084 0l.102.042.12.049a.772.772 0 00.353-.048 1.64 1.64 0 00.25-.12.726.726 0 00.318-.313.313.313 0 00-.03-.343.33.33 0 00-.317-.156 1.026 1.026 0 00-.437.15l-.323.186a.108.108 0 01-.096 0 .15.15 0 01-.084-.048l-.179-.264a.138.138 0 010-.096.469.469 0 010-.097l.167-.865-1.083.6a.131.131 0 01-.095 0 .15.15 0 01-.078-.053l-.186-.265a.127.127 0 010-.09.097.097 0 01.054-.072l1.664-.95zm3.428-.607c.03.048.072.096.108.156l.126.174.12.174.107.163c.087.137.157.285.21.439a.96.96 0 01.047.427.897.897 0 01-.173.396 1.422 1.422 0 01-.43.361c-.166.1-.349.17-.54.204a1.09 1.09 0 01-.466 0 1.11 1.11 0 01-.407-.216 2.483 2.483 0 01-.347-.36 6.439 6.439 0 01-.234-.32 5.118 5.118 0 01-.215-.33 1.865 1.865 0 01-.215-.439.996.996 0 01-.048-.433.82.82 0 01.167-.402c.117-.15.264-.273.431-.361.163-.103.344-.173.533-.205.155-.036.317-.036.472 0 .148.043.284.117.401.217.13.106.248.225.353.355zm-1.13 1.563c.11.147.256.263.424.336a.556.556 0 00.491-.078c.186-.108.281-.228.287-.373a.838.838 0 00-.155-.493 3.59 3.59 0 00-.21-.318 8.717 8.717 0 00-.227-.313 1.024 1.024 0 00-.425-.337.596.596 0 00-.49.079.497.497 0 00-.288.372.917.917 0 00.156.5c.06.096.131.198.21.312.077.114.155.246.227.313zm-10.334-.145l-.054-.072-.186.108v-.378l.18.258h.042-.042l.048.072h-.03l.042.012zm-.102-.162l-.132-.186v.264l.132-.078zm.293-.012a.365.365 0 01-.18-.144.275.275 0 01-.06-.204.212.212 0 01.114-.15l.078-.037h.114v.042a.173.173 0 00-.114 0 .162.162 0 00-.078.103.223.223 0 00.054.15c.029.05.073.087.126.108a.166.166 0 00.132 0h.041a.078.078 0 00.03-.036l-.083-.12-.078.042.126-.072.12.174a.257.257 0 01-.12.12.238.238 0 01-.222.024zm1.568-.95a.122.122 0 01.017.092.121.121 0 01-.053.076.143.143 0 01-.186-.041.122.122 0 01.002-.136.12.12 0 01.034-.033.143.143 0 01.186.042z" fill="#F0F0F0"/><path d="M62.21 87.76a.295.295 0 00-.15.29s0 .041.048.047c0 0 .06 0 .054-.048a.224.224 0 01.108-.21.269.269 0 01.25 0 .048.048 0 00.073 0 .048.048 0 000-.06.381.381 0 00-.383-.018z" fill="#F0F0F0"/><path d="M62.096 87.593a.48.48 0 00-.245.432s0 .042.048.048c.006.001.013 0 .02-.001a.047.047 0 00.03-.027.047.047 0 00.003-.02.375.375 0 01.204-.348.458.458 0 01.43 0 .054.054 0 00.072 0 .054.054 0 00-.03-.06.597.597 0 00-.532-.025zm-3.381 2.765l-.102-.144.198-.12.102.144-.198.12zm.299-.18l-.203-.283.203-.12.198.289-.198.114zm.3-.175l-.3-.427.204-.12.299.433-.203.114zm.305-.173l-.401-.572.197-.12.401.577-.197.114zM72.16 81.9a.167.167 0 00-.107 0l-.748.438c-.048 0-.054.097 0 .157l.185.264a.228.228 0 00.096.073h.054a.09.09 0 00.054 0l.748-.433a.113.113 0 00.034-.082.114.114 0 00-.034-.08l-.186-.26a.197.197 0 00-.095-.077zm-.598.895a.078.078 0 01-.042-.036l-.185-.258c-.03-.048-.03-.102 0-.126l.754-.433h.042a.076.076 0 01.041.036l.186.264c.03.042.03.102 0 .12l-.754.433a.036.036 0 01-.024 0h-.018z" fill="#F0F0F0"/><path d="M71.538 82.338l.216.312-.12.067h-.036l-.162-.229a.066.066 0 010-.09l.102-.06zm.054-.03l.138-.084.215.313-.137.078-.216-.307zm.192-.114l.143-.084.216.313-.138.084-.221-.313zm.353-.174l.155.222c.03.042 0 .09-.048.12l-.047.03-.216-.313.114-.06a.036.036 0 01.042 0zm.149-.06s.072 0 .108.078v.048c.042.054.054.108.036.12h-.036l-.174-.246h.066zm-2.088 1.262l.634-.565.126.637-.3-.222-.46.15zm8.766 14.2c.431.964.486 2.055.154 3.057a4.204 4.204 0 01-1.95 2.354 5.175 5.175 0 01-5.51-.289l.604-4.352 5.026 1.7c.39.127.45.037.126-.21l-1.238-.811.508-1.96 2.28.511z" fill="#F0F0F0"/><path d="M71.748 95.09a4.225 4.225 0 00-2.075 2.796 4.257 4.257 0 00.716 3.414c.179.248.379.479.599.691l.652-4.437a.205.205 0 01.108-.156.238.238 0 01.203 0l3.53 1.202.599-2.296a.234.234 0 01.287-.15l2.148.505a5.205 5.205 0 00-3.085-2.085 5.185 5.185 0 00-3.682.515zm2.722 1.31a.703.703 0 01-.915-.204.601.601 0 01.185-.842.69.69 0 01.91.204.604.604 0 01-.18.83v.012zM37.988 80.841a.198.198 0 01-.168 0 .294.294 0 01-.144-.084l-3.26-4.689a.222.222 0 01-.048-.168.2.2 0 01.083-.133l.539-.306a.19.19 0 01.161 0 .251.251 0 01.15.108l3.267 4.683a.22.22 0 01.042.169.17.17 0 01-.084.132l-.538.288zm4.757-3.03a.205.205 0 01.042.162.163.163 0 01-.084.133l-.503.294a.214.214 0 01-.161 0 .251.251 0 01-.15-.108l-1.286-1.84a1.564 1.564 0 00-.67-.6.798.798 0 00-.748.065.666.666 0 00-.366.602c.003.294.102.579.282.811l1.286 1.846a.245.245 0 01.042.168.168.168 0 01-.084.133l-.502.288a.167.167 0 01-.162 0 .269.269 0 01-.15-.102l-2.357-3.385a.215.215 0 01-.042-.168.15.15 0 01.084-.126l.502-.295a.214.214 0 01.162 0 .252.252 0 01.15.108l.12.163c.024-.19.085-.375.179-.542a1.2 1.2 0 01.46-.444c.236-.14.5-.225.773-.247.235-.014.47.025.688.114.223.097.426.236.598.41.197.18.373.381.526.6l1.37 1.96zm1.178-2.326a.778.778 0 00.36.294.596.596 0 00.502-.102l.401-.234a.214.214 0 01.162 0 .251.251 0 01.15.108l.334.475a.224.224 0 01.042.168.162.162 0 01-.084.132l-.484.283a1.576 1.576 0 01-1.197.222 1.85 1.85 0 01-1.035-.817l-1.09-1.557-.436.246a.191.191 0 01-.162 0 .251.251 0 01-.15-.108l-.334-.481a.242.242 0 01-.042-.168.158.158 0 01.084-.126l.436-.253-.825-1.202a.216.216 0 01-.042-.169.169.169 0 01.084-.132l.502-.289a.168.168 0 01.162 0 .27.27 0 01.15.103l.825 1.202.85-.493a.19.19 0 01.161 0 .252.252 0 01.15.108l.335.475a.216.216 0 01.042.168.168.168 0 01-.084.133l-.85.493 1.083 1.52zm1.203-1.431a3.126 3.126 0 01-.419-.836 2.17 2.17 0 01-.113-.811 1.64 1.64 0 01.221-.71c.14-.225.333-.41.563-.54.234-.14.499-.223.771-.241.268-.017.536.017.79.102.266.094.514.23.736.403.232.179.434.394.599.637l.227.33a.216.216 0 01.048.169.176.176 0 01-.084.126l-2.202 1.28a.895.895 0 00.27.253.758.758 0 00.316.12.904.904 0 00.336 0 1.2 1.2 0 00.622-.367.71.71 0 00.132-.246.742.742 0 01.065-.15.283.283 0 01.108-.09l.527-.307a.197.197 0 01.167 0 .223.223 0 01.144.108.71.71 0 01.083.325 1.2 1.2 0 01-.071.475 1.732 1.732 0 01-.288.535 1.96 1.96 0 01-.598.487c-.235.136-.496.22-.766.247a1.997 1.997 0 01-.79-.109 2.543 2.543 0 01-.754-.433 3.563 3.563 0 01-.64-.757zm.856-2.026a.78.78 0 00-.281.252.664.664 0 00-.114.289.848.848 0 000 .3c.023.093.057.181.102.265l1.484-.866a1.686 1.686 0 00-.21-.198.771.771 0 00-.598-.18.985.985 0 00-.383.138zm3.991-2.212a.768.768 0 00-.437.523 1.11 1.11 0 00.264.727l1.316 1.888a.245.245 0 01.042.168.169.169 0 01-.084.132l-.503.289a.191.191 0 01-.161 0 .251.251 0 01-.15-.108l-2.357-3.379a.216.216 0 01-.042-.168.169.169 0 01.084-.133l.502-.288a.191.191 0 01.162 0 .252.252 0 01.15.108l.119.162a1.35 1.35 0 01.173-.48c.118-.164.271-.298.45-.391l.293-.169a.197.197 0 01.167 0 .27.27 0 01.15.108l.335.481c.034.05.048.11.042.169a.186.186 0 01-.084.132l-.431.228zm1.143-.577a1.277 1.277 0 01-.108-.403 1.206 1.206 0 01.042-.481c.053-.18.138-.35.251-.5.146-.178.325-.327.527-.438.206-.126.433-.211.67-.252.219-.049.446-.049.664 0 .23.054.446.157.635.3.218.169.408.372.562.601l1.484 2.135a.21.21 0 01.042.168.152.152 0 01-.084.126l-.497.295a.233.233 0 01-.167 0 .251.251 0 01-.15-.109l-.167-.24a1.17 1.17 0 01-.15.601 1.36 1.36 0 01-.556.53 1.7 1.7 0 01-.563.21c-.18.036-.365.036-.544 0a1.469 1.469 0 01-.485-.223 1.68 1.68 0 01-.395-.403 1.146 1.146 0 01-.221-.974c.107-.347.316-.655.598-.883l.934-.824a.65.65 0 00-.473-.319.906.906 0 00-.527.133.522.522 0 00-.221.198.949.949 0 00-.084.24.404.404 0 01-.054.145.305.305 0 01-.09.084l-.598.355a.185.185 0 01-.137 0 .168.168 0 01-.138-.072zm2.525 1.406c.135-.075.253-.178.347-.3a1.01 1.01 0 00.168-.355.84.84 0 000-.367.97.97 0 00-.15-.33l-.048-.072-.784.715a.853.853 0 00-.281.379.364.364 0 00.066.33.324.324 0 00.299.145.89.89 0 00.383-.145zm2.417-3.288c.042.078.096.162.162.264.058.085.122.165.191.24.1.13.222.243.36.331a.936.936 0 001.005.054c.094-.052.18-.117.257-.192.055-.056.1-.12.132-.192a.635.635 0 00.048-.205 1.304 1.304 0 000-.216.966.966 0 010-.187.18.18 0 01.083-.138l.497-.288a.203.203 0 01.168 0 .251.251 0 01.15.108c.076.132.128.276.155.427.04.198.04.403 0 .6-.048.217-.137.42-.264.602-.165.23-.38.419-.628.553-.226.137-.48.222-.742.247-.255.024-.513 0-.76-.073a2.24 2.24 0 01-.706-.336 2.658 2.658 0 01-.598-.547 2.3 2.3 0 01-.216-.283 2.951 2.951 0 01-.197-.306 2.526 2.526 0 01-.3-.722 2.005 2.005 0 01-.035-.727c.036-.234.122-.458.251-.656.146-.211.338-.386.563-.51a2.021 2.021 0 011.555-.235 1.798 1.798 0 01.958.565.18.18 0 01.042.162.164.164 0 01-.084.132l-.503.295a.202.202 0 01-.167 0 1.329 1.329 0 01-.186-.078l-.215-.09a.913.913 0 00-.222-.048.758.758 0 00-.251 0c-.105.03-.206.075-.3.132a.819.819 0 00-.233.198.716.716 0 00-.137.289.807.807 0 000 .36c.027.166.084.325.167.47zm4.799-1.695a.78.78 0 00.36.294.595.595 0 00.496-.102l.407-.229a.191.191 0 01.162 0 .251.251 0 01.15.109l.334.48a.218.218 0 01.042.169.151.151 0 01-.084.126l-.484.289a1.574 1.574 0 01-1.197.216 1.826 1.826 0 01-1.035-.817l-1.09-1.558-.436.253a.215.215 0 01-.162 0 .252.252 0 01-.15-.108l-.334-.475a.224.224 0 01-.042-.168.17.17 0 01.084-.133l.436-.252-.825-1.203a.215.215 0 01-.042-.168.168.168 0 01.083-.132l.497-.289a.227.227 0 01.168 0 .27.27 0 01.15.108l.825 1.203.85-.493a.214.214 0 01.161 0 .251.251 0 01.15.108l.335.475c.033.05.048.109.042.168a.168.168 0 01-.084.133l-.85.493 1.083 1.502zm-.191-5.207a.202.202 0 01.168 0 .251.251 0 01.149.108l.395.565a.218.218 0 01.042.169.168.168 0 01-.084.132l-.568.33a.214.214 0 01-.162 0 .251.251 0 01-.15-.108l-.394-.565a.216.216 0 01-.042-.168.169.169 0 01.083-.132l.563-.331zm3.59 4.87a.243.243 0 01.042.168.17.17 0 01-.084.132l-.502.289a.191.191 0 01-.162 0 .252.252 0 01-.15-.109l-2.357-3.378a.216.216 0 01-.042-.169.168.168 0 01.084-.132l.502-.288a.191.191 0 01.162 0 .25.25 0 01.15.108l2.357 3.379zm-.114-5.051a1.93 1.93 0 011.484-.21c.248.06.483.164.694.306.229.146.431.329.599.542.045.05.085.104.12.162l.143.204.138.199c.04.053.076.11.107.168.133.22.23.46.288.71.044.232.044.47 0 .703a1.736 1.736 0 01-.276.631 1.79 1.79 0 01-.598.499 1.86 1.86 0 01-.742.258c-.248.032-.5.017-.742-.041a2.2 2.2 0 01-.688-.307 2.609 2.609 0 01-.598-.535l-.126-.163a2.84 2.84 0 01-.144-.198l-.137-.204-.108-.169a2.43 2.43 0 01-.287-.709 2.022 2.022 0 010-.71 1.656 1.656 0 01.843-1.136h.03zm1.933 1.167a1.677 1.677 0 00-.353-.319 1.088 1.088 0 00-.353-.126.844.844 0 00-.33 0c-.1.031-.198.071-.292.12-.09.054-.172.118-.246.192a.729.729 0 00-.161.259.737.737 0 000 .349c.026.152.083.297.167.426.028.052.058.102.09.15l.12.187.137.18c.042.06.078.103.108.139.1.125.219.233.353.318.11.063.23.105.353.127.109.02.22.02.33 0 .1-.032.198-.072.292-.12.09-.055.172-.12.246-.193a.726.726 0 00.161-.259.82.82 0 000-.348 1.256 1.256 0 00-.167-.427 1.24 1.24 0 00-.09-.144l-.132-.187c-.041-.06-.083-.126-.125-.18l-.108-.144zm6.235-.781a.245.245 0 01.042.168.17.17 0 01-.084.132l-.502.289a.197.197 0 01-.168 0 .276.276 0 01-.144-.103l-1.286-1.845a1.606 1.606 0 00-.67-.601.817.817 0 00-.748.066.695.695 0 00-.371.6c.002.296.103.582.287.813l1.287 1.84a.248.248 0 01.041.168.175.175 0 01-.083.132l-.503.294a.226.226 0 01-.168 0 .257.257 0 01-.143-.108l-2.358-3.379a.217.217 0 01-.042-.168.168.168 0 01.084-.132l.497-.289a.202.202 0 01.167 0 .27.27 0 01.15.108l.114.169c.029-.192.092-.377.185-.547a1.2 1.2 0 01.46-.44c.234-.144.5-.23.773-.252.235-.012.47.03.688.12.223.095.426.232.598.403.194.183.368.384.52.602l1.377 1.96zm.838-7.341a2.53 2.53 0 01.945-.349 1.97 1.97 0 01.88.054c.293.085.568.225.808.415.273.214.519.463.73.74.269.348.514.703.748 1.07a3.8 3.8 0 01.424.92c.082.272.107.559.072.841a1.597 1.597 0 01-.31.745 2.277 2.277 0 01-.725.602l-1.663.962a.191.191 0 01-.162 0 .251.251 0 01-.15-.109l-3.267-4.689a.21.21 0 01-.041-.168.157.157 0 01.083-.126l1.628-.908zm2.471 1.37a1.906 1.906 0 00-.383-.378 1.368 1.368 0 00-.443-.235 1.279 1.279 0 00-.502-.03 1.32 1.32 0 00-.545.199l-.885.51 2.28 3.265.915-.535c.159-.085.298-.204.407-.349a.903.903 0 00.167-.42 1.056 1.056 0 00-.036-.47 2.459 2.459 0 00-.221-.48 14.461 14.461 0 00-.754-1.076zm2.351.313a3.128 3.128 0 01-.418-.835 2.04 2.04 0 01-.114-.806 1.529 1.529 0 01.784-1.256c.235-.14.5-.223.772-.24.267-.018.535.017.79.101.265.094.514.23.736.403.23.181.432.396.598.637l.228.331a.193.193 0 01.041.168.157.157 0 01-.083.127l-2.19 1.274c.07.1.16.186.263.253a.942.942 0 00.653.12 1.16 1.16 0 00.597-.367.638.638 0 00.138-.246.77.77 0 01.06-.15.378.378 0 01.114-.09l.526-.308a.197.197 0 01.168 0 .221.221 0 01.143.109c.051.1.08.211.084.324.006.162-.018.323-.072.475-.063.194-.16.375-.287.535a1.96 1.96 0 01-.598.487c-.235.136-.496.22-.766.247a1.986 1.986 0 01-.79-.108 2.53 2.53 0 01-.754-.433 3.57 3.57 0 01-.622-.752zm.856-2.026a.779.779 0 00-.28.253.66.66 0 00-.115.288.725.725 0 000 .3c.022.093.054.181.096.265l1.49-.865a1.686 1.686 0 00-.21-.199.771.771 0 00-.598-.18.954.954 0 00-.383.138zm5.524-.547a.288.288 0 00-.138-.102.596.596 0 00-.228 0c-.095 0-.221.048-.365.09l-.568.168a2.447 2.447 0 01-.599.096 1.358 1.358 0 01-.478-.078 1.122 1.122 0 01-.395-.234 2.265 2.265 0 01-.323-.379 1.242 1.242 0 01-.21-.48 1.21 1.21 0 010-.524c.045-.186.126-.362.24-.517.136-.177.307-.324.502-.433.196-.119.41-.204.635-.252a1.91 1.91 0 01.598-.042 1.3 1.3 0 01.49.144c.136.067.256.16.354.276a.199.199 0 01.042.169.17.17 0 01-.084.132l-.509.295a.304.304 0 01-.173.048l-.174-.03a.68.68 0 00-.221 0 .932.932 0 00-.323.132.97.97 0 00-.306.27.253.253 0 000 .32.324.324 0 00.126.113.53.53 0 00.21 0c.117-.017.233-.043.347-.078l.55-.156c.36-.134.754-.15 1.125-.048.308.113.57.324.748.601.101.143.168.308.197.48a1.25 1.25 0 010 .536 1.498 1.498 0 01-.275.529c-.153.186-.34.34-.55.457-.21.124-.439.213-.677.264-.198.034-.4.034-.598 0a1.4 1.4 0 01-.514-.162 1.078 1.078 0 01-.353-.294.181.181 0 01-.042-.163.162.162 0 01.083-.132l.509-.295a.216.216 0 01.186-.036l.191.048a.691.691 0 00.257 0 1.09 1.09 0 00.371-.144c.068-.038.132-.083.192-.132a.828.828 0 00.161-.163.535.535 0 00.09-.174.217.217 0 00-.102-.12zm-.563-5.387a.215.215 0 01.161 0 .252.252 0 01.15.109l.395.565a.217.217 0 01.042.168.15.15 0 01-.084.126l-.563.331a.203.203 0 01-.167 0 .27.27 0 01-.15-.108l-.418-.541a.253.253 0 01-.042-.169.168.168 0 01.083-.132l.593-.349zm3.59 4.87a.224.224 0 01.042.168.162.162 0 01-.084.133l-.502.288a.191.191 0 01-.162 0 .252.252 0 01-.15-.108l-2.357-3.379a.247.247 0 01-.042-.168.17.17 0 01.084-.132l.502-.289a.19.19 0 01.162 0 .251.251 0 01.15.108l2.357 3.38zm3.052-.469c.093-.058.177-.129.251-.21a.941.941 0 00.162-.307.835.835 0 000-.367 1.06 1.06 0 00-.18-.408l-.186-.27a1.2 1.2 0 01-.149.48c-.13.224-.318.407-.545.53a1.43 1.43 0 01-.694.203c-.244.01-.488-.03-.718-.114a2.425 2.425 0 01-.676-.372 2.848 2.848 0 01-.598-.572 3.842 3.842 0 01-.18-.246c-.066-.096-.125-.187-.173-.259a2.743 2.743 0 01-.323-.715 2 2 0 01-.084-.715 1.42 1.42 0 01.191-.638c.119-.204.29-.373.497-.487a1.38 1.38 0 01.395-.168 1.6 1.6 0 01.359-.06c.101-.01.204-.01.305 0 .081.014.161.034.24.06l-.12-.168a.241.241 0 01-.042-.169.173.173 0 01.084-.126l.502-.294a.226.226 0 01.168 0 .29.29 0 01.15.108l2.393 3.403a2.115 2.115 0 01.479 1.58 1.73 1.73 0 01-.922 1.16 2.131 2.131 0 01-.688.26 2.16 2.16 0 01-.676 0 1.879 1.879 0 01-.599-.175c-.168-.08-.316-.2-.43-.349a.18.18 0 01-.048-.162.18.18 0 01.09-.132l.442-.259a.255.255 0 01.21 0l.197.06c.12.05.248.073.377.066.19-.01.376-.067.539-.168zm-2.753-2.356c.081.142.176.277.281.402.18.256.443.443.742.53.235.049.48.01.689-.109a.78.78 0 00.394-.529 1.068 1.068 0 00-.161-.751c-.048-.073-.102-.169-.18-.283a3.14 3.14 0 00-.21-.264 1.25 1.25 0 00-.663-.451.941.941 0 00-.958.317.807.807 0 00-.143.308c-.038.293.037.59.21.83zm7.904-1.93a.222.222 0 01.049.168.194.194 0 01-.09.133l-.497.288a.202.202 0 01-.168 0 .269.269 0 01-.149-.108l-1.28-1.846a1.69 1.69 0 00-.67-.6.798.798 0 00-.749.071.671.671 0 00-.37.601c.002.296.103.582.286.812l1.281 1.846a.198.198 0 01.042.168.168.168 0 01-.084.132l-.496.289a.202.202 0 01-.168 0 .269.269 0 01-.15-.108l-2.357-3.379a.248.248 0 01-.042-.168.187.187 0 01.084-.133l.502-.288a.197.197 0 01.168 0c.06.019.113.057.15.108l.113.162c.026-.19.089-.375.186-.54a1.2 1.2 0 01.46-.446c.233-.141.495-.227.766-.252.238-.012.475.029.694.12.221.1.423.236.599.403.193.182.367.384.52.601l1.37 1.966z" fill="#F0F0F0"/><path d="M20.665 71.98l-.197-.319.239-.138-.198-.319.246-.144-.198-.319.246-.138-.198-.319.245-.138-.197-.319.24-.138 4.05 1.648.198.318-.245.138.197.319-.24.138.198.319-.245.144.197.319-.245.138.197.319-.245.138-4.045-1.647zm43.543 62.962l-.12-.397-.293.102-.12-.396-.287.102-.125-.397-.287.096-.12-.39-.293.102-.12-.397-.293.102-1.586 4.569.12.397.293-.102.12.396.293-.102.12.397.293-.102.12.397.293-.103.12.397.293-.096 1.58-4.575zM131.172 8.23l-.156-.384-.281.132-.156-.385-.281.127-.156-.385-.281.132-.155-.385-.288.126-.155-.384-.281.126-1.161 4.701.155.385.281-.126.156.384.281-.132.156.385.281-.126.156.385.281-.133.155.385.288-.126 1.161-4.702z" fill="#FAFAFA"/><path d="M152.563 170.393c0-.12.694-7.214.694-7.214s-.502.728-4.595.367a22.513 22.513 0 01-4.56-1.064l-.269 5.164c-.718 2.092-4.326 1.804-8.186 2.026a36.26 36.26 0 01-1.992.042h-.042c-2.065.241-3.907 1.804-1.484 3.21 2.423 1.407 6.043 1.449 9.376 1.479 3.985.012 10.998-.012 11.058-4.01z" fill="#FFA8A7"/><path d="M125.254 174.47a4.06 4.06 0 00.077 2.14c.198.746 2.502 3.006 6.068 3.998 3.566.992 7.653.415 9.658.637 2.004.223 3.937 1.022 6.276 1.203 2.34.18 4.614.072 6.612-1.804.306-.715.515-2.278.353-2.405-.424-.342-29.044-3.769-29.044-3.769z" fill="#263238"/><path d="M143.324 168.386c-1.274 1.256-4.398 1.076-7.701 1.262-3.117.174-6.743-.313-8.694.77-1.951 1.082-2.292 3.523 1.053 6.192.97.769 2.053 1.803 3.106 2.206 3.5 1.377 7.18.661 9.526.83 3.046.222 4.859 1.244 7.617 1.1 3.59-.198 5.625-1.479 6.067-2.525.443-1.046-.281-8.699-1.753-8.284 0 0-.215 2.555-6.33 1.16-2.669-.607-2.891-2.14-2.891-2.711z" fill="#37474F"/><path d="M131.088 178.816s-1.197-7.966 3.291-9.132h.598s-.09-.547-1.861-.686c-3.404-.264-5.547.163-6.977 1.63a4.426 4.426 0 00-.891 3.775c.419 1.527 2.184 3.301 5.84 4.413zm3.237-4.701s-.215-3.252 1.987-4.503a1.25 1.25 0 011.322-.054s-2.124.697-2.202 4.563c0 0-.066.271-.557.265-.167 0-.526-.006-.55-.271zm5.355-4.653s0-.102-.598-.114a.955.955 0 00-.628.186s-1.628 1.064-1.383 4.455a.602.602 0 00.629.421.477.477 0 00.378-.092.483.483 0 00.19-.341s-.227-3.577 1.412-4.515zm1.897-.253s-.137-.186-.544-.108c-.521.09-.599.313-.599.313s-1.023 1.497-.562 4.292c0 0 .03.481.688.415.658-.066.479-.601.479-.601s-.389-3.571.538-4.311z" fill="#FAFAFA"/><path d="M143.438 124.367c-.293 7.13-.054 40.279-.054 40.279s4.356 3.68 9.849 1.804l3.417-38.037-13.212-4.046z" fill="#37474F"/><path d="M133.026 182.603c0-.12 1.293-6.919 1.293-6.919s-1.287.865-5.385.601a18.31 18.31 0 01-4.045-.758l-.671 5.026c-.652 2.117-4.266 1.936-8.113 2.273-.653.06-1.323.084-1.993.102h-.042c-2.058.301-3.847 1.942-1.382 3.252 2.465 1.311 6.079 1.263 9.412 1.203 4.009-.084 11.01-.782 10.926-4.78z" fill="#FFA8A7"/><path d="M105.89 187.972a4.043 4.043 0 00.138 2.134c.227.74 2.597 2.916 6.187 3.812 3.59.895 7.665.18 9.67.342 2.004.163 3.967.902 6.313.992 2.345.09 4.613-.066 6.582-2.008.281-.721.442-2.29.281-2.404-.449-.319-29.171-2.868-29.171-2.868z" fill="#263238"/><path d="M123.764 181.341c-1.239 1.293-4.362 1.202-7.659 1.491-3.112.271-6.75-.102-8.671 1.034-1.92 1.136-2.184 3.607 1.239 6.156.993.74 2.106 1.726 3.171 2.11 3.543 1.275 7.181.445 9.574.541 3.052.133 4.901 1.101 7.653.866 3.555-.3 5.577-1.647 5.984-2.699.407-1.052-.545-8.693-2.005-8.236 0 0-.137 2.567-6.294 1.358-2.711-.529-2.98-2.056-2.992-2.621z" fill="#37474F"/><path d="M111.874 192.132s-1.424-7.917 2.992-9.222l.598-.042s-.107-.535-1.884-.601c-3.411-.162-5.541.331-6.924 1.845a4.46 4.46 0 00-.777 3.8c.46 1.509 2.267 3.222 5.995 4.22zm3.064-4.797s-.311-3.241 1.855-4.557a1.236 1.236 0 011.316-.09s-2.1.757-2.058 4.623c0 0-.066.27-.557.282-.161 0-.526.012-.556-.258zm5.218-4.809s0-.102-.599-.096a.983.983 0 00-.598.204s-1.586 1.112-1.245 4.497a.6.6 0 00.641.403.491.491 0 00.556-.451s-.371-3.571 1.245-4.557zm1.89-.313s-.143-.175-.55-.09c-.515.108-.598.33-.598.33s-.988 1.533-.443 4.311c0 0 .048.481.706.396.658-.084.461-.601.461-.601s-.491-3.601.424-4.346z" fill="#FAFAFA"/><path d="M126.151 138.212c-.832 7.383-1.609 28.743-2.154 39.42a14.606 14.606 0 0010.603 1.202l7.569-38.343-16.018-2.279zm47.618 87.43a.885.885 0 01-.626-.264.899.899 0 01-.259-.632v-57.22a.902.902 0 01.897-.902.896.896 0 01.898.902v57.244a.889.889 0 01-.91.872zm35.256-20.819a.877.877 0 01-.498-.152.88.88 0 01-.328-.407l-17.472-44.433a.895.895 0 01.841-1.22.878.878 0 01.623.272.892.892 0 01.188.292l17.472 44.434a.908.908 0 01-.013.682.896.896 0 01-.49.472.85.85 0 01-.323.06z" fill="#455A64"/><path d="M206.925 199.491a.876.876 0 01-.64-.283l-32.516-34.568-32.455 34.424a.888.888 0 01-1.323.132.897.897 0 01-.282-.675.895.895 0 01.318-.659l33.102-35.104a.889.889 0 01.64-.276.9.9 0 01.647.276l33.155 35.23a.896.896 0 01-.646 1.503z" fill="#455A64"/><path d="M138.514 204.823a.874.874 0 01-.725-.384.89.89 0 01-.095-.818l17.472-44.433a.882.882 0 011.618-.011c.095.21.105.449.028.666l-17.473 44.433a.886.886 0 01-.825.547z" fill="#455A64"/><path d="M138.089 147.891c-.635-3.607 2.273-6.396 7.778-10.112a129.313 129.313 0 0115.851-8.927c4.578-2.11 9.269-1.918 15.139 1.112 8.15 4.208 32.683 19.154 32.683 19.154s-36.68 20.801-43.735 19.839c-7.055-.962-24.695-12.457-26.089-16.509-1.394-4.052-1.627-4.557-1.627-4.557z" fill="#0064AF"/><path d="M169.347 164.58c-5.265 4.809-10.77.667-19.476-5.008-9.85-6.427-11.782-11.681-11.782-11.681s0 3.938.736 5.783c.736 1.846 2.327 3.938 9.43 8.862 7.103 4.924 12.255 7.388 17.03 8.302l3.769-.523" fill="#0064AF"/><path opacity=".5" d="M149.871 159.572c-9.85-6.427-11.782-11.681-11.782-11.681s0 3.938.736 5.783c.736 1.846 2.327 3.938 9.43 8.862 7.103 4.924 12.255 7.388 17.03 8.302l3.769-.523.293-5.735c-5.265 4.791-10.77.667-19.476-5.008z" fill="#000"/><path d="M207.822 198.114l2.31 6.126a.687.687 0 010 .157.363.363 0 010 .114c0 .126-.179.282-.347.384a1.522 1.522 0 01-1.406 0 .592.592 0 01-.275-.288v-.084l-2.143-5.742 1.861-.667zm-68.1 0l-2.309 6.126a.46.46 0 000 .157.312.312 0 000 .114.74.74 0 00.347.384 1.522 1.522 0 001.406 0 .594.594 0 00.233-.294v-.084l2.142-5.742-1.819-.661zm35.071 22.226v5.068a.528.528 0 01-.3.421 1.623 1.623 0 01-1.448 0 .523.523 0 01-.299-.421v-5.068a2.163 2.163 0 012.047 0z" fill="#263238"/><path d="M198.039 133.661s-29.422-8.921-34.538-10.328c-5.116-1.407-14.929-3.776-17.795-2.483-2.866 1.293-4.32 2.783-4.584 6.944-.053.775 0 4.581 0 4.581s14.888 6.096 26.544 6.096 30.373-4.81 30.373-4.81z" fill="#37474F"/><path d="M198.129 129.946c1.849 6.33 2.423 12.522-1.987 17.085-3.207 3.325-16.503 15.168-28.165 11.579-13.02-4.01-28.578-15.372-28.578-15.372s-10.059.306-10.106-2.657c0-.728-3.178-1.63-3.142-2.405.407-8.705 6.241-12.33 14.959-10.749 9.12 1.665 29.518 7.503 29.518 7.503l27.501-4.984z" fill="#455A64"/><path opacity=".5" d="M183.571 156.296c2.196-8.044 4.816-18.252 4.816-18.252l-12.021 3.811c-2.483 7.894-3.74 12.18-9.945 11.164s-27.022-9.781-27.022-9.781 15.558 11.362 28.578 15.372c5.224 1.611 10.771.115 15.594-2.314z" fill="#37474F"/><path d="M193.091 81.322c5.768-1.575 10.471.68 11.59 6.042.886 4.244.108 12.174-.921 19.238 0 0-3.369 1.274-10.304-1.293l-.365-23.987z" fill="#455A64"/><path d="M178.885 78.43l1.897 12.03 10.789-.547-1.257-14.074-11.429 2.591z" fill="#FFA8A7"/><path d="M202.431 85.687c-3.56-5.7-11.614-4.208-11.614-4.208l.12 1.353c-.497 2.026-5.811 2.735-11.094 1.484l-.108-.48s-6.313 1.953-8.652 3.306c-3.465 2.008-4.949 6.727-2.717 20.356 1.658 10.112.688 24.282-2.232 30.775 5.386 6.889 18.508 5.951 23.971 4.881 11.369-2.23 13.164-8.374 13.164-8.374s2.393-20.867 2.274-29.891c-.12-7.66-.868-15.6-3.112-19.202z" fill="#0064AF"/><path opacity=".75" d="M202.431 85.687c-3.56-5.7-11.614-4.208-11.614-4.208l.12 1.353c-.497 2.026-5.811 2.735-11.094 1.484l-.108-.48s-6.313 1.953-8.652 3.306c-3.465 2.008-4.949 6.727-2.717 20.356 1.658 10.112.688 24.282-2.232 30.775 5.386 6.889 18.508 5.951 23.971 4.881 11.369-2.23 13.164-8.374 13.164-8.374s2.393-20.867 2.274-29.891c-.12-7.66-.868-15.6-3.112-19.202z" fill="#fff"/><path opacity=".1" d="M183.978 116.912c-2.885 8.609-3.591 11.97-8.09 26.452a41.37 41.37 0 0014.217-.222c11.369-2.23 13.164-8.375 13.164-8.375s2.393-20.867 2.274-29.89c0-1.66-.078-3.331-.174-4.966-10.507 2.308-18.747 9.102-21.391 17.001z" fill="#0064AF"/><path d="M170.897 63.671s-2.824 4.31-2.507 4.738c.317.427 2.394.805 2.394.805l.113-5.543z" fill="#F28F8F"/><path d="M178.754 51.738c-5.721 1.202-7.378 3.74-7.917 12.877-.562 9.553.407 12.553 1.658 13.828.843.865 5.523 1.022 7.886.372 2.962-.823 9.64-3.204 12.775-8.007 3.68-5.652 4.65-13.31.707-16.449-5.547-4.413-12.776-3.114-15.109-2.621z" fill="#FFA8A7"/><path d="M172.495 78.454c.694.716 4.027.95 6.492.631l-.114-1.244s-2.71.601-4.092.757a5.2 5.2 0 01-2.304-.162l.018.018z" fill="#F28F8F"/><path d="M169.569 55.681c1.627 1.077 3.59 1.491 5.529 1.75-.114 1.551.407 3.072.915 4.539.359 1.01 1.628 4.208 2.89 2.405.91-1.299 1.742-2.477 3.549-2.207 2.992.451 3.38 4.269 1.502 6.613-1.879 2.345-3.627 1.431-3.627 1.431s.09 5.044 2.316 7.9c0 0 2.531.823 7.181-.169 2.866-.6 6.911-4.208 8.616-8.013 3.59-8.056 3.848-15.3-1.268-17.47-.551-3.71-3.459-5.376-6.774-6.139-4.595-1.064-9.275 1.924-13.762.126-.94-.379-1.796-.925-2.765-1.25a1.858 1.858 0 00-1.645.042 2.01 2.01 0 00-.677 1.28 3.626 3.626 0 00.234 2.646 7.694 7.694 0 00-2.089-.722 2.595 2.595 0 00-2.088.523 2.72 2.72 0 00-.802 1.858c-.089 1.93 1.143 3.781 2.765 4.858z" fill="#263238"/><path d="M104.054 82.11l-4.626 2.296a.162.162 0 00.036.3l5.098 1.01-.508-3.606z" fill="#FFA8A7"/><path d="M99.44 84.695l5.099 1.01-.27-1.912-.634.084-4.14.644-.054.174z" fill="#F28F8F"/><path d="M99.464 84.707a.162.162 0 01-.12-.138.163.163 0 01.084-.163l.904-.445a.87.87 0 00.167.89l.06.066-1.095-.21z" fill="#FAFAFA"/><path d="M126.145 82.837l-.472.067-.599.078-20.536 2.735a2.32 2.32 0 01-.909-1.43 2.407 2.407 0 01.401-2.177l20.53-2.73 1.089-.144c-.676.133-.21 3.728.496 3.601z" fill="#0064AF"/><path opacity=".15" d="M126.145 82.837l-.478.066-.569.078-20.536 2.736a2.46 2.46 0 01-.975-1.804l21.703-3.006c0-.066 0-.09.059-.072.078.98.401 2.074.796 2.002z" fill="#000"/><path d="M124.338 83.084l-1.053.138c-.305.054-.598-.601-.754-1.329-.227-.992-.108-2.212.293-2.278l.784-.102.275-.037c-.4.073-.52 1.293-.299 2.285.162.715.431 1.329.724 1.329h.03v-.006z" fill="#EBEBEB"/><path d="M124.075 83.12c-.706.114-1.161-3.493-.455-3.607l1.059-.145c-.712.12-.251 3.728.455 3.608l-1.059.144z" fill="#37474F"/><path d="M126.145 82.837l-1.047.144c-.694.12-1.197-3.354-.514-3.607h.035l1.054-.132c-.701.126-.234 3.721.472 3.595z" fill="#EBEBEB"/><path d="M128.323 82.56l-2.178.271c-.305.054-.598-.565-.76-1.31-.227-.993-.113-2.219.288-2.291l2.19-.277c.885-.114 1.34 1.66 1.113 2.79a.927.927 0 01-.653.818z" fill="#F28F8F"/><path opacity=".1" d="M127.432 81.749a2.823 2.823 0 01.095-2.495.609.609 0 01.503-.3c.79.078 1.197 1.719.969 2.789a.933.933 0 01-.64.811c-.329.049-.712-.24-.927-.805z" fill="#000"/><path d="M121.669 83.439c.16.192.328.378.503.559a5.08 5.08 0 011.251 2.771c.502 2.621-.156 2.405 2.483 3.854 2.639 1.448 14.612 8.458 14.612 8.458 2.645-1.202 12.566-6.168 16.306-8.068 6.911-3.505 10.136-5.765 16.927-5.02 1.891 3.962-.293 11.736-5.983 15.74-5.027 3.547-18.227 6.895-23.773 8.536-.599.193-1.131.349-1.616.475h-.096c-3.315.848-4.254.115-6.875-1.803a405 405 0 01-6.014-4.467 563.236 563.236 0 01-4.242-3.228c-1.346-1.04-2.776-1.948-4.093-3.006a68.44 68.44 0 00-6.45-4.533c-3.309-2.05-6.744-4.443-7.181-8.663a17.82 17.82 0 01.066-3.33l.287-3.44c.001-.2.057-.395.162-.565.275-.343.826-.186 1.197 0 2.8 1.54 4.787 4.31 7.551 5.886a1.942 1.942 0 001.586.252l3.392-.408z" fill="#FFA8A7"/><path d="M174.434 85.663c-3.309-.457-5.583-1.173-11.106 1.539-5.523 2.711-15.199 7.87-15.199 7.87s-1.125 8.674 4.692 13.983c0 0 14.127-5.128 17.58-7.335 3.452-2.206 6.372-9.817 4.033-16.057z" fill="#455A64"/><path d="M169.054 170.334c2.992-.151 5.35-2.363 12.476-5.351 13.164-5.507 23.037-9.913 26.795-16.833 3.758-6.92 6.427-26.921 5.487-35.578a11.422 11.422 0 00-.646-2.868l.921-.138-2.393-2.05c-2.459-2.02-6.462-.223-9.478 1.431-8.617 4.707-15.36 9.288-20.686 25.815-4.009 12.438-6.648 23.776-12.183 29.842" fill="#0064AF"/><path opacity=".3" d="M213.166 109.674l.927-.138-2.393-2.05c-2.459-2.02-6.463-.223-9.478 1.431-8.617 4.707-15.36 9.288-20.686 25.814-4.009 12.439-6.648 23.777-12.183 29.843l-.293 5.736c2.992-.151 5.35-2.363 12.476-5.351 13.164-5.507 23.037-9.913 26.795-16.833 3.758-6.92 6.427-26.921 5.487-35.578a11.434 11.434 0 00-.652-2.874z" fill="#000"/><path d="M204.711 111.05c-8.617 4.714-15.354 9.289-20.686 25.821-5.331 16.533-8.239 31.136-18.741 33.967 0 0 4.752 1.894 19.298-4.286 4.625-1.966 10.244-5.555 13.936-7.635 7.228-4.076 11.614-7.419 12.302-8.669 3.824-6.89 6.427-26.921 5.487-35.578-.939-8.657-7.282-5.982-11.596-3.62z" fill="#0064AF"/></svg>