<svg width="217" height="226" fill="none" xmlns="http://www.w3.org/2000/svg"><path opacity=".4" d="M103.458 2.255a1.175 1.175 0 00-.126-.708 1.406 1.406 0 00-.53-.55L101.056.14a1.75 1.75 0 00-1.595.12L2.734 48.642a4.588 4.588 0 00-1.574 1.439 3.85 3.85 0 00-.65 1.9v74.791c-.031.24.014.483.13.703.115.22.297.41.526.548l1.785.882a1.776 1.776 0 001.575-.137l96.707-48.385a4.597 4.597 0 001.573-1.44c.387-.58.61-1.23.652-1.899V2.255z" fill="#0064AF"/><path opacity=".4" d="M103.458 2.26v74.79a3.857 3.857 0 01-.648 1.9 4.6 4.6 0 01-1.57 1.44L4.526 128.78c-1.09.568-1.969.21-2.179-.734a1.97 1.97 0 00.387-.16l96.707-48.379a4.583 4.583 0 001.574-1.438c.387-.58.61-1.232.651-1.901V1.367c.004-.13-.009-.26-.039-.387 1.044-.335 1.831.182 1.831 1.28z" fill="#0064AF"/><path d="M101.233 1.146L93.79 5.127 74.098 15.11 49.857 27.284 21.993 41.22 9.85 47.272l-3.033 1.52-1.516.756c-.243.125-.538.256-.735.375a3.852 3.852 0 00-.598.438c-.75.675-1.2 1.557-1.273 2.492v33.663l-.079 15.518c-.046 16.183-.177 9.448-.289 25.637-.118-16.189-.243-9.454-.289-25.637L1.96 86.516V52.847c.068-1.106.592-2.153 1.477-2.952.213-.2.451-.379.709-.535.288-.165.518-.267.774-.398l1.516-.763 3.033-1.524 12.117-6.08 27.85-13.949 24.288-12.099 19.83-9.79 7.679-3.611z" fill="#fff"/><path opacity=".5" d="M17.667 109.372l-5.198 2.6V59.138l5.198-2.605v52.839zm9.17-4.59l-5.192 2.599V54.548l5.192-2.605v52.839zm9.177-4.591l-5.199 2.605V49.957l5.199-2.6v52.834zm9.17-4.591l-5.2 2.606v-52.84l5.2-2.599v52.834zm9.176-4.584l-5.199 2.6v-52.84l5.199-2.6v52.84zm9.17-4.591l-5.199 2.6v-52.84l5.199-2.599v52.84zm9.17-4.59l-5.192 2.6V31.6l5.192-2.605v52.839zm9.176-4.591l-5.199 2.6V27.011l5.2-2.6v52.833zm9.17-4.59l-5.192 2.605V22.42l5.192-2.6v52.834z" fill="#fff"/><path d="M17.332 115.384l-4.227 2.117c-.146.091-.265.21-.348.349a.895.895 0 00-.13.447v.085c0 .307.216.45.478.319l4.227-2.116c.148-.091.27-.212.354-.351a.896.896 0 00.132-.451v-.08c0-.307-.216-.449-.486-.319zm9.177-4.59l-4.227 2.116a1.06 1.06 0 00-.349.349.901.901 0 00-.13.448v.085c0 .307.216.449.479.313l4.227-2.111c.148-.091.268-.211.353-.351a.9.9 0 00.133-.451v-.079c0-.319-.217-.45-.486-.319zm9.176-4.591l-4.227 2.116a1.069 1.069 0 00-.348.349.901.901 0 00-.13.448v.085c0 .307.216.449.478.313l4.227-2.116c.148-.09.27-.209.354-.348a.885.885 0 00.132-.448v-.086c0-.307-.216-.449-.486-.313zm9.157-4.59l-4.227 2.11a1.079 1.079 0 00-.348.353.912.912 0 00-.131.449v.08c0 .307.216.449.479.319l4.227-2.094c.147-.09.267-.209.35-.348a.879.879 0 00.13-.448v-.085c.02-.33-.191-.472-.48-.336zm9.19-4.596l-4.227 2.116a1.068 1.068 0 00-.349.352.907.907 0 00-.13.45v.08c0 .307.216.449.478.318l4.228-2.116a1.06 1.06 0 00.348-.349.896.896 0 00.13-.447v-.086c.007-.307-.21-.449-.478-.318zm9.189-4.591l-4.227 2.116c-.147.09-.267.21-.35.349a.88.88 0 00-.13.448v.097c0 .307.21.449.48.318l4.227-2.116a1.07 1.07 0 00.349-.352.907.907 0 00.13-.45v-.08c-.006-.318-.223-.46-.479-.33zm9.189-4.59l-4.226 2.116a1.05 1.05 0 00-.354.347.888.888 0 00-.132.45v.085c0 .307.217.449.486.312l4.227-2.11c.145-.093.264-.213.348-.353a.912.912 0 00.131-.45v-.079c-.02-.313-.236-.45-.48-.318zm9.19-4.591l-4.227 2.116a1.05 1.05 0 00-.353.348.887.887 0 00-.132.449v.085c0 .307.216.45.485.313L81.6 84.44c.146-.091.266-.21.349-.35a.896.896 0 00.13-.447v-.085c-.032-.307-.249-.45-.479-.313zm9.144-4.59l-4.227 2.11a1.067 1.067 0 00-.353.351.903.903 0 00-.133.451v.08c0 .307.217.45.486.318l4.227-2.116a1.06 1.06 0 00.348-.349.898.898 0 00.131-.447v-.085c0-.308-.216-.45-.48-.313z" fill="#455A64"/><path d="M12.469 100.174l5.198-2.606v11.804l-5.198 2.599v-11.797zm9.176-16.764l5.192-2.6v23.971l-5.192 2.6v-23.97zm9.17-19.761l5.199-2.605v39.147l-5.2 2.605V63.649zm9.17 16.604l5.198-2.6V95.6l-5.198 2.606V80.253zm9.176-8.578l5.199-2.605v21.946l-5.199 2.6v-21.94zm9.17-11.371l5.199-2.6v28.721l-5.199 2.6v-28.72zm9.177 10.853l5.192-2.6v13.278l-5.192 2.6V71.156zm9.169-8.822l5.2-2.6v17.51l-5.2 2.599V62.335zm9.177-7.401l5.192-2.6v20.32l-5.192 2.605V54.934z" fill="#0064AF"/><path d="M12.469 70.674l5.198-2.605v29.5l-5.198 2.605v-29.5zm9.176 2.116l5.192-2.605V80.81l-5.192 2.6V72.79zm9.17-18.413l5.199-2.6v9.267l-5.2 2.605v-9.272zm9.17 2.526l5.198-2.6v23.35l-5.198 2.6v-23.35zm9.176 4.897l5.199-2.6v9.87l-5.199 2.605V61.8zm9.17-25.614l5.199-2.6v24.119l-5.199 2.6v-24.12zm9.177 23.356l5.192-2.6v11.616l-5.192 2.6V59.542zm9.169-23.476l5.2-2.6v26.27l-5.2 2.599V36.066zm9.177 9.722l5.192-2.6v9.147l-5.192 2.6v-9.147z" fill="#0064AF"/><path opacity=".4" d="M12.469 70.674l5.198-2.605v29.5l-5.198 2.605v-29.5zm9.176 2.116l5.192-2.605V80.81l-5.192 2.6V72.79zm9.17-18.413l5.199-2.6v9.267l-5.199 2.605v-9.272zm9.17 2.526l5.199-2.6v23.35l-5.2 2.6v-23.35zm9.176 4.897l5.199-2.6v9.87l-5.199 2.605V61.8zm9.17-25.614l5.199-2.6v24.119l-5.199 2.6v-24.12zm9.177 23.356l5.192-2.6v11.616l-5.192 2.6V59.542zm9.169-23.476l5.2-2.6v26.27l-5.2 2.599V36.066zm9.177 9.722l5.192-2.6v9.147l-5.192 2.6v-9.147z" fill="#fff"/><path d="M58.955 113.206l.133-.029-.133.029zm-56.43 80.071zm.493.443l-.106-.053.106.053zm1.091.01l-.154.035.154-.035zm55.929-80.513l.12.058-.12-.058zM2.742 193.544l-.086-.075.086.075zm.598.266l-.127-.029.127.029zm-.967-.863v-.087c0-.035-.006.058 0 .087zm58.151-79.309zm.229 49.591c-.04.846-.38 1.66-.971 2.333.593-.673.934-1.487.978-2.333v-48.743l-.007 48.743zm-.079-49.272l.04.133-.04-.133zm-.367-.569l.1.087-.1-.087z" fill="#455A64"/><path opacity=".9" d="M2.913 193.668zm57.801-79.581zm-2.179 52.481L4.526 193.565a2.77 2.77 0 01-.42.165c.147-.045.29-.1.427-.165l54.002-26.991a4.1 4.1 0 001.247-1.012 3.99 3.99 0 01-1.247 1.006zM3.957 193.764zm-1.3-.294zm.558.312zm.341.062h-.218c.073.006.146.006.218 0zm57.04-80.098zm-1.51-.568zm1.319.295zM2.472 193.201zm57.375-80.046l.192.063-.192-.063zm-.354-.034zm.663.153l.154.116-.154-.116z" fill="#37474F"/><path opacity=".8" d="M60.747 114.435a2.01 2.01 0 000-.347l-.04-.131a1.654 1.654 0 00-.078-.211.75.75 0 00-.073-.114 1.14 1.14 0 00-.118-.159l-.098-.085-.151-.114-.118-.057-.19-.062h-.132a1.386 1.386 0 00-.223 0h-.138a1.526 1.526 0 00-.27.051l-.13.028h-.033a2.818 2.818 0 00-.394.16L4.526 140.373a4.6 4.6 0 00-1.573 1.44 3.86 3.86 0 00-.652 1.899v48.744c.001.13.017.259.046.387v.085c.025.087.058.173.098.256a.445.445 0 00.053.091c.038.062.082.121.131.176l.086.074c.05.048.108.09.17.125l.105.052c.063.027.129.048.197.062l.125.029h.367c.085-.012.168-.029.25-.052l.15-.034a2.77 2.77 0 00.421-.165l54.008-26.997a3.99 3.99 0 001.247-1.006c.592-.673.931-1.487.972-2.333v-48.72a.152.152 0 00.02-.051z" fill="#455A64"/><path opacity=".5" d="M60.077 113.234l-1.746-.864a1.324 1.324 0 00-.61-.137 2.195 2.195 0 00-.985.256L2.728 139.48a4.29 4.29 0 00-1.582 1.462l1.798.899a4.168 4.168 0 011.589-1.468l53.995-26.997c.126-.062.258-.115.394-.159.028.128.04.257.04.387v48.738a3.876 3.876 0 01-.651 1.901 4.605 4.605 0 01-1.568 1.443l-52.21 26.093v1.786l53.995-26.997a4.574 4.574 0 001.575-1.438 3.84 3.84 0 00.65-1.901v-48.738a1.163 1.163 0 00-.132-.711 1.4 1.4 0 00-.544-.546z" fill="#37474F"/><path opacity=".9" d="M4.533 191.779v1.786c-.301.16-.645.25-.998.262a1.293 1.293 0 01-.584-.131l-1.779-.882a1.396 1.396 0 01-.528-.547 1.176 1.176 0 01-.128-.704V142.82a3.608 3.608 0 01.656-1.889l1.799.899a3.553 3.553 0 00-.657 1.883v48.737c-.01.127-.01.255 0 .381.135-.039.265-.09.387-.153l1.832-.899z" fill="#37474F"/><path opacity=".4" d="M58.528 113.376l-44.766 22.799-5.842 2.913-2.921 1.456c-.906.438-1.603 1.139-1.97 1.98a2.892 2.892 0 00-.295 1.291v4.38l-.4 44.255-.394-44.255v-4.38a3.464 3.464 0 01.348-1.553c.215-.477.514-.922.886-1.32a4.466 4.466 0 011.411-.99l2.921-1.467 5.83-2.952 45.192-22.157z" fill="#fff"/><path d="M44.92 159.197c5.654-11.514 4.144-23.095-3.372-25.866-7.515-2.771-18.19 4.316-23.844 15.83-5.653 11.514-4.144 23.094 3.372 25.866 7.515 2.771 18.19-4.316 23.844-15.83z" fill="#0064AF"/><path d="M44.92 159.197c5.654-11.514 4.144-23.095-3.372-25.866-7.515-2.771-18.19 4.316-23.844 15.83-5.653 11.514-4.144 23.094 3.372 25.866 7.515 2.771 18.19-4.316 23.844-15.83z" fill="#FAFAFA"/><path d="M41.324 165.089c4.26-5.688 7.023-12.884 7.023-19.431 0-10.87-7.627-15.865-17.033-11.161v19.682l10.01 10.91z" fill="#0064AF"/><path opacity=".4" d="M41.324 165.089c4.26-5.688 7.023-12.884 7.023-19.431 0-10.87-7.627-15.865-17.033-11.161v19.682l10.01 10.91z" fill="#fff"/><path d="M12.501 149.81c-.105-.836-.426-3.293-.61-4.738-.085-.637-.584-.887-1.175-.569l-.315.159-3.118 1.559-.315.159a2.608 2.608 0 00-.81.77 2.219 2.219 0 00-.365.994l-.61 5.347c-.04.33.124.569.38.495.183-.072.34-.185.456-.327a.894.894 0 00.2-.481l.526-4.886a.297.297 0 01.047-.138.351.351 0 01.11-.107c.099-.045.171 0 .158.131l-.755 7.27.978-.49v4.551c0 .404.289.569.656.415.198-.119.36-.277.475-.461.114-.183.176-.388.182-.597v-4.55l.558-.285v4.551c0 .409.289.597.656.415a1.41 1.41 0 00.474-.461c.114-.184.176-.388.183-.597v-4.551l.899-.5-.722-6.53a.282.282 0 01.033-.164.336.336 0 01.124-.127c.08-.045.151 0 .164.08l.519 4.357c.046.325.335.416.656.182.128-.115.227-.253.289-.404a1 1 0 00.072-.472zm-4.929-5.841c.006-.414.125-.821.346-1.188a2.79 2.79 0 01.927-.923c.703-.353 1.267 0 1.267.836a2.365 2.365 0 01-.345 1.183 2.79 2.79 0 01-.922.922c-.708.353-1.273-.023-1.273-.83zm44.976 5.711c.008-.414.127-.82.348-1.187.221-.366.538-.683.926-.924.702-.353 1.273 0 1.273.836a2.374 2.374 0 01-.349 1.184 2.8 2.8 0 01-.924.921c-.703.353-1.274-.023-1.274-.83zm3.151.512l-.315.159-3.118 1.558-.322.16-.105.051c-.28.174-.51.402-.669.667a1.71 1.71 0 00-.25.857v5.245c0 .33.23.478.512.336a1.14 1.14 0 00.372-.372.959.959 0 00.14-.476v-4.499a.295.295 0 01.046-.149.35.35 0 01.118-.113c.086-.046.158 0 .158.102v11.525c0 .404.282.569.656.415.199-.119.361-.276.476-.46.114-.184.176-.389.18-.598v-5.836a.517.517 0 01.076-.263.605.605 0 01.207-.204c.158-.079.282 0 .282.182v5.842c0 .41.29.569.657.421.197-.12.36-.279.474-.464.114-.185.176-.39.182-.599V152.16c0-.052.014-.102.042-.148a.34.34 0 01.116-.114c.085-.045.157 0 .157.102v4.5c0 .33.23.478.512.336.157-.098.286-.226.376-.374a.962.962 0 00.143-.48v-5.244c0-.569-.414-.854-.92-.603l-.183.057z" fill="#37474F"/><path d="M26.83 167.478a.796.796 0 00-.36.091.654.654 0 00-.256.239l-17.23-4.112v-2.333a.112.112 0 00-.041-.084.151.151 0 00-.098-.035.151.151 0 00-.097.035.111.111 0 00-.04.084v2.424c0 .025.01.05.027.071a.14.14 0 00.071.042l17.335 4.17a.117.117 0 000 .045c0 .121.042.239.119.339a.69.69 0 00.315.224c.128.046.27.058.406.034a.737.737 0 00.36-.166.59.59 0 00.192-.312.531.531 0 00-.04-.351.634.634 0 00-.259-.274.79.79 0 00-.39-.102l-.013-.029z" fill="#0064AF"/><path opacity=".25" d="M26.83 167.478a.796.796 0 00-.36.091.654.654 0 00-.256.239l-17.23-4.112v-2.333a.112.112 0 00-.041-.084.151.151 0 00-.098-.035.151.151 0 00-.097.035.111.111 0 00-.04.084v2.424c0 .025.01.05.027.071a.14.14 0 00.071.042l17.335 4.17a.117.117 0 000 .045c0 .121.042.239.119.339a.69.69 0 00.315.224c.128.046.27.058.406.034a.737.737 0 00.36-.166.59.59 0 00.192-.312.531.531 0 00-.04-.351.634.634 0 00-.259-.274.79.79 0 00-.39-.102l-.013-.029z" fill="#fff"/><path d="M53.861 143.69l-15.097-3.629a.07.07 0 000-.04.551.551 0 00-.118-.338.7.7 0 00-.316-.225.798.798 0 00-.405-.034.737.737 0 00-.36.166.593.593 0 00-.192.312.535.535 0 00.04.352.639.639 0 00.258.273.78.78 0 00.754.01.64.64 0 00.254-.243l14.985 3.606v2.276a.12.12 0 00.042.083.153.153 0 00.149.027.142.142 0 00.044-.026.114.114 0 00.04-.084v-2.39a.112.112 0 00-.025-.056.138.138 0 00-.053-.04z" fill="#37474F"/><path opacity=".1" d="M192.623 28.046a1.182 1.182 0 00-.126-.708 1.406 1.406 0 00-.53-.55l-1.746-.864a1.745 1.745 0 00-1.628.114L71.656 84.559A4.599 4.599 0 0070.083 86a3.86 3.86 0 00-.652 1.9v82.481c-.03.24.015.483.13.703.116.22.297.41.526.548l1.785.882c.253.102.532.144.809.121.277-.023.542-.11.767-.252l116.957-58.516a4.593 4.593 0 001.572-1.439 3.858 3.858 0 00.653-1.9l-.007-82.481z" fill="#0064AF"/><path opacity=".1" d="M190.398 26.936L73.448 85.453a4.579 4.579 0 00-1.571 1.438 3.843 3.843 0 00-.648 1.9v82.482c0 1.228.992 1.706 2.226 1.137l116.95-58.544a4.606 4.606 0 001.573-1.439c.386-.581.61-1.231.652-1.9V28.046c-.007-1.229-.998-1.73-2.232-1.11z" fill="#0064AF"/><path opacity=".15" d="M192.623 28.046v82.481a3.857 3.857 0 01-.648 1.899 4.608 4.608 0 01-1.57 1.44l-116.95 58.516c-1.097.568-2.002.216-2.193-.728.135-.046.267-.1.394-.16l116.937-58.516a4.596 4.596 0 001.573-1.439c.386-.58.61-1.231.652-1.9V27.175a1.8 1.8 0 00-.039-.387c1.057-.352 1.844.165 1.844 1.258z" fill="#0064AF"/><path d="M190.398 26.936l-49.44 24.96-23.256 11.787L94.374 75.4 82.71 81.254l-5.842 2.918-2.921 1.457c-.908.434-1.607 1.137-1.97 1.98a2.898 2.898 0 00-.295 1.29v21.918l-.079 23.367-.118 2.48-.177 34.62-.184-34.62-.118-2.48-.15-23.39V88.876a3.487 3.487 0 01.347-1.558c.227-.487.541-.94.932-1.342.2-.206.42-.396.656-.57.239-.159.491-.301.755-.426l2.921-1.468 5.79-2.866 11.69-5.825 23.368-11.65 23.42-11.587 49.663-24.648z" fill="#fff"/><path opacity=".3" d="M181.924 39.883l-5.842 2.924-.433.216-5.842 2.924-.433.216-5.849 2.924-.426.216-5.849 2.901-.433.216-5.842 2.924-.433.216-5.842 2.924-.433.216-5.849 2.924-.433.216-5.534 2.776-.308.154-.433.216-5.842 2.918-.433.222-5.849 2.923-.427.217-6.281 3.14-5.842 2.923-.433.217-5.252 2.616-.61.307-.433.217-5.849 2.923-.433.217-5.842 2.929-.433.21-5.842 2.924-.433.217v56.166l100.553-50.268.322-.165V39.69l-.427.194zM87.771 142.649l-5.842 2.924v-7.452l5.842-2.924v7.452zm0-7.964l-5.842 2.924v-7.452l5.842-2.924v7.452zm0-7.964l-5.842 2.918v-7.451l5.842-2.918v7.451zm0-7.963l-5.842 2.929v-7.452l5.842-2.929v7.452zm0-7.964l-5.842 2.924v-7.452l5.842-2.924v7.452zm0-7.964l-5.842 2.918v-7.451l5.842-2.918v7.451zm0-7.963l-5.842 2.93v-7.453l5.842-2.93v7.453zm6.301 44.647l-5.842 2.924v-7.451l5.842-2.924v7.451zm0-7.963l-5.842 2.924v-7.452l5.842-2.924v7.452zm0-7.964l-5.842 2.924v-7.452l5.842-2.924v7.452zm0-7.964l-5.842 2.924v-7.452l5.842-2.923v7.451zm0-7.963l-5.842 2.924v-7.452l5.842-2.924v7.452zm0-7.964l-5.842 2.924v-7.452l5.842-2.924v7.452zm0-7.964L88.23 94.65V87.2l5.842-2.918v7.451zm6.255 44.66l-5.848 2.918v-7.469l5.848-2.924v7.475zm0-7.964l-5.848 2.924v-7.475l5.848-2.924v7.475zm0-7.964l-5.848 2.924v-7.452l5.848-2.924v7.452zm0-7.964l-5.848 2.924v-7.451l5.848-2.924v7.451zm0-7.963l-5.848 2.924v-7.452l5.848-2.924v7.452zm0-7.964l-5.848 2.924v-7.452l5.848-2.924v7.452zm0-7.964l-5.848 2.924v-7.451l5.848-2.924v7.451zm6.276 44.569l-5.842 2.929v-7.452l5.842-2.929v7.452zm0-7.964l-5.842 2.924v-7.452l5.842-2.924v7.452zm0-7.964l-5.842 2.924v-7.452l5.842-2.923v7.451zm0-7.963l-5.842 2.923v-7.451l5.842-2.924v7.452zm0-7.964l-5.842 2.924v-7.452l5.842-2.924v7.452zm0-7.964l-5.842 2.924v-7.452l5.842-2.924v7.452zm0-7.963l-5.842 2.923v-7.451l5.842-2.924v7.451zm6.275 44.573l-5.842 2.919v-7.304l5.842-2.918v7.303zm0-7.963l-5.842 2.924v-7.31l5.842-2.924v7.31zm0-7.964l-5.842 2.93v-7.316l5.842-2.929v7.315zm0-7.964l-5.842 2.918v-7.303l5.842-2.918v7.303zm0-7.963l-5.842 2.923v-7.451l5.842-2.924v7.452zm0-7.964l-5.842 2.924v-7.452l5.842-2.924v7.452zm0-7.964l-5.842 2.924V77.66l5.842-2.924v7.452zm6.281 44.568l-5.848 2.93v-7.452l5.848-2.929v7.451zm0-7.963l-5.848 2.924v-7.242l5.848-2.923v7.241zm0-7.964l-5.848 2.918v-7.224l5.848-2.924v7.23zm0-7.964l-5.848 2.924v-7.451l5.848-2.93v7.457zm0-7.963l-5.848 2.924v-7.213l5.848-2.918V94.9zm0-7.964l-5.848 2.924v-7.452l5.848-2.924v7.452zm0-7.964l-5.848 2.924v-7.452l5.848-2.93v7.458zm6.276 44.569l-5.849 3.179v-7.451l5.849-2.919v7.191zm0-7.964l-5.849 2.924v-7.139l5.849-2.924v7.139zm0-7.964l-5.849 2.93v-7.145l5.849-2.929v7.144zm0-7.964l-5.849 2.919v-7.134l5.849-2.918v7.133zm0-7.963l-5.849 2.924v-7.14l5.849-2.923v7.139zm0-7.964l-5.849 2.93v-7.145l5.849-2.93v7.145zm0-7.964l-5.849 2.919v-7.134l5.849-2.918v7.133zm6.275 44.569l-5.842 2.929v-7.452l5.842-2.929v7.452zm0-7.964l-5.842 2.924v-7.452l5.842-2.924v7.452zm0-7.964l-5.842 2.918v-7.451l5.842-2.919v7.452zm0-7.963l-5.842 2.93v-7.453l5.842-2.93v7.453zm0-7.964l-5.842 2.924v-7.452l5.842-2.924v7.452zm0-7.964l-5.842 2.918v-7.042l5.842-2.924v7.048zm0-7.963l-5.842 2.929v-7.452l5.842-2.93v7.453zm6.275 44.573l-5.842 3.345v-7.452l5.842-2.923v7.03zm0-7.963l-5.842 3.344v-7.451l5.842-2.924v7.031zm0-7.964l-5.842 3.345v-7.452l5.842-2.93v7.037zm0-7.964l-5.842 3.345v-7.452l5.842-2.918v7.025zm0-7.963l-5.842 2.924v-6.974l5.842-2.93v6.98zm0-7.964l-5.842 2.93v-6.98l5.842-2.93v6.98zm0-7.964l-5.842 3.402v-7.452l5.842-2.918v6.968zm6.282 44.568l-5.849 2.924v-7.451l5.849-2.924v7.451zm0-7.963l-5.849 2.924v-7.452l5.849-2.924v7.452zm0-7.964l-5.849 2.924v-6.945l5.849-2.919v6.94zm0-7.964l-5.849 2.93v-7.452l5.849-2.93v7.452zm0-7.963l-5.849 2.924v-7.452l5.849-2.924v7.452zm0-7.964l-5.849 2.918v-7.451l5.849-2.919v7.452zm0-7.964l-5.849 2.93V61.6l5.849-2.93v7.452zm6.255 45.126l-5.842 2.924v-7.452l5.842-2.924v7.452zm0-7.964l-5.842 2.924v-7.452l5.842-2.923v7.451zm0-7.963l-5.842 2.924v-7.452l5.842-2.924v7.452zm0-7.964l-5.842 2.924v-7.418l5.842-2.924v7.418zm0-7.964l-5.842 2.924v-7.452l5.842-2.923v7.451zm0-7.963l-5.842 2.923v-7.451l5.842-2.924v7.452zm0-7.964l-5.842 2.924V59.03l5.842-2.924v7.36zm6.275 44.574l-5.842 2.918v-7.452l5.842-2.918v7.452zm0-7.964l-5.842 2.924v-7.452l5.842-2.924v7.452zm0-7.964l-5.842 2.924v-7.452l5.842-2.923v7.451zm0-7.963l-5.842 2.924v-7.452l5.842-2.924v7.452zm0-7.964l-5.842 2.924v-7.338l5.842-2.924v7.338zm0-7.964l-5.842 2.924v-7.452l5.842-2.923v7.451zm0-7.963l-5.842 2.93v-7.322l5.842-2.923v7.315zm6.282 44.568l-5.849 2.929v-7.315l5.849-2.924v7.31zm0-7.964l-5.849 2.924v-7.452l5.849-2.923v7.451zm0-7.963l-5.849 2.923v-7.451l5.849-2.924V88.9zm0-7.964l-5.829 3.123v-7.452l5.849-2.924-.02 7.253zm0-7.964l-5.829 3.123v-7.452l5.849-2.924-.02 7.253zm0-7.963l-5.829 3.122V60.68l5.849-2.924-.02 7.252zm0-7.964l-5.829 3.123v-7.452l5.849-2.924-.02 7.253zm6.275 44.574l-5.848 2.918v-7.452l5.848-2.918v7.452zm0-7.964l-5.848 2.924v-7.23l5.848-2.924v7.23zm0-7.964l-5.848 2.93v-7.452l5.848-2.93v7.452zm0-7.963l-5.848 2.918v-7.452l5.848-2.918v7.452zm0-7.964l-5.848 2.924v-7.452l5.848-2.924v7.452zm0-7.964l-5.848 2.924v-7.452l5.848-2.923V61.8zm0-7.963l-5.848 2.923v-7.173l5.848-2.924v7.174zm6.275 44.568l-5.842 2.929v-7.452l5.842-2.929v7.452zm0-7.964l-5.842 2.93v-7.452l5.842-2.93v7.452zm0-7.964l-5.842 2.918v-7.451l5.842-2.918v7.451zm0-7.963l-5.842 2.924v-7.452l5.842-2.93v7.458zm0-7.964l-5.842 2.924v-7.452l5.842-2.924v7.452zm0-7.964l-5.842 2.924v-7.452l5.842-2.923v7.451zm0-7.963l-5.842 2.93V46.1l5.842-2.93v7.453zm6.275 44.574l-5.841 2.923v-7.45l5.841-2.924v7.451zm0-7.964l-5.841 2.918v-7.082l5.841-2.924v7.088zm0-7.964l-5.841 2.93v-7.452l5.841-2.93v7.452zm0-7.964l-5.841 2.919v-7.452l5.841-2.918v7.451zm0-7.963l-5.841 2.924v-7.452l5.841-2.924v7.452zm0-7.964l-5.841 2.93v-7.452l5.841-2.93v7.452zm0-7.964l-5.841 2.919V42.88l5.841-2.918v7.451z" fill="#fff"/><path d="M182.357 95.828V42.88l-10.082 20.483-10.089 6.047-10.089 10.427-10.082 3.453-10.089 10.49-10.088-1.793-10.083 8.635-10.089 12.805-10.088 5.045-10.083 16.121v11.701l100.862-50.467z" fill="#0064AF"/><path opacity=".7" d="M182.357 95.828V42.88l-10.082 20.483-10.089 6.047-10.089 10.427-10.082 3.453-10.089 10.49-10.088-1.793-10.083 8.635-10.089 12.805-10.088 5.045-10.083 16.121v11.701l100.862-50.467z" fill="#fff"/><path d="M81.495 152.984a.305.305 0 01-.14-.031.26.26 0 01-.103-.088.211.211 0 01-.024-.181.246.246 0 01.13-.143l100.861-50.467a.306.306 0 01.21-.024.266.266 0 01.168.112c.018.027.03.057.034.088a.2.2 0 01-.007.094.225.225 0 01-.048.083.265.265 0 01-.081.062L81.633 152.956a.4.4 0 01-.138.028z" fill="#455A64"/><path d="M81.495 154.918a.29.29 0 01-.197-.072.225.225 0 01-.078-.172v-3.857c0-.063.029-.124.08-.169a.298.298 0 01.195-.07c.073 0 .144.025.195.07a.224.224 0 01.081.169v3.857a.226.226 0 01-.078.172.29.29 0 01-.198.072zm10.083-5.051a.298.298 0 01-.195-.07.223.223 0 01-.081-.169v-3.856a.215.215 0 01.008-.105.236.236 0 01.057-.092.283.283 0 01.096-.063.313.313 0 01.118-.022c.04 0 .08.007.118.022.037.015.07.036.096.063a.236.236 0 01.057.092.22.22 0 01.008.105v3.856a.21.21 0 01-.022.093.24.24 0 01-.061.078.295.295 0 01-.2.068zm10.088-5.045a.304.304 0 01-.195-.07.227.227 0 01-.08-.169v-3.863c0-.063.029-.124.08-.169a.304.304 0 01.39 0 .224.224 0 01.081.169v3.863a.209.209 0 01-.021.091.247.247 0 01-.06.078.316.316 0 01-.195.07zm10.089-5.017a.304.304 0 01-.195-.07.227.227 0 01-.08-.169v-3.863c0-.063.029-.124.08-.169a.299.299 0 01.195-.07c.073 0 .144.025.195.07a.224.224 0 01.081.169v3.863a.224.224 0 01-.081.169.302.302 0 01-.195.07zm10.083-5.075a.295.295 0 01-.195-.07.22.22 0 01-.081-.168v-3.863a.236.236 0 01.095-.148.313.313 0 01.368 0c.051.038.085.09.095.148v3.863a.214.214 0 01-.022.092.244.244 0 01-.061.079.306.306 0 01-.199.067zm10.088-5.045a.302.302 0 01-.197-.072.234.234 0 01-.059-.079.206.206 0 01-.019-.094v-3.856c0-.064.029-.124.08-.169a.299.299 0 01.195-.07c.074 0 .144.025.195.07a.223.223 0 01.081.169v3.856a.22.22 0 01-.078.173.294.294 0 01-.198.072zm10.063-5.051a.304.304 0 01-.195-.07.224.224 0 01-.081-.169v-3.857a.208.208 0 01.019-.092.24.24 0 01.06-.079.296.296 0 01.197-.068.309.309 0 01.195.07.224.224 0 01.081.169v3.857a.224.224 0 01-.081.169.304.304 0 01-.195.07zm10.108-5.046a.297.297 0 01-.196-.082.229.229 0 01-.054-.084.197.197 0 01-.012-.096v-3.856a.208.208 0 01.008-.105.236.236 0 01.057-.092.291.291 0 01.214-.085.291.291 0 01.214.085.236.236 0 01.057.092.22.22 0 01.008.105v3.856a.214.214 0 01-.014.103.246.246 0 01-.063.088.31.31 0 01-.1.057.317.317 0 01-.119.014zm10.089-5.046a.299.299 0 01-.195-.07.223.223 0 01-.08-.168v-3.863c0-.063.029-.124.08-.169a.299.299 0 01.195-.07c.073 0 .144.025.195.07a.224.224 0 01.081.169v3.863a.22.22 0 01-.081.168.297.297 0 01-.195.07zm10.089-5.045a.296.296 0 01-.199-.068.218.218 0 01-.083-.171v-3.862a.238.238 0 01.095-.149.313.313 0 01.368 0 .242.242 0 01.095.149v3.862a.224.224 0 01-.081.169.299.299 0 01-.195.07zm10.082-5.046a.302.302 0 01-.197-.072.234.234 0 01-.059-.079.204.204 0 01-.019-.093v-3.857a.238.238 0 01.095-.149.308.308 0 01.184-.059c.067 0 .132.021.183.059a.24.24 0 01.096.149v3.857c0 .064-.03.127-.083.173a.31.31 0 01-.2.071z" fill="#455A64"/><path d="M182.357 95.828v-38.76l-10.082 17.434-10.089 2.196-10.089 9.033-10.082 2.896-10.089 8.293-10.088-1.32-10.083 8.465-10.089 13.902-10.088 6.422-10.083 13.504v8.402l100.862-50.467z" fill="#0064AF"/><path opacity=".4" d="M182.357 95.828v-38.76l-10.082 17.434-10.089 2.196-10.089 9.033-10.082 2.896-10.089 8.293-10.088-1.32-10.083 8.465-10.089 13.902-10.088 6.422-10.083 13.504v8.402l100.862-50.467z" fill="#fff"/><path d="M81.495 146.295l100.862-50.467V68.546l-10.364 15.33-9.807 1.957L152.38 99.6l-10.365.762-9.754 7.242-10.423-4.267-10.083 6.826-10.089 14.574-10.088 4.704-10.083 11.252v5.603z" fill="#0064AF"/><path opacity=".2" d="M91.571 141.255l10.096-5.051V113.45l-10.09 5.023-.006 22.782zm20.184-10.097l10.083-5.051v-34.13l-10.083 8.635v30.546zm20.171-10.097l10.063-5.045V83.291L131.9 93.78l.026 27.28zm20.172-10.091l10.088-5.045V69.411l-10.088 10.427v31.132zm20.177-47.605v37.508l10.082-5.045V42.88l-10.082 20.483z" fill="#0064AF"/><path opacity=".15" d="M131.926 107.466v13.595l3.985-1.991 6.104-3.054v-15.655l-9.754 7.242-.335-.137zm-40.348 21.98v11.809l10.095-5.051v-11.462l-10.089 4.698-.006.006zm20.177 1.706l3.361-1.706 6.722-3.368v-22.753l-10.083 6.826v21.001zm60.52-47.662v17.412l10.082-5.046V68.552L172.275 83.49zm-20.178 16.155v11.376l10.089-5.045V85.833L152.38 99.6l-.283.046z" fill="#000"/><path d="M93.691 153.07l-4.214 2.093a1.04 1.04 0 00-.353.348.885.885 0 00-.132.448v.086c0 .307.216.449.485.313l4.22-2.111c.148-.091.27-.211.354-.351a.9.9 0 00.133-.451v-.079c-.007-.285-.224-.427-.493-.296zm10.089-5.046l-4.227 2.116a1.06 1.06 0 00-.349.349.898.898 0 00-.13.448v.085c0 .307.216.449.479.313l4.227-2.111c.147-.092.266-.212.349-.352a.899.899 0 00.13-.45v-.085c0-.307-.21-.444-.479-.313zm10.089-5.045l-4.227 2.116a1.06 1.06 0 00-.354.347.887.887 0 00-.132.449v.085c0 .308.216.45.486.313l4.227-2.116c.146-.091.265-.211.348-.349a.9.9 0 00.131-.447v-.086c0-.307-.217-.449-.479-.312zm10.082-5.046l-4.221 2.11a1.073 1.073 0 00-.352.351.899.899 0 00-.133.451v.097c0 .307.216.449.485.319l4.221-2.116c.148-.09.269-.21.354-.348a.894.894 0 00.132-.449v-.085c0-.324-.217-.467-.486-.33zm10.089-5.051l-4.227 2.116a1.067 1.067 0 00-.349.352.899.899 0 00-.13.45v.08c0 .307.216.449.479.318l4.227-2.116c.147-.09.267-.21.351-.348a.88.88 0 00.128-.448v-.086c0-.307-.21-.449-.479-.318zm10.089-5.023l-4.227 2.116c-.148.09-.27.209-.354.348a.884.884 0 00-.132.448v.086c0 .307.216.449.486.318l4.227-2.116c.146-.092.265-.213.348-.352a.91.91 0 00.131-.45v-.08c.006-.318-.217-.472-.479-.318zm10.082-5.068l-4.227 2.116c-.146.091-.265.21-.349.349a.888.888 0 00-.13.447v.085c0 .307.216.45.479.313l4.227-2.11c.148-.092.268-.212.353-.351a.906.906 0 00.133-.451v-.08c0-.313-.237-.449-.486-.318zm10.095-5.046l-4.227 2.116a1.055 1.055 0 00-.348.349.902.902 0 00-.131.447v.086c0 .307.217.449.479.313l4.227-2.116c.148-.091.268-.21.351-.348a.897.897 0 00.129-.449v-.085c-.007-.307-.217-.438-.48-.313zm10.083-5.046l-4.227 2.111a1.058 1.058 0 00-.353.351.896.896 0 00-.133.451v.08c0 .312.216.449.486.318l4.227-2.116c.146-.091.265-.211.348-.349a.9.9 0 00.131-.447v-.086c0-.307-.217-.449-.479-.313z" fill="#37474F"/><path d="M91.578 113.314a.298.298 0 01-.195-.07.225.225 0 01-.081-.169V99.042a.238.238 0 01.095-.149.31.31 0 01.184-.059.31.31 0 01.184.06c.05.037.085.09.095.148v14.027a.21.21 0 01-.02.095.24.24 0 01-.06.08.31.31 0 01-.202.07z" fill="#0064AF"/><path d="M90.573 99.548a1.53 1.53 0 01-.722-.165 1.678 1.678 0 01-.628-.64 1.407 1.407 0 01-.166-.828 4.077 4.077 0 01.69-2.042 4.867 4.867 0 011.693-1.541 1.85 1.85 0 011.866-.137c.29.145.522.363.665.625.142.263.19.557.134.843a4.079 4.079 0 01-.69 2.042 4.868 4.868 0 01-1.693 1.542c-.346.185-.742.29-1.149.301zm2.009-5.034a1.978 1.978 0 00-.86.233 4.362 4.362 0 00-1.494 1.365 3.661 3.661 0 00-.62 1.803.837.837 0 00.043.613c.091.195.254.358.464.465a1.238 1.238 0 001.331-.145 4.349 4.349 0 001.496-1.364 3.65 3.65 0 00.618-1.804c.028-.2-.005-.402-.096-.587a1.18 1.18 0 00-.423-.465 1.034 1.034 0 00-.46-.114zm29.256-7.685a.296.296 0 01-.195-.07.223.223 0 01-.081-.17v-5.813a.238.238 0 01.095-.148.308.308 0 01.184-.06c.067 0 .132.022.184.06.051.038.085.09.095.148v5.814a.216.216 0 01-.022.093.24.24 0 01-.061.078.297.297 0 01-.199.068z" fill="#0064AF"/><path d="M120.833 81.283a1.606 1.606 0 01-.722-.165 1.671 1.671 0 01-.628-.64 1.408 1.408 0 01-.166-.828c.038-.719.274-1.42.689-2.043a4.853 4.853 0 011.694-1.54 1.85 1.85 0 011.866-.137c.29.144.522.363.665.625.142.262.189.556.134.842a4.126 4.126 0 01-.695 2.04 4.898 4.898 0 01-1.688 1.544c-.346.186-.742.29-1.149.302zm2.009-5.035a1.979 1.979 0 00-.86.234 4.342 4.342 0 00-1.495 1.364 3.644 3.644 0 00-.619 1.804.84.84 0 00.06.6c.094.19.256.347.462.45.206.103.444.146.68.122.237-.025.457-.114.63-.256a4.35 4.35 0 001.495-1.365c.367-.55.579-1.168.618-1.803a.998.998 0 00-.095-.587 1.18 1.18 0 00-.423-.466.97.97 0 00-.453-.097zm29.255-1.569a.295.295 0 01-.194-.07.223.223 0 01-.081-.17V65.19a.238.238 0 01.095-.148.313.313 0 01.368 0 .24.24 0 01.095.148v9.25a.216.216 0 01-.022.092.24.24 0 01-.061.079.297.297 0 01-.2.068z" fill="#0064AF"/><path d="M151.093 65.702a1.606 1.606 0 01-.722-.165 1.672 1.672 0 01-.628-.64 1.408 1.408 0 01-.166-.827c.037-.72.273-1.42.687-2.044a4.85 4.85 0 011.696-1.54 1.85 1.85 0 011.866-.137c.29.145.522.363.665.626.142.262.189.556.134.842-.04.72-.277 1.42-.693 2.044a4.858 4.858 0 01-1.697 1.54c-.343.186-.737.29-1.142.301zm2.009-5.034a1.95 1.95 0 00-.867.233 4.36 4.36 0 00-1.49 1.366 3.667 3.667 0 00-.617 1.803.84.84 0 00.06.6c.094.19.256.347.462.45a1.243 1.243 0 001.31-.134 4.35 4.35 0 001.495-1.365 3.65 3.65 0 00.618-1.804.998.998 0 00-.095-.587 1.18 1.18 0 00-.423-.465.97.97 0 00-.453-.097z" fill="#0064AF"/><path d="M81.509 127.489a.576.576 0 01-.263-.063.528.528 0 01-.168-.118.444.444 0 01-.102-.165.412.412 0 01.047-.365l8.093-12.947a.607.607 0 01.21-.187l11.966-5.979 10.017-12.713.066-.069 10.088-8.634a.57.57 0 01.231-.12.623.623 0 01.268-.011l9.767 1.706 9.846-10.239a.555.555 0 01.224-.142l9.951-3.413 9.997-10.336a.493.493 0 01.111-.085l7.837-4.693 10.037-20.364a.53.53 0 01.303-.258.637.637 0 01.425.002c.067.025.128.06.179.106a.477.477 0 01.118.157.424.424 0 01-.008.368l-10.082 20.478a.498.498 0 01-.197.21l-7.91 4.733-10.036 10.382a.534.534 0 01-.223.136l-9.951 3.413-9.997 10.393a.563.563 0 01-.243.146.638.638 0 01-.295.019l-9.794-1.74-9.846 8.424-10.056 12.764a.485.485 0 01-.183.148L90.009 114.4l-8.015 12.833a.507.507 0 01-.201.187.614.614 0 01-.284.069z" fill="#fff"/><path d="M181.012 42.721a.606.606 0 01-.395-.141.455.455 0 01-.163-.342v-3.413l-3.341 1.706a.634.634 0 01-.419.046.556.556 0 01-.336-.222.42.42 0 01-.058-.362.448.448 0 01.094-.168.532.532 0 01.161-.124l4.175-2.105a.632.632 0 01.557 0 .52.52 0 01.203.176.435.435 0 01.073.24v4.271a.462.462 0 01-.178.311.608.608 0 01-.373.127z" fill="#fff"/><path d="M130.561 21.083l-3.157-1.587 6.117-4.522 3.164 1.581-6.124 4.528zm1.95 1.041c-1.622-.99-4.431-.239-6.807.41a74.36 74.36 0 01-1.563.438 2.245 2.245 0 00-.229.955c0 1.599 1.562 1.138 4.956.194a27.82 27.82 0 013.511-.802c.105.813.755 1.553 3.282.392l-3.15-1.587zm-7.838 20.791l-3.164-1.581v-3.237l3.164 1.587v3.231zm5.356-12.287c0 1.286-1.115 2.435-2.77 3.265-2.625 1.331-3.662.25-3.885-.807l-.558-.28a6.454 6.454 0 001.312-.494c1.147-.508 2.057-1.341 2.58-2.36 1.917-.558 3.321-.774 3.321.676zm-11.762 7.924a2.363 2.363 0 00-1.156-.245 5.484 5.484 0 01-.17-.512l-3.177-1.575c.087.477.29.933.596 1.337.305.404.706.747 1.176 1.006l3.157 1.582c.154-.267.195-.572.117-.863a1.285 1.285 0 00-.543-.73z" fill="#0064AF"/><path d="M128.861 24.12c-3.394.967-4.956 1.405-4.956-.193.004-.328.082-.653.23-.956-2.317.62-3.394.7-3.394-.625 0-.979.762-2.179 2.856-3.237 2.238-1.138 3.485-.859 3.8.387l6.118-4.55c0-.07-.059-.132-.086-.2.38-.073.744-.194 1.084-.358l-2.521-1.303-.243-.125h-.039a4.883 4.883 0 00-2.403-.341 11.85 11.85 0 00-3.164.756v-.057l3.164-1.598-3.164-1.582-2.139 1.11-2.902 1.462v3.236c-4.286 2.702-6.964 6.257-6.964 10.057 0 1.741.545 2.73 1.418 3.231h.046l.229.114 2.626 1.291a1.5 1.5 0 00-.157-1.035c.84-.094 1.67-.25 2.481-.466 3.216-.842 6.071-2.168 6.071-.103 0 .311-.064.62-.19.91 1.969-.569 3.354-.773 3.354.677 0 1.286-1.116 2.435-2.77 3.265-2.625 1.331-3.662.25-3.886-.807l-.558-.28-2.625-1.307-6.433 4.72 3.164 1.588c.108.395.271.777.486 1.138a11.505 11.505 0 004.082-.87v1.308l5.002-.57v-3.23c4.332-2.77 7.319-6.496 7.319-10.393a4.69 4.69 0 00-.354-1.957 20.01 20.01 0 00-4.582.893z" fill="#0064AF"/><path opacity=".4" d="M128.861 24.12c-3.394.967-4.956 1.405-4.956-.193.004-.328.082-.653.23-.956-2.317.62-3.394.7-3.394-.625 0-.979.762-2.179 2.856-3.237 2.238-1.138 3.485-.859 3.8.387l6.118-4.55c0-.07-.059-.132-.086-.2.38-.073.744-.194 1.084-.358l-2.521-1.303-.243-.125h-.039a4.883 4.883 0 00-2.403-.341 11.85 11.85 0 00-3.164.756v-.057l3.164-1.598-3.164-1.582-2.139 1.11-2.902 1.462v3.236c-4.286 2.702-6.964 6.257-6.964 10.057 0 1.741.545 2.73 1.418 3.231h.046l.229.114 2.626 1.291a1.5 1.5 0 00-.157-1.035c.84-.094 1.67-.25 2.481-.466 3.216-.842 6.071-2.168 6.071-.103 0 .311-.064.62-.19.91 1.969-.569 3.354-.773 3.354.677 0 1.286-1.116 2.435-2.77 3.265-2.625 1.331-3.662.25-3.886-.807l-.558-.28-2.625-1.307-6.433 4.72 3.164 1.588c.108.395.271.777.486 1.138a11.505 11.505 0 004.082-.87v1.308l5.002-.57v-3.23c4.332-2.77 7.319-6.496 7.319-10.393a4.69 4.69 0 00-.354-1.957 20.01 20.01 0 00-4.582.893z" fill="#fff"/><path d="M133.456 23.228a19.985 19.985 0 00-4.595.893c-3.394.967-4.956 1.405-4.956-.194.004-.328.082-.653.23-.955.573-.982 1.493-1.78 2.626-2.276 2.238-1.137 3.485-.853 3.8.393l6.118-4.55c-.195-.685-.653-1.292-1.298-1.72a3.964 3.964 0 00-2.253-.641 10.755 10.755 0 00-3.821.773v-3.22l-3.164 1.599-1.877.944v3.231c-4.286 2.708-6.964 6.257-6.964 10.057a4.945 4.945 0 00.381 2.082c.945 2.054 3.538 1.77 6.268 1.075.958-.25 1.891-.54 2.724-.773 1.969-.57 3.354-.774 3.354.677 0 1.285-1.116 2.434-2.77 3.265-2.625 1.33-3.662.25-3.886-.808l-6.432 4.721c.108.395.271.777.486 1.138.84 1.365 2.336 1.706 4.082 1.536a13.54 13.54 0 003.164-.82v3.232l5.002-2.503V37.13c4.332-2.765 7.319-6.49 7.319-10.393 0-2.775-1.536-3.543-3.538-3.51z" fill="#0064AF"/><path opacity=".2" d="M133.456 23.228a19.985 19.985 0 00-4.595.893c-3.394.967-4.956 1.405-4.956-.194.004-.328.082-.653.23-.955.573-.982 1.493-1.78 2.626-2.276 2.238-1.137 3.485-.853 3.8.393l6.118-4.55c-.195-.685-.653-1.292-1.298-1.72a3.964 3.964 0 00-2.253-.641 10.755 10.755 0 00-3.821.773v-3.22l-3.164 1.599-1.877.944v3.231c-4.286 2.708-6.964 6.257-6.964 10.057a4.945 4.945 0 00.381 2.082c.945 2.054 3.538 1.77 6.268 1.075.958-.25 1.891-.54 2.724-.773 1.969-.57 3.354-.774 3.354.677 0 1.285-1.116 2.434-2.77 3.265-2.625 1.33-3.662.25-3.886-.808l-6.432 4.721c.108.395.271.777.486 1.138.84 1.365 2.336 1.706 4.082 1.536a13.54 13.54 0 003.164-.82v3.232l5.002-2.503V37.13c4.332-2.765 7.319-6.49 7.319-10.393 0-2.775-1.536-3.543-3.538-3.51z" fill="#fff"/><path d="M124.266 17.51l-3.164-1.586v-3.231l3.164 1.581v3.237z" fill="#0064AF"/><path d="M129.675 37.158l.499-.312c.157-.108.348-.24.551-.399.204-.159.453-.33.703-.534.249-.205.525-.41.794-.654l.42-.376.42-.398c.151-.137.289-.279.427-.427.137-.148.282-.29.42-.443.269-.313.545-.62.787-.956.243-.336.48-.666.709-.995.23-.33.414-.677.578-1.019.164-.341.302-.677.446-.99l.158-.472c0-.074.052-.153.072-.227l.059-.216c.074-.26.131-.525.171-.791.04-.205.069-.412.085-.62v-.569.569c-.003.21-.023.418-.059.626-.03.267-.078.533-.144.796l-.046.222c0 .08-.053.154-.073.227-.052.16-.098.319-.151.484-.137.319-.249.665-.433 1.001-.184.336-.367.683-.571 1.03a8.195 8.195 0 01-.709 1.012c-.262.324-.531.643-.801.956-.137.153-.288.296-.426.444-.138.147-.282.29-.427.426l-.433.398-.433.364c-.276.245-.558.45-.814.649-.256.199-.499.364-.716.517-.216.154-.407.28-.571.382l-.492.295z" fill="#fff"/><path d="M86.805 175.283l-12.76-15.302-4.654-2.321-12.76 28.072 4.647 2.321 2.646-1.32v22.697l.006-.006 4.64 2.321v.006h.007l10.936-5.472v-27.344l7.292-3.652z" fill="#0064AF"/><path d="M61.278 188.053l12.767-28.072 12.76 15.302-7.292 3.652v27.343l-10.936 5.473h-.006v-27.344l-7.293 3.646z" fill="#0064AF"/><path opacity=".3" d="M61.278 188.053l12.767-28.072 12.76 15.302-7.292 3.652v27.343l-10.936 5.473h-.006v-27.344l-7.293 3.646z" fill="#000"/><path opacity=".15" d="M74.045 159.981l-4.654-2.321-12.76 28.072 4.647 2.321 12.767-28.072z" fill="#000"/><path opacity=".45" d="M61.278 188.053l7.293-3.646v27.344l-4.648-2.321v-22.697l-2.645 1.32z" fill="#000"/><path d="M58.331 200.493l-12.76-15.301-4.648-2.327-12.767 28.078 4.654 2.321 2.64-1.326v11.735h.006l4.647 2.316V226l.006-.006 10.93-5.472V204.14l7.292-3.647z" fill="#0064AF"/><path d="M32.81 213.264l12.76-28.072 12.761 15.301-7.292 3.647v16.382l-10.93 5.472-.006.006v-16.383l-7.293 3.647z" fill="#0064AF"/><path opacity=".3" d="M32.81 213.264l12.76-28.072 12.761 15.301-7.292 3.647v16.382l-10.93 5.472-.006.006v-16.383l-7.293 3.647z" fill="#fff"/><path opacity=".55" d="M45.57 185.192l-4.647-2.327-12.767 28.078 4.654 2.321 12.76-28.072z" fill="#fff"/><path opacity=".1" d="M32.81 213.264l7.293-3.647V226l-4.654-2.327v-11.735l-2.639 1.326z" fill="#fff"/><path d="M209.44 206.563c0 .785.171 1.086-.938 1.797-1.11.711-3.519 1.036-5.35.603-1.167-.187-2.217-.735-2.954-1.541a21.894 21.894 0 01-1.713-2.241c-.322-.359-1.812-1.036-3.249-1.587-1.438-.552-4.405-1.741-5.442-3.868a4.414 4.414 0 01-.321-3.647l19.967 10.484z" fill="#263238"/><path d="M199.752 195.772c2.927 1.655 5.389 5.819 9.393 4.551.203 2.042.827 4.238.269 6.257-1.707 1.826-5.442 2.179-7.595.859-1.083-.797-1.693-1.735-2.737-2.583a10.99 10.99 0 00-2.881-1.518 32.486 32.486 0 01-3.486-1.673c-6.439-4.152-3.229-11.724 7.037-5.893z" fill="#37474F"/><path d="M189.46 218.429c0 .853-.066 1.49-.657 1.849-.591.358-5.087 1.001-6.282 1.137-1.194.137-1.365-.568-2.198-.318-.834.25-2.79 1.479-5.718 2.042-2.927.563-5.323 1.138-9.386 0-4.063-1.138-4.457-2.526-4.405-3.715.053-1.188 28.646-.995 28.646-.995z" fill="#263238"/><path d="M188.869 210.488c.656 2.435 1.352 6.087.591 7.964-.821.705-3.565 1.137-5.954 1.399a20.534 20.534 0 00-6.334 1.707c-4.641 1.678-12.806 2.275-16.062-1.496-3.243-5.057 13.659-3.817 15.753-9.671.735-2.15 8.94.672 12.006.097z" fill="#37474F"/><path d="M210.74 179.39c-2.265-20.814-1.799-37.879-2.553-54.489 0 0-33.07-3.043-33.903 6.872-.834 9.915-.604 38.021-.342 42.389.119 4.426 1.97 34.358 1.97 37.481 8.369 3.595 13.561.876 13.561.876-.053-4.028 3.577-22.008 1.608-31.826l1.313-19.147s5.743 32.332 6.715 40.387c2.468 3.174 9.485 2.434 10.653.517.013-.005 1.766-16.939.978-23.06z" fill="#455A64"/><path d="M192.407 161.545l1.884-13.936c3.611-.774 6.852-2.508 9.268-4.96-1.004 3.18-4.49 5.443-7.01 6.217l-2.672 11.985 1.044 15.075-2.514-14.381z" fill="#37474F"/><path d="M196.89 158.394c.394 5.506.807 11.2 1.359 13.885.866 4.192 3.315 26.258 3.886 31.479a6.378 6.378 0 01-.565-.176c-.617-5.591-3-27.099-3.853-31.218-.564-2.713-.971-8.424-1.372-13.942-.302-4.152-.584-8.077-.899-10.114l.538-.062c.322 2.053.604 5.984.906 10.148zm-16.738 54.636c-.722-9.414-2.462-33.123-2.317-42.662.164-11.377.604-31.542 1.667-38.891l.538.057c-1.057 7.326-1.496 27.48-1.667 38.84-.138 9.562 1.615 33.453 2.33 42.759l-.551-.103z" fill="#37474F"/><path d="M178.472 148.832l.275-.404c-4.155-2.122-3.662-8.396-3.374-12.145 0-.278.046-.569.06-.802h-.539c0 .251-.019.518-.059.802-.302 3.829-.807 10.279 3.637 12.549z" fill="#37474F"/><path d="M208.226 94.195c3.348 1.366 4.595 3.294 5.73 8.465 1.136 5.17 2.626 15.722 2.541 18.236-.086 2.515-2.029 3.982-5.16 3.561-3.131-.421-8.795-.762-8.795-.762l5.684-29.5z" fill="#263238"/><path d="M208.384 94.264a114.8 114.8 0 00-11.021-3.863c-.368 1.496-6.23 3.533-10.752 2.736-1.346.347-7.818 2.788-8.192 3.004-3.781 2.224-4.142 5.956-4.45 16.104-.309 10.148-.059 26.564-.059 26.564 5.769 2.435 16.265 2.844 22.488 2.19 5.402-.569 9.846-2.332 12.156-4.454 0 0-.531-8.578-.308-14.352.151-3.754.466-5.54 1.011-12.281.676-8.362 1.26-13.339-.873-15.648z" fill="#37474F"/><path d="M187.707 88.809l.295 4.533 10.765-.762-.348-8.595-10.712 4.824z" fill="#FFA8A7"/><path d="M187.937 91.243s3.813 1.28 7.148 1.041c3.794-.273 3.636-1.707 3.636-1.707v-.66s.598 0 .972.723c.551 1.041.912 1.951.912 1.951s.657 1.889-3.242 2.765c-5.593 1.263-12.275-1.661-12.275-1.661l-1.195.375s2.16-2.565 3.112-3.18c.247-.197.559-.324.892-.364l.04.717z" fill="#263238"/><path d="M180.716 77.267s-2.665 3.214-2.389 3.55c.276.335 2.101.688 2.101.688l.288-4.238z" fill="#F28F8F"/><path d="M181.826 79.428a3.302 3.302 0 01-1.642-.494 2.67 2.67 0 01-1.047-1.202 2.269 2.269 0 01-.1-1.504c.139-.499.445-.95.88-1.298.436-.348.98-.576 1.565-.656a3.41 3.41 0 011.721.209 2.89 2.89 0 011.298 1.002c.308.438.46.945.436 1.458-.034.686-.381 1.333-.964 1.8-.583.465-1.355.712-2.147.686zm.21-4.607a2.61 2.61 0 00-1.31.294 2.148 2.148 0 00-.901.875 1.78 1.78 0 00-.188 1.161c.071.395.276.762.588 1.056.313.294.719.5 1.167.595.448.093.918.07 1.351-.068a2.334 2.334 0 001.08-.706c.271-.323.426-.709.444-1.108a1.764 1.764 0 00-.141-.78 1.998 1.998 0 00-.476-.672 2.337 2.337 0 00-.736-.463 2.628 2.628 0 00-.885-.184h.007z" fill="#263238"/><path d="M188.547 68.382c-5.12.75-7.22 2.708-8.041 9.67-.84 7.287.473 9.54 1.536 10.558.716.694 4.864.955 6.984.529 2.626-.535 8.665-2.15 11.612-5.728 3.473-4.21 4.595-10.04 1.214-12.566-4.765-3.538-11.217-2.77-13.305-2.463z" fill="#FFA8A7"/><path d="M187.753 89.32l-.171-1.36c-1.63.688-3.445.979-5.251.843.945.45 3.466.654 5.422.517z" fill="#F28F8F"/><path d="M179.318 76.203l8.986 1.325-.394.54-8.618-1.279.026-.586z" fill="#263238"/><path d="M179.509 70.356a2.1 2.1 0 00-.46 1.234c-.011.374.096.744.309 1.07.212.325.523.594.899.779.383.172.819.236 1.246.183a2.2 2.2 0 001.137-.48c-.081.374-.054.76.079 1.122.133.362.367.69.682.955.327.254.746.4 1.185.415.438.015.869-.104 1.217-.335-.19.398-.334.944.073 1.189a.91.91 0 00.348.113 2.02 2.02 0 001.056-.113 1.42 1.42 0 00-.367.618 1.284 1.284 0 000 .696c.059.147.978 1.04 1.017.927 0 0 .926-2.674 3.538-2.241 2.613.432 2.849 3.367 1.103 5.085-1.746 1.718-3.249.99-3.282.978.046.472.138 3.01 2.625 4.358 1.536.819 4.287 1.604 6.624.87 1.562-.569 2.625-2.116 4.161-4.22a24.87 24.87 0 002.855-5.69c.742-2.275.827-3.367.283-5.022a4.076 4.076 0 00-1.292-1.923 5.049 5.049 0 00-2.253-1.069c-.184-1.604-.532-2.844-2.625-4.21-3.282-2.172-6.893-2.195-9.682-1.95-.951.145-1.916.216-2.882.21-.834-.063-1.634-.319-2.461-.404a3.02 3.02 0 00-1.232.044c-.4.098-.768.279-1.072.525a2.13 2.13 0 00-.434 1.067 2.05 2.05 0 00.197 1.117 4.563 4.563 0 00-1.897.57c-.28.163-.515.379-.689.63a1.83 1.83 0 00-.315.825c-.025.293.059.586.24.835.181.248.449.44.764.548a2.647 2.647 0 00-.695.694z" fill="#263238"/><path d="M187.805 80.27l.237-3.054a1.945 1.945 0 00-1.281.375 1.469 1.469 0 00-.6 1.05c-.031.405.124.804.433 1.11.308.305.744.492 1.211.52z" fill="#263238"/><path d="M154.244 82.056l-16.456 7.44a1.91 1.91 0 00-.933.924 1.575 1.575 0 00-.032 1.227l8.533 20.188c.066.183.18.35.332.489.152.139.339.246.546.313a1.652 1.652 0 001.269-.108l15.202-7.395c.425-.222.754-.559.937-.958.182-.4.208-.841.074-1.255l-7.372-20.114a1.198 1.198 0 00-.307-.497 1.445 1.445 0 00-.529-.328 1.63 1.63 0 00-1.264.074z" fill="#455A64"/><path d="M153.87 84.059l-14.349 6.49a1.258 1.258 0 00-.632.61 1.036 1.036 0 00-.025.818l7.785 17.918a.853.853 0 00.227.325c.103.092.229.163.367.207a1.107 1.107 0 00.85-.071l13.286-6.45c.281-.148.497-.372.616-.638.119-.265.133-.557.04-.83l-6.78-17.879a.82.82 0 00-.208-.322.963.963 0 00-.347-.214 1.097 1.097 0 00-.83.036z" fill="#fff"/><path d="M140.886 92.301a.267.267 0 01-.151-.044.212.212 0 01-.087-.117.19.19 0 01.016-.138.227.227 0 01.111-.1l13.338-6.029a.26.26 0 01.186-.016c.031.009.06.023.084.041a.217.217 0 01.058.066c.03.05.037.107.018.16a.217.217 0 01-.117.125l-13.344 6.03a.246.246 0 01-.112.022zm.617 1.507a.258.258 0 01-.128-.028.213.213 0 01-.088-.085.185.185 0 01-.019-.16.223.223 0 01.117-.125l13.345-6.03a.275.275 0 01.184-.015.239.239 0 01.144.101c.028.05.033.108.013.16a.225.225 0 01-.118.124l-13.338 6.036a.282.282 0 01-.112.022zm.611 1.508a.294.294 0 01-.126-.033.25.25 0 01-.091-.08.189.189 0 01-.013-.161.225.225 0 01.118-.124l13.338-6.036a.284.284 0 01.185-.011.245.245 0 01.143.102.19.19 0 01.019.16.223.223 0 01-.117.125l-13.345 6.03a.247.247 0 01-.111.028zm.617 1.502a.256.256 0 01-.128-.03.209.209 0 01-.089-.084.185.185 0 01-.018-.16.217.217 0 01.117-.125l13.344-6.03a.279.279 0 01.185-.015.237.237 0 01.143.101.192.192 0 01.027.08.177.177 0 01-.011.081.204.204 0 01-.046.072.24.24 0 01-.075.052l-13.338 6.035a.279.279 0 01-.111.023zm.61 1.507a.266.266 0 01-.151-.044.212.212 0 01-.087-.117.184.184 0 01.016-.137.23.23 0 01.11-.1l13.338-6.035a.288.288 0 01.186-.012.246.246 0 01.143.103.192.192 0 01.028.079.18.18 0 01-.01.083.205.205 0 01-.047.072.232.232 0 01-.076.05l-13.338 6.013a.341.341 0 01-.112.045zm.617 1.502a.258.258 0 01-.128-.029.213.213 0 01-.088-.085.185.185 0 01-.019-.16.22.22 0 01.117-.124l13.345-6.03a.26.26 0 01.186-.016c.031.009.06.023.084.04.024.02.044.042.058.067.028.05.033.108.013.16a.229.229 0 01-.118.124l-13.338 6.03a.282.282 0 01-.112.023zm.61 1.507a.272.272 0 01-.151-.044.215.215 0 01-.086-.117.182.182 0 01.015-.137.222.222 0 01.111-.1l13.338-6.03a.263.263 0 01.269.021c.024.018.045.04.059.065a.18.18 0 01.019.161.195.195 0 01-.048.073.233.233 0 01-.076.05l-13.338 6.035a.25.25 0 01-.112.023zm.611 1.496a.271.271 0 01-.123-.032.222.222 0 01-.087-.082.187.187 0 01-.03-.078.189.189 0 01.054-.155.228.228 0 01.074-.051l13.332-6.024a.267.267 0 01.186-.014.231.231 0 01.142.105c.03.049.037.107.019.16a.223.223 0 01-.117.124l-13.358 6.047a.284.284 0 01-.092 0zm.617 1.514a.287.287 0 01-.126-.032.24.24 0 01-.091-.082.197.197 0 01-.028-.08.179.179 0 01.01-.082.221.221 0 01.123-.123l13.371-6.03a.27.27 0 01.197-.032c.034.007.065.02.093.039a.22.22 0 01.065.068.191.191 0 01.028.086.19.19 0 01-.016.088.24.24 0 01-.144.122l-13.351 6.035a.255.255 0 01-.131.023zm.61 1.507a.273.273 0 01-.151-.045.21.21 0 01-.086-.116.185.185 0 01.015-.138.225.225 0 01.111-.099l13.338-6.036a.282.282 0 01.186-.014.32.32 0 01.083.04c.024.019.045.04.059.065a.177.177 0 01.021.16.19.19 0 01-.045.073.231.231 0 01-.074.052l-13.338 6.035a.433.433 0 01-.119.023zm.617 1.53a.272.272 0 01-.151-.044.215.215 0 01-.086-.117.182.182 0 01.015-.137.222.222 0 01.111-.1l13.338-6.03a.28.28 0 01.091-.025.268.268 0 01.179.05.214.214 0 01.058.066.19.19 0 01.013.161.227.227 0 01-.118.124l-13.338 6.029a.25.25 0 01-.112.023zm.611 1.479a.263.263 0 01-.151-.045.211.211 0 01-.087-.116.185.185 0 01.016-.138.227.227 0 01.11-.099l13.338-6.036a.27.27 0 01.27.027c.024.018.044.04.059.064a.18.18 0 01.029.079.177.177 0 01-.008.082.207.207 0 01-.12.124l-13.344 6.035a.253.253 0 01-.112.023z" fill="#E0E0E0"/><path d="M178.137 96.818c-4.529.34-8.172 3.196-10.503 7.093-3.472 5.859-9.104 13.476-10.003 14.79-1.254 1.831-1.49 4.619-.407 6.297 1.004 1.575 4.201 2.275 7.831-1.257 4.306-4.221 12.327-14.523 12.327-14.523s5.802-5.819.755-12.4z" fill="#FFA8A7"/><path d="M142.061 101.198v-.074a8.113 8.113 0 01.053-2.07c.031-.263.128-.517.283-.743.155-.227.365-.422.616-.572a.878.878 0 011.024.08c.13.217.194.46.184.705.028.43.116.856.262 1.269.163.362.356.714.578 1.052.225.457.371.94.433 1.433.066.461.112.916.197 1.366.157.864.217 1.803.814 2.548.899 1.138 11.966 9.505 11.966 9.505l.656 10.518c-3.465-.364-11.473-8.823-14.178-11.684-2.96-3.134-4.535-4.664-6.282-6.411-1.746-1.746-2.317-4.34-2.441-5.972-.151-1.94.249-2.93.728-4.83 0-1.354 0-2.218 1.09-2.793l1.766 4.175 1.142 2.719c.216.171.348.33.656.347a.663.663 0 00.243-.034c.197-.096.223-.324.21-.534z" fill="#FFA8A7"/><path d="M178.419 96.14c-7.083 1.633-7.069 2.413-9.623 5.285-2.553 2.873-10.312 13.351-10.312 13.351l-8.841-5.916s-4.648.825-5.317 5.023c0 0 5.907 7.048 9.15 9.761 2.586 2.162 5.395 3.624 7.614 2.918 2.219-.705 3.663-1.866 9.085-7.167 3.715-3.635 6.124-6.001 8.447-8.567 2.324-2.565 5.901-12.07-.203-14.687z" fill="#263238"/></svg>