<svg version="1.0" xmlns="http://www.w3.org/2000/svg" width="1706.667" height="1020" viewBox="0 0 1280 765"><path d="M962 .9C955.1 3 949 8.2 945.4 15c-1.8 3.4-1.9 14.4-1.9 367.5s.1 364.1 1.9 367.5c2.6 4.9 7.4 9.8 12.1 12.3l4 2.2h300l4-2.2c4.7-2.5 9.5-7.4 12.1-12.3 1.8-3.4 1.9-14.4 1.9-367.5s-.1-364.1-1.9-367.5c-2.6-4.9-7.4-9.8-12.1-12.3l-4-2.2L1113 .3c-81.7-.1-149.6.2-151 .6zm238.4 82.3c.9 1.2 1.6 3.2 1.6 4.3 0 1.1-.7 3.1-1.6 4.3l-1.5 2.2h-187.8l-1.5-2.2c-.9-1.2-1.6-3.2-1.6-4.3 0-1.1.7-3.1 1.6-4.3l1.5-2.2h187.8l1.5 2.2zm0 32c2.2 3.1 2 6.4-.4 8.8-2 2-3.3 2-95 2s-93 0-95-2c-2.4-2.4-2.6-5.7-.4-8.8l1.5-2.2h187.8l1.5 2.2zm-20.3 61c5.2 1.5 11.7 7.3 14 12.2 2.2 4.9 2.5 14.3.6 18.9-6.5 15.5-27.3 19.3-38.9 7-6.1-6.4-7.8-17.1-4.1-25.3 5-11 16.8-16.3 28.4-12.8zm14.7 140c.7.7 1.2 2.9 1.2 4.9 0 7.4 7.4 6.9-96.1 6.9-91.6 0-92.9 0-94.9-2-2.2-2.2-2.6-6-1-9.1 1-1.9 3.2-1.9 95.3-1.9 72 0 94.6.3 95.5 1.2zm0 39c.7.7 1.2 2.9 1.2 4.9 0 7.4 7.4 6.9-96.1 6.9-91.6 0-92.9 0-94.9-2-2.2-2.2-2.6-6-1-9.1 1-1.9 3.2-1.9 95.3-1.9 72 0 94.6.3 95.5 1.2zm0 39c.7.7 1.2 2.9 1.2 4.9 0 7.4 6.4 6.9-96.7 6.9-91 0-92.3 0-94.3-2-2.2-2.2-2.6-6-1-9.1 1-1.9 3.2-1.9 95.3-1.9 72 0 94.6.3 95.5 1.2zm0 39c.7.7 1.2 2.9 1.2 4.9 0 7.4 6.4 6.9-96.7 6.9-91 0-92.3 0-94.3-2-2.2-2.2-2.6-6-1-9.1 1-1.9 3.2-1.9 95.3-1.9 72 0 94.6.3 95.5 1.2zm22.2 132.9c2.1 1.2 4.7 3.8 5.9 5.9 2 3.7 2.1 4.9 2.1 43.2 0 39.3 0 39.5-2.2 42.8-1.3 1.8-3.6 4.3-5.1 5.4-2.7 2-4.2 2.1-31.5 2.4-28.2.3-28.8.2-33.2-2-3.3-1.7-5.1-3.5-6.7-6.8-2.3-4.3-2.3-5-2.3-41.5 0-21.1.4-38.5 1-40.4.5-1.9 2-4.5 3.2-5.9 4.5-4.9 6.3-5.1 36.7-5.2 27 0 28.5.1 32.1 2.1zM10.9 5.3c-2.9 1.6-5.4 4-7.4 7.2l-3 4.8-.3 280.1C-.1 606-.5 582 6 588.7c6.7 6.8-9.4 6.3 191.9 6.3 161.7 0 182.1.2 182.1 1.5 0 1.5-7.8 100.7-8.2 105.5l-.3 2.5-67.7.5c-81.3.6-73.3-1.1-73.3 15.6v10.8l3.4 2.3 3.4 2.3h202.4c220.6 0 208.1.3 210.3-5.5 1.4-3.6 1.3-16.8-.1-19.9-2.6-5.5-3.2-5.6-72.4-5.6-59.8 0-63.5-.1-63.5-1.8 0-.9-1.8-24-4-51.2-2.2-27.2-4-51.2-4-53.3V595h181.8c173.6 0 181.9-.1 185.7-1.9 5.8-2.6 10.1-8 11.5-14.3.8-3.9 1-77.9.8-283.3-.3-256.8-.4-278.2-2-281-2-3.8-6.3-7.8-10.5-9.9C870.4 3.1 834.1 3 442.7 3H15.3l-4.4 2.3zM863.5 299v267.5l-420.7.3L22 567V31l420.8.2 420.7.3V299z"/></svg>