<svg width="139" height="125" fill="none" xmlns="http://www.w3.org/2000/svg"><g clip-path="url(#clip0_902_6185)"><path d="M43.038 125.761l51.783-25.108a.579.579 0 00.283-.179.44.44 0 00.108-.283c0-.102-.038-.2-.108-.284a.584.584 0 00-.283-.179l-4.787-2.312a2.463 2.463 0 00-.956-.19c-.332 0-.66.064-.956.19l-51.8 25.084a.579.579 0 00-.283.179.44.44 0 00-.107.283.44.44 0 00.107.284c.07.083.17.145.283.179l4.804 2.313a2.484 2.484 0 001.912.023z" fill="#E0E0E0"/><path d="M93.4 3.717L46.706 26.354a4.874 4.874 0 00-1.686 1.495 3.929 3.929 0 00-.699 1.974v93.005c0 1.277 1.069 1.795 2.386 1.156L93.4 101.347a4.852 4.852 0 001.688-1.494c.414-.603.653-1.28.697-1.975V4.873c0-1.276-1.063-1.795-2.385-1.156z" fill="#455A64"/><path d="M46.707 26.354L93.4 3.717c1.179-.574 2.154-.218 2.352.777a4.064 4.064 0 00-.782-1.756 4.982 4.982 0 00-1.57-1.334L91.461.48A6.106 6.106 0 0089.076 0c-.83 0-1.646.164-2.386.479L39.991 23.098a4.534 4.534 0 00-1.685 1.494l6.715 3.238a4.466 4.466 0 011.686-1.476z" fill="#37474F"/><path d="M37.595 119.572c.045.695.285 1.371.7 1.974a4.867 4.867 0 001.685 1.495l1.945.925c.673.283 1.41.443 2.162.47a6.274 6.274 0 002.201-.312c-1.102.36-1.978-.172-1.978-1.314V29.823a3.612 3.612 0 01.7-1.975l-6.715-3.237a3.66 3.66 0 00-.7 1.956v93.005z" fill="#263238"/><path d="M47.99 38.746l44.142-21.393c.794-.38 1.433-.07 1.433.694v68.837a2.35 2.35 0 01-.42 1.184 2.917 2.917 0 01-1.013.897l-44.126 21.393c-.793.384-1.432.074-1.432-.694V40.827a2.35 2.35 0 01.412-1.182c.246-.362.59-.67 1.004-.899z" fill="#fff"/><path d="M70.053 18.56a1.717 1.717 0 00-.591.527c-.146.212-.23.45-.246.694 0 .463.375.634.837.407.245-.133.448-.313.594-.526.145-.212.229-.45.244-.695 0-.448-.375-.629-.838-.407zm0 84.392c-.963.529-1.764 1.241-2.338 2.079a5.45 5.45 0 00-.967 2.741c0 1.772 1.482 2.493 3.305 1.605.963-.529 1.764-1.241 2.338-2.078a5.46 5.46 0 00.967-2.742c.011-1.771-1.476-2.493-3.305-1.605zM62.126 25.72c-.484.27-.886.632-1.173 1.056-.287.424-.452.9-.48 1.387 0 .897.75 1.262 1.653.814.49-.268.896-.628 1.188-1.053.292-.424.46-.9.492-1.39 0-.897-.75-1.262-1.68-.814zm4.114-.305c0 .602.552.828 1.196.51l11.018-5.353c.341-.179.627-.423.835-.712.208-.29.331-.616.36-.953 0-.596-.55-.823-1.195-.504l-11.018 5.352c-.34.178-.626.422-.834.71a1.915 1.915 0 00-.361.95zM41.319 41.724c.39.214.716.503.95.842.233.339.368.72.394 1.11 0 .722-.6 1.014-1.344.653a2.746 2.746 0 01-.946-.842 2.215 2.215 0 01-.393-1.11c0-.717.6-1.009 1.339-.653zm0 8.687c.39.214.716.502.95.841.233.34.368.72.394 1.111 0 .717-.6 1.008-1.344.652a2.746 2.746 0 01-.946-.842 2.215 2.215 0 01-.393-1.11c0-.721.6-1.013 1.339-.652z" fill="#37474F"/><path d="M40.9 41.9c.391.214.717.502.95.841.233.34.369.72.394 1.111 0 .717-.6 1.009-1.344.652a2.743 2.743 0 01-.95-.84 2.21 2.21 0 01-.394-1.111c.005-.722.606-1 1.344-.653zm0 8.682c.392.214.718.503.951.843.234.34.368.722.393 1.114 0 .717-.6 1.008-1.344.647a2.73 2.73 0 01-.952-.84 2.199 2.199 0 01-.392-1.112c.005-.717.606-1.008 1.344-.652z" fill="#455A64"/><path d="M102.501 20.225c0-.768-.639-1.078-1.433-.694l-5.283 2.558-38.843 18.835a2.917 2.917 0 00-1.013.897 2.35 2.35 0 00-.42 1.185v68.818c0 .768.64 1.078 1.433.694l38.86-18.84 5.266-2.553a2.913 2.913 0 001.014-.897c.249-.361.392-.767.419-1.184v-68.82z" fill="#fff"/><path d="M103.051 20.225a1.02 1.02 0 00-.136-.677 1.307 1.307 0 00-.56-.5 1.638 1.638 0 00-1.562.081l-5.04 2.447L56.665 40.54a3.402 3.402 0 00-1.219 1.065c-.297.433-.465.92-.488 1.42v68.799a1.1 1.1 0 00.153.67c.122.208.309.384.54.51.198.096.423.145.65.143.324-.009.639-.087.915-.227L96.33 93.956l5.029-2.438c.501-.27.917-.635 1.214-1.067a2.77 2.77 0 00.494-1.417l-.017-68.809zm-7.288 72.94l-.452.222L56.69 112.11a.639.639 0 01-.463.083c-.072-.037-.143-.166-.143-.379v-68.81c.028-.335.147-.661.347-.953.2-.291.477-.541.81-.73L95.823 22.59l5.509-2.678a.603.603 0 01.22-.086.652.652 0 01.242.002c.072.037.144.167.144.38v68.836a1.987 1.987 0 01-.348.954 2.442 2.442 0 01-.809.73l-5.03 2.438h.011z" fill="#0064AF"/><path d="M79.005 36.216c4.959-2.396 8.953-.463 8.953 4.343s-4.011 10.639-8.953 13.016c-4.94 2.378-8.951.463-8.951-4.338 0-4.802 4.01-10.62 8.951-13.021z" fill="#0064AF"/><path d="M79.005 39.99c1.603-.777 2.903-.148 2.903 1.387a4.778 4.778 0 01-.85 2.404 5.928 5.928 0 01-2.053 1.82c-1.603.777-2.903.148-2.903-1.388.054-.846.346-1.67.85-2.403a5.929 5.929 0 012.053-1.82zm5.658 8.29c0-2.554-2.132-3.59-4.77-2.313l-1.653.8c-2.634 1.276-4.771 4.385-4.771 6.938v.69c1.526.42 3.443.193 5.509-.82 2.288-1.185 4.223-2.794 5.657-4.704l.028-.592z" fill="#0064AF"/><path opacity=".7" d="M79.005 39.99c1.603-.777 2.903-.148 2.903 1.387a4.778 4.778 0 01-.85 2.404 5.928 5.928 0 01-2.053 1.82c-1.603.777-2.903.148-2.903-1.388.054-.846.346-1.67.85-2.403a5.929 5.929 0 012.053-1.82zm5.658 8.29c0-2.554-2.132-3.59-4.77-2.313l-1.653.8c-2.634 1.276-4.771 4.385-4.771 6.938v.69c1.526.42 3.443.193 5.509-.82 2.288-1.185 4.223-2.794 5.657-4.704l.028-.592z" fill="#fff"/><path d="M61.685 64.144l11.52-5.582c.55-.255.952-.051.952.462v.32a1.566 1.566 0 01-.278.789 1.944 1.944 0 01-.675.598l-11.519 5.583c-.523.254-.953.046-.953-.463v-.319a1.57 1.57 0 01.28-.79 1.95 1.95 0 01.673-.598z" fill="#0064AF"/><path opacity=".1" d="M61.685 64.144l11.52-5.582c.55-.255.952-.051.952.462v.32a1.566 1.566 0 01-.278.789 1.944 1.944 0 01-.675.598l-11.519 5.583c-.523.254-.953.046-.953-.463v-.319a1.57 1.57 0 01.28-.79 1.95 1.95 0 01.673-.598z" fill="#000"/><path d="M61.211 70.883l34.85-16.892c.259-.13.473-.028.473.231v3.414a.796.796 0 01-.14.394.983.983 0 01-.333.3L61.21 75.222c-.264.13-.479.023-.479-.231v-3.414a.788.788 0 01.141-.395c.083-.12.2-.222.338-.299z" fill="#0064AF"/><path opacity=".2" d="M61.211 70.883l34.85-16.892c.259-.13.473-.028.473.231v3.414a.796.796 0 01-.14.394.983.983 0 01-.333.3L61.21 75.222c-.264.13-.479.023-.479-.231v-3.414a.788.788 0 01.141-.395c.083-.12.2-.222.338-.299z" fill="#fff"/><path d="M61.685 79.33l11.52-5.583c.55-.254.952-.046.952.463v.319a1.561 1.561 0 01-.278.79 1.939 1.939 0 01-.675.598L61.685 81.5c-.523.259-.953.05-.953-.463v-.32a1.58 1.58 0 01.28-.788c.166-.241.396-.446.673-.599z" fill="#0064AF"/><path opacity=".1" d="M61.685 79.33l11.52-5.583c.55-.254.952-.046.952.463v.319a1.561 1.561 0 01-.278.79 1.939 1.939 0 01-.675.598L61.685 81.5c-.523.259-.953.05-.953-.463v-.32a1.58 1.58 0 01.28-.788c.166-.241.396-.446.673-.599z" fill="#000"/><path d="M61.211 86.07l34.85-16.893c.259-.13.473-.023.473.231v3.414a.796.796 0 01-.14.394.984.984 0 01-.333.3L61.21 90.408c-.264.13-.479.028-.479-.231v-3.414a.788.788 0 01.141-.395c.083-.12.2-.223.338-.298z" fill="#0064AF"/><path opacity=".2" d="M61.211 86.07l34.85-16.893c.259-.13.473-.023.473.231v3.414a.796.796 0 01-.14.394.984.984 0 01-.333.3L61.21 90.408c-.264.13-.479.028-.479-.231v-3.414a.788.788 0 01.141-.395c.083-.12.2-.223.338-.298z" fill="#fff"/><path d="M75.11 88.007l13.772-6.665c.551-.259.96-.05.96.463v3.57c-.019.279-.115.55-.282.791a1.946 1.946 0 01-.678.597l-13.772 6.67c-.55.255-.953.046-.953-.462v-3.576c.02-.277.115-.547.281-.788.165-.241.396-.447.672-.6z" fill="#0064AF"/><path opacity=".1" d="M75.11 88.007l13.772-6.665c.551-.259.96-.05.96.463v3.57c-.019.279-.115.55-.282.791a1.946 1.946 0 01-.678.597l-13.772 6.67c-.55.255-.953.046-.953-.462v-3.576c.02-.277.115-.547.281-.788.165-.241.396-.447.672-.6z" fill="#000"/></g><defs><clipPath id="clip0_902_6185"><path fill="#fff" d="M0 0h139v125H0z"/></clipPath></defs></svg>