<svg width="139" height="125" fill="none" xmlns="http://www.w3.org/2000/svg"><path d="M33.289 124.818l-.293-.153a1.77 1.77 0 01-.598-.567 1.566 1.566 0 01-.248-.749V34.537c.016-.264.102-.521.249-.75.147-.23.351-.425.597-.57L96.535.182c.262-.12.552-.182.846-.182.294 0 .585.062.847.182l.288.153c.247.144.453.339.6.568.147.23.231.487.247.752v88.808c-.016.264-.1.522-.247.751a1.77 1.77 0 01-.6.57l-63.534 33.034c-.263.12-.553.182-.847.182-.294 0-.584-.062-.846-.182z" fill="#0064AF"/><path opacity=".4" d="M99.356 1.534c-.058-.395-.412-.541-.835-.323L34.977 34.25a1.657 1.657 0 00-.596.568l-1.982-1.04a1.68 1.68 0 01.6-.568L96.535.182c.262-.12.552-.182.847-.182.294 0 .584.062.846.182l.293.153c.225.135.415.312.56.519.143.206.237.438.275.68z" fill="#fff"/><path opacity=".1" d="M34.84 124.877a2.083 2.083 0 01-1.54-.059l-.296-.152a1.767 1.767 0 01-.597-.57 1.558 1.558 0 01-.246-.751V34.537c.009-.264.094-.522.246-.748l1.982 1.04a1.493 1.493 0 00-.273.738v88.811c0 .437.323.641.723.499z" fill="#000"/><path d="M41.627 92.699l-.292-.153a1.775 1.775 0 01-.598-.567 1.563 1.563 0 01-.249-.75V75.266a1.57 1.57 0 01.249-.75 1.78 1.78 0 01.598-.57L99.02 43.923c.262-.12.552-.182.845-.182.294 0 .583.062.845.182l.292.152c.247.145.452.34.599.569.147.23.232.487.248.752v15.962a1.562 1.562 0 01-.248.75 1.76 1.76 0 01-.599.568L43.32 92.698a2.045 2.045 0 01-1.693 0z" fill="#EBEBEB"/><path d="M101.841 45.274c-.058-.395-.412-.54-.839-.323L43.317 74.978a1.656 1.656 0 00-.597.568l-1.982-1.04c.143-.233.35-.43.6-.571l57.683-30.023a2.037 2.037 0 011.69 0l.291.152c.229.136.422.314.567.522.144.21.237.444.272.688z" fill="#FAFAFA"/><path d="M43.174 92.76a2.06 2.06 0 01-1.54-.062l-.3-.148a1.785 1.785 0 01-.592-.571 1.577 1.577 0 01-.246-.75V75.266c.009-.264.094-.522.246-.748l1.982 1.04a1.474 1.474 0 00-.25.748v15.966c-.004.423.304.627.7.489z" fill="#E0E0E0"/><path d="M51.474 73.907c3.29-1.712 5.957-.38 5.957 2.974 0 3.355-2.67 7.43-5.964 9.104-3.294 1.674-5.96.347-5.96-2.973s2.677-7.392 5.967-9.105z" fill="#0064AF"/><path d="M41.627 114.331l-.292-.152a1.782 1.782 0 01-.598-.568 1.562 1.562 0 01-.249-.749V96.899a1.57 1.57 0 01.249-.751 1.78 1.78 0 01.598-.57L99.02 65.555a2.047 2.047 0 011.69 0l.292.153c.247.144.453.339.6.568.147.23.231.487.247.752v15.963a1.562 1.562 0 01-.248.75 1.759 1.759 0 01-.599.567L43.32 114.331c-.262.12-.552.182-.846.182-.294 0-.584-.062-.847-.182z" fill="#EBEBEB"/><path d="M101.841 66.903c-.058-.395-.412-.537-.839-.318L43.317 96.61a1.68 1.68 0 00-.597.565l-1.982-1.04a1.65 1.65 0 01.6-.544L99.022 65.57a2.037 2.037 0 011.69 0l.291.153c.225.132.417.305.561.51.145.203.24.432.278.671z" fill="#FAFAFA"/><path d="M43.174 114.39a2.062 2.062 0 01-1.54-.059l-.3-.152a1.775 1.775 0 01-.593-.571 1.564 1.564 0 01-.245-.75v-15.96a1.41 1.41 0 01.246-.748l1.982 1.04c-.15.228-.236.487-.25.752v15.966c-.004.42.304.624.7.482z" fill="#E0E0E0"/><path d="M51.474 95.54c3.29-1.712 5.957-.381 5.957 2.973 0 3.355-2.67 7.431-5.964 9.105-3.294 1.674-5.96.346-5.96-2.974 0-3.32 2.677-7.395 5.967-9.104z" fill="#0064AF"/><path d="M41.627 56.524l-.292-.153a1.78 1.78 0 01-.598-.57 1.57 1.57 0 01-.249-.75V39.1c.017-.263.102-.52.249-.749.147-.229.352-.423.598-.567L99.02 7.748c.262-.12.552-.182.845-.182.294 0 .583.062.845.182l.292.152c.247.144.452.338.599.567.147.229.232.486.248.75V25.18a1.568 1.568 0 01-.248.752c-.147.23-.352.424-.599.569L43.32 56.523a2.06 2.06 0 01-1.693 0z" fill="#EBEBEB"/><path d="M101.841 9.096c-.058-.395-.412-.537-.839-.319L43.317 38.804a1.62 1.62 0 00-.597.564l-1.982-1.04a1.61 1.61 0 01.6-.568L99.02 7.737a2.047 2.047 0 011.69 0l.292.153c.228.134.422.312.566.52.145.208.238.442.273.686z" fill="#FAFAFA"/><path d="M43.174 56.582a2.06 2.06 0 01-1.54-.059l-.3-.152a1.777 1.777 0 01-.597-.573c-.147-.23-.23-.49-.245-.755V39.102c.008-.265.093-.524.246-.752l1.982 1.04a1.494 1.494 0 00-.25.752v15.942c0 .437.308.638.704.5z" fill="#E0E0E0"/><path d="M51.474 37.733c3.29-1.712 5.957-.382 5.957 2.97 0 3.351-2.67 7.43-5.964 9.107-3.294 1.678-5.96.347-5.96-2.973s2.677-7.389 5.967-9.104z" fill="#0064AF"/><path d="M45.683 76.79l-.292-.152a1.77 1.77 0 01-.6-.569 1.559 1.559 0 01-.247-.751V59.355c.016-.264.101-.522.248-.751a1.78 1.78 0 01.599-.57l57.682-30.022a2.048 2.048 0 011.693 0l.292.148c.246.146.451.34.598.57.147.23.232.487.249.75v15.964a1.577 1.577 0 01-.249.75 1.78 1.78 0 01-.598.57L47.372 76.791a2.047 2.047 0 01-1.689 0z" fill="#37474F"/><path d="M105.897 29.363c-.057-.395-.411-.54-.839-.319L47.373 59.071a1.66 1.66 0 00-.6.565l-1.979-1.04c.142-.233.347-.43.597-.572l57.682-30.012a2.04 2.04 0 01.846-.183c.295 0 .585.063.847.183l.292.148c.228.135.42.312.565.52.145.207.238.44.274.683z" fill="#455A64"/><path d="M47.23 76.85a2.066 2.066 0 01-1.539-.06l-.296-.152a1.777 1.777 0 01-.596-.57 1.568 1.568 0 01-.247-.75V59.355c.01-.265.096-.523.25-.749l1.978 1.04c-.15.227-.234.484-.246.749V76.36c-.008.423.28.627.696.489z" fill="#263238"/><path d="M55.53 57.997c3.29-1.709 5.957-.378 5.957 2.973s-2.67 7.43-5.964 9.108c-3.294 1.677-5.965.346-5.96-2.974.003-3.32 2.678-7.395 5.968-9.107z" fill="#F5F5F5"/><path d="M55.665 67.641a.701.701 0 01-.731.031l-2.616-1.78c-.35-.24-.308-.895.096-1.47s1.016-.846 1.362-.607L55.6 65.06l5.068-9.805c.315-.613.92-1.04 1.35-.918.431.121.524.693.204 1.296l-5.787 11.194c-.16.322-.418.597-.743.794l-.027.02z" fill="#0064AF"/></svg>