<svg width="139" height="125" fill="none" xmlns="http://www.w3.org/2000/svg"><g clip-path="url(#clip0_902_6036)"><path d="M114.552 33.33l-12.338-7.078-15.58-8.941h-.037c-1.4-.773-2.273-2.471-2.273-4.9 0-2.327-.799-3.983-2.092-4.798l10.645 6.105 1.683.963 15.558 8.925.17.1c1.336.794 2.161 2.471 2.161 4.836s.788 3.979 2.103 4.788z" fill="#0064AF"/><path opacity=".1" d="M114.552 33.33l-12.338-7.078-15.58-8.941h-.037c-1.4-.773-2.273-2.471-2.273-4.9 0-2.327-.799-3.983-2.092-4.798l10.645 6.105 1.683.963 15.558 8.925.17.1c1.336.794 2.161 2.471 2.161 4.836s.788 3.979 2.103 4.788z" fill="#000"/><path d="M127.566 16.104v3.73c0 4.799-3.385 10.629-7.564 13.026-2.059 1.185-3.933 1.312-5.296.56l-.154-.09c-1.315-.809-2.129-2.47-2.129-4.809 0-2.338-.825-4.042-2.161-4.835l-.171-.1-15.558-8.926c2.874-2.883 4.918-7.232 4.918-10.957V0l28.115 16.104z" fill="#0064AF"/><path d="M110.102 23.585c-1.362-.714-3.194-.576-5.237.593a12.663 12.663 0 00-2.662 2.074c-2.874 2.878-4.913 7.226-4.913 10.951 0 4.799-3.39 10.629-7.569 13.03l-7.569 4.344-28.099-16.13 7.57-4.344c4.178-2.397 7.568-8.232 7.568-13.03 0-4.8 3.385-10.63 7.57-13.026 2.054-1.18 3.922-1.307 5.285-.561l.18.1 10.646 6.106 1.682.963 15.548 8.93z" fill="#0064AF"/><path opacity=".4" d="M110.102 23.585c-1.362-.714-3.194-.576-5.237.593a12.663 12.663 0 00-2.662 2.074c-2.874 2.878-4.913 7.226-4.913 10.951 0 4.799-3.39 10.629-7.569 13.03l-7.569 4.344-28.099-16.13 7.57-4.344c4.178-2.397 7.568-8.232 7.568-13.03 0-4.8 3.385-10.63 7.57-13.026 2.054-1.18 3.922-1.307 5.285-.561l.18.1 10.646 6.106 1.682.963 15.548 8.93z" fill="#fff"/><path d="M88.625 40.695c-.176-1.164-1.129-1.587-2.279-.926l-4.183 2.397-8.517 4.883a41.027 41.027 0 00-4.487 2.836 53.128 53.128 0 00-6.105 6.137c-3.726 4.232-7.452 8.824-11.178 10.962L32.56 78.068a5.082 5.082 0 00-1.63 1.71c-.4.69-.631 1.463-.675 2.257v7.116c0 1.355.889 1.963 2.033 1.46a5.175 5.175 0 01-4.338-.137L2.305 75.75a5.082 5.082 0 01-1.63-1.71A5.045 5.045 0 010 71.782v-7.115a5.035 5.035 0 01.674-2.259c.4-.69.96-1.275 1.63-1.71l19.317-11.11c3.726-2.116 7.452-6.73 11.178-10.956a53.2 53.2 0 016.127-6.121 41.188 41.188 0 014.481-2.83l8.517-4.884 4.178-2.402a5.119 5.119 0 014.61 0l25.661 14.729a5.14 5.14 0 011.512 1.545c.388.616.64 1.306.74 2.026z" fill="#455A64"/><path d="M32.432 83.11S0 64.66.005 64.501v7.276c.043.795.274 1.569.675 2.258.4.69.959 1.275 1.63 1.71l25.661 14.729a5.12 5.12 0 004.61 0l1.096-.63-1.245-6.735z" fill="#37474F"/><path d="M86.341 39.764l-12.684 7.285a41.786 41.786 0 00-4.487 2.83c-5.76 4.625-11.519 13.804-17.278 17.1l-19.317 11.11a5.07 5.07 0 00-1.63 1.71 5.04 5.04 0 00-.674 2.258v7.115c0 1.46 1.032 2.053 2.304 1.323l53.76-30.854a5.081 5.081 0 001.63-1.71c.4-.69.632-1.463.676-2.258V41.087c.01-1.46-1.022-2.053-2.3-1.323z" fill="#263238"/><path d="M69.335 44.568a41.023 41.023 0 00-4.487 2.835 34.434 34.434 0 00-3.146 2.926 1.435 1.435 0 01-1.655.238L40.261 39.214a.798.798 0 01-.44-.598.79.79 0 01.248-.699 34.585 34.585 0 013.157-2.925 41.178 41.178 0 014.481-2.83 1969.67 1969.67 0 017.585-4.355 2.065 2.065 0 011.847 0l19.78 11.348a.564.564 0 01.377.53.558.558 0 01-.377.528l-7.585 4.355z" fill="#37474F"/><path d="M57.14 28.765a2.06 2.06 0 00-1.847 0l-7.585 4.36a41.188 41.188 0 00-4.481 2.83 35.277 35.277 0 00-3.157 2.92l-.096.122c.08.1.177.184.288.248L60.047 50.6a1.44 1.44 0 001.655-.238 34.42 34.42 0 013.146-2.926 41.018 41.018 0 014.487-2.836l7.585-4.354.09-.063-.09-.064-19.78-11.353z" fill="#fff"/><path d="M28.11 85.59c0 .688-.533.947-1.155.582L3.316 72.607a2.462 2.462 0 01-1.15-1.904c0-.688.533-.947 1.15-.582l23.639 13.57a2.462 2.462 0 011.155 1.9z" fill="#263238"/><path d="M36.626 61.09v-.942l-1.096-.079-2.46-1.423a2.564 2.564 0 00-2.304 0l-1.661.952-.836-.063v.915a.785.785 0 00.474.677l3.098 1.778a2.562 2.562 0 002.305 0l2.022-1.159a.814.814 0 00.474-.65l-.016-.006z" fill="#E0E0E0"/><path d="M33.07 57.715l3.104 1.777a.702.702 0 01.477.662.696.696 0 01-.477.661l-2.023 1.159a2.562 2.562 0 01-2.305 0l-3.098-1.778a.703.703 0 01-.476-.661.696.696 0 01.477-.662l2.017-1.158a2.562 2.562 0 012.305 0z" fill="#F5F5F5"/><path d="M28.52 56.424v-.942l-1.097-.08-2.48-1.423a2.563 2.563 0 00-2.305 0l-1.66.953-.837-.059v.91a.79.79 0 00.48.672l3.097 1.778a2.53 2.53 0 002.305 0l2.018-1.159a.802.802 0 00.479-.65z" fill="#E0E0E0"/><path d="M24.943 53.048l3.098 1.783a.702.702 0 01.476.662.695.695 0 01-.476.661l-2.018 1.18a2.562 2.562 0 01-2.305 0L20.62 55.55a.702.702 0 01-.476-.661.696.696 0 01.477-.662l2.017-1.158a2.562 2.562 0 012.305-.022z" fill="#F5F5F5"/><path d="M44.733 65.74v-.94l-1.065-.08-2.486-1.423a2.562 2.562 0 00-2.304 0l-1.656.953-.84-.064v.915a.792.792 0 00.473.678l3.103 1.777a2.562 2.562 0 002.305 0l2.017-1.158a.803.803 0 00.474-.651l-.021-.005z" fill="#E0E0E0"/><path d="M41.161 62.365l3.098 1.777a.702.702 0 01.477.662.696.696 0 01-.477.661l-2.017 1.159a2.562 2.562 0 01-2.305 0l-3.103-1.778a.703.703 0 01-.477-.661.695.695 0 01.477-.662l2.022-1.158a2.562 2.562 0 012.305 0z" fill="#F5F5F5"/><path d="M43.115 57.37v-.94l-1.097-.08-2.48-1.423a2.561 2.561 0 00-2.305 0l-1.66.952-.836-.064v.916a.79.79 0 00.473.677l3.103 1.777a2.562 2.562 0 002.305 0l2.018-1.158a.823.823 0 00.479-.65v-.006z" fill="#E0E0E0"/><path d="M39.538 53.995l3.098 1.778a.702.702 0 01.477.661.695.695 0 01-.477.661l-2.018 1.16a2.562 2.562 0 01-2.304 0l-3.114-1.78a.702.702 0 01-.477-.66.696.696 0 01.477-.662l2.022-1.159a2.563 2.563 0 012.316 0z" fill="#F5F5F5"/><path d="M35.008 52.704v-.941l-1.097-.08-2.48-1.423a2.561 2.561 0 00-2.305 0l-1.66.952-.836-.058v.889a.785.785 0 00.474.677l3.103 1.778a2.562 2.562 0 002.305 0l2.017-1.159a.797.797 0 00.474-.65l.005.015z" fill="#E0E0E0"/><path d="M31.431 49.33l3.098 1.782a.702.702 0 01.477.661.695.695 0 01-.477.662l-1.99 1.158a2.561 2.561 0 01-2.306 0L27.13 51.81a.702.702 0 01-.477-.66.695.695 0 01.477-.662l2.023-1.159a2.562 2.562 0 012.278 0z" fill="#F5F5F5"/><path d="M51.221 62.021v-.941L50.125 61l-2.48-1.423a2.562 2.562 0 00-2.306 0l-1.66.952-.836-.063v.915a.801.801 0 00.48.677l3.097 1.778a2.561 2.561 0 002.305 0l2.023-1.159a.814.814 0 00.473-.65v-.006z" fill="#E0E0E0"/><path d="M47.644 58.646l3.104 1.778a.702.702 0 01.476.66.695.695 0 01-.476.662l-2.023 1.159a2.562 2.562 0 01-2.305 0l-3.098-1.778a.702.702 0 01-.477-.661.696.696 0 01.477-.661l2.018-1.16a2.564 2.564 0 012.304 0z" fill="#F5F5F5"/><path d="M30.143 64.825v-.942l-1.097-.079-2.48-1.423a2.53 2.53 0 00-2.305 0l-1.66.952-.836-.063v.941a.801.801 0 00.473.678l3.104 1.777a2.564 2.564 0 002.305 0l2.017-1.158a.824.824 0 00.479-.651v-.032z" fill="#E0E0E0"/><path d="M26.566 61.45l3.098 1.777a.702.702 0 01.477.662.695.695 0 01-.477.661l-2.017 1.159a2.563 2.563 0 01-2.305 0l-3.103-1.778a.702.702 0 01-.477-.661.695.695 0 01.477-.662l2.022-1.158a2.562 2.562 0 012.305 0z" fill="#F5F5F5"/><path d="M22.031 60.159v-.942l-1.064-.08-2.486-1.422a2.562 2.562 0 00-2.305 0l-1.655.952-.841-.063v.915a.79.79 0 00.473.677l3.103 1.778a2.562 2.562 0 002.305 0l2.018-1.159a.802.802 0 00.473-.65l-.021-.006z" fill="#E0E0E0"/><path d="M18.454 56.805l3.103 1.777a.701.701 0 01.477.662.695.695 0 01-.477.661l-2.017 1.132a2.562 2.562 0 01-2.305 0l-3.103-1.777a.702.702 0 01-.477-.662.696.696 0 01.477-.661l2.018-1.159a2.562 2.562 0 012.304.027z" fill="#F5F5F5"/><path d="M38.25 69.502v-.942l-1.097-.079-2.486-1.45a2.532 2.532 0 00-2.304 0l-1.661.953-.825-.069v.915a.807.807 0 00.479.677l3.098 1.778a2.562 2.562 0 002.304 0l2.018-1.159a.825.825 0 00.479-.65l-.005.026z" fill="#E0E0E0"/><path d="M34.667 66.1l3.098 1.778a.702.702 0 01.477.661.696.696 0 01-.477.661l-2.033 1.159a2.562 2.562 0 01-2.305 0l-3.098-1.778a.702.702 0 01-.477-.661.696.696 0 01.477-.661l2.017-1.159a2.562 2.562 0 012.321 0z" fill="#F5F5F5"/><path d="M23.65 68.54v-.943l-1.097-.079-2.48-1.428a2.562 2.562 0 00-2.306 0l-1.66.952-.836-.058v.93a.79.79 0 00.48.673l3.097 1.783a2.562 2.562 0 002.305 0l2.023-1.159a.814.814 0 00.473-.656v-.016z" fill="#E0E0E0"/><path d="M20.072 65.159l3.104 1.782a.702.702 0 01.476.662.696.696 0 01-.476.661l-2.023 1.159a2.562 2.562 0 01-2.305 0l-3.098-1.778a.702.702 0 01-.477-.661.695.695 0 01.477-.662l2.018-1.163a2.562 2.562 0 012.304 0z" fill="#F5F5F5"/><path d="M15.543 63.873v-.942l-1.097-.08-2.48-1.422a2.564 2.564 0 00-2.305 0L8 62.38l-.836-.063v.915a.79.79 0 00.473.677l3.104 1.778a2.562 2.562 0 002.304 0l2.018-1.16a.823.823 0 00.479-.65v-.005z" fill="#E0E0E0"/><path d="M11.966 60.508l3.098 1.777a.703.703 0 01.476.662.695.695 0 01-.476.661l-2.018 1.132a2.562 2.562 0 01-2.305 0l-3.103-1.777a.702.702 0 01-.477-.662.695.695 0 01.477-.66l2.012-1.133a2.563 2.563 0 012.316 0z" fill="#F5F5F5"/><path d="M31.756 73.205v-.942l-1.091-.079-2.486-1.428a2.562 2.562 0 00-2.305 0l-1.66.952-.836-.058v.915a.786.786 0 00.474.672l3.098 1.783a2.564 2.564 0 002.304 0l2.023-1.159a.803.803 0 00.474-.656h.005z" fill="#E0E0E0"/><path d="M28.179 69.809l3.103 1.783a.703.703 0 01.477.661.696.696 0 01-.477.662l-2.023 1.158a2.562 2.562 0 01-2.304 0l-3.098-1.777a.703.703 0 01-.477-.662.695.695 0 01.477-.661l2.017-1.164a2.562 2.562 0 012.305 0z" fill="#F5F5F5"/><path d="M40.32 46.287l-.197-.81-.82-.068-2.66-1.54c-1.273-.73-2.96-.577-3.78.323a1.653 1.653 0 00-.373.661h-.234l.208.857a2.37 2.37 0 001.187 1.423l3.268 1.873a1.418 1.418 0 001.655-.238 82.896 82.896 0 001.55-1.693.844.844 0 00.196-.788z" fill="#E0E0E0"/><path d="M36.711 48.186l-3.268-1.872c-1.272-.73-1.597-2.032-.793-2.931.804-.9 2.507-1.059 3.78-.323l3.267 1.873a.84.84 0 01.443.607.832.832 0 01-.224.715 82.872 82.872 0 01-1.55 1.693 1.409 1.409 0 01-1.655.238z" fill="#F5F5F5"/><path d="M57.023 56.392l-.197-.82h-.234a2.893 2.893 0 00-.793-.656l-3.263-1.873a1.364 1.364 0 00-1.629.264c-.532.567-1.016 1.127-1.522 1.667l-.463-.037.208.852a.828.828 0 00.41.529l3.262 1.873c1.273.73 2.997.613 3.822-.286a1.585 1.585 0 00.4-1.513z" fill="#E0E0E0"/><path d="M52.621 57.334l-3.263-1.873a.804.804 0 01-.435-.599.793.793 0 01.244-.697c.514-.55 1.03-1.115 1.549-1.693a1.36 1.36 0 011.628-.265l3.263 1.873c1.278.73 1.656 2.069.836 2.968-.82.9-2.544 1.005-3.822.286z" fill="#F5F5F5"/><path d="M48.847 51.26l-.196-.799-.623-.042-3.913-2.243a1.707 1.707 0 00-2.033.328c-.399.444-.793.878-1.192 1.307-.037.043-.07.09-.101.137h-.394l.202.836a1.024 1.024 0 00.532.667l4.19 2.402a1.766 1.766 0 002.065-.297c.399-.423.798-.862 1.192-1.301a1.056 1.056 0 00.271-.995z" fill="#E0E0E0"/><path d="M48.384 51.419a95.87 95.87 0 01-1.187 1.301 1.77 1.77 0 01-2.07.297l-4.19-2.402a1.005 1.005 0 01-.542-.748.994.994 0 01.303-.871c.4-.429.793-.863 1.192-1.307a1.701 1.701 0 012.034-.328l4.189 2.402a1.063 1.063 0 01.546.761 1.051 1.051 0 01-.275.895z" fill="#F5F5F5"/><path d="M29.03 97.473l65.184-37.41a2.048 2.048 0 011.841 0l41.401 23.76a2.017 2.017 0 01.921 1.588v.365a2.014 2.014 0 01-.921 1.587l-65.183 37.404a2.02 2.02 0 01-1.836 0L29.025 100.61a2.025 2.025 0 01-.915-1.587 1.997 1.997 0 01.92-1.55z" fill="#0064AF"/><path opacity=".2" d="M29.03 97.473l65.184-37.41a2.048 2.048 0 011.841 0l41.401 23.76a2.017 2.017 0 01.921 1.588v.365a2.014 2.014 0 01-.921 1.587l-65.183 37.404a2.02 2.02 0 01-1.836 0L29.025 100.61a2.025 2.025 0 01-.915-1.587 1.997 1.997 0 01.92-1.55z" fill="#fff"/><path d="M28.11 99.04a2.018 2.018 0 00.915 1.586l41.412 24.152c.293.117.6.192.915.222v-7.148l-2.16-28.537-23.783-1.243-16.378 9.401a2.01 2.01 0 00-.921 1.566z" fill="#0064AF"/><path d="M28.11 99.04a2.018 2.018 0 00.915 1.586l41.412 24.152c.293.117.6.192.915.222v-7.148l-2.16-28.537-23.783-1.243-16.378 9.401a2.01 2.01 0 00-.921 1.566z" fill="#0064AF"/><path opacity=".2" d="M28.11 99.04a2.018 2.018 0 00.915 1.586l41.412 24.152c.293.117.6.192.915.222v-7.148l-2.16-28.537-23.783-1.243-16.378 9.401a2.01 2.01 0 00-.921 1.566z" fill="#000"/><path d="M96.055 60.064l41.401 23.76a.558.558 0 01.389.529.553.553 0 01-.389.529l-65.183 37.404a2.057 2.057 0 01-1.842 0l-41.4-23.755a.563.563 0 01-.377-.529.558.558 0 01.377-.529l65.183-37.41a2.048 2.048 0 011.841 0z" fill="#0064AF"/><path d="M65.204 86.96a.78.78 0 01-.335-.11l-4.045-2.323c-.123-.069-.186-.138-.197-.196-.01-.058.042-.127.154-.19l1.805-1.032a2.62 2.62 0 012.746 0c.181.09.333.23.437.402a.395.395 0 010 .413 2.082 2.082 0 011.596.238c.421.243.64.529.655.815.016.285-.229.597-.724.883l-1.756.979a.598.598 0 01-.336.121zm-.99-2.645c.123-.074.187-.148.181-.227-.005-.08-.074-.164-.213-.244a.85.85 0 00-.42-.127.813.813 0 00-.394.112l-.665.386.846.481.665-.38zm1.98 1.021c.133-.074.187-.158.17-.248a.406.406 0 00-.228-.254.967.967 0 00-.474-.138.819.819 0 00-.431.111l-.745.429.942.529.767-.429zm2.396-.391a.473.473 0 01-.107-.1l-2.714-3.317a.332.332 0 01-.08-.17c0-.042.042-.085.122-.127l.532-.317a.49.49 0 01.23-.069.97.97 0 01.287.048l5.786 1.555c.058.01.113.03.165.058.042 0 .063.048.063.074 0 .027 0 .053-.058.074l-.937.53a.45.45 0 01-.175.052.537.537 0 01-.208-.031l-.884-.26-1.266.725.463.503a.16.16 0 01.053.121.202.202 0 01-.101.1l-.932.53a.236.236 0 01-.24.021zm.825-2.386l-1.56-.465.82.894.74-.429zm3.928-.296a.782.782 0 01-.336-.111l-4.05-2.328c-.12-.067-.185-.13-.192-.19-.007-.06.046-.124.16-.191l.479-.275a.642.642 0 01.208-.08.782.782 0 01.266 0l3.726.53-2.13-1.228c-.117-.069-.186-.138-.196-.196-.011-.058.042-.127.154-.19l.59-.339a.643.643 0 01.336-.09c.12.01.237.048.34.111l4.052 2.328c.12.067.184.13.191.19 0 .059-.053.122-.17.191l-.474.27a.634.634 0 01-.207.085.757.757 0 01-.261 0l-3.726-.53 2.129 1.233c.12.07.184.134.191.19 0 .059-.053.122-.17.191l-.585.339a.636.636 0 01-.325.09zm7.797-4.529c.038 0 .065.048.065.074 0 .026 0 .053-.059.074l-.937.53a.658.658 0 01-.149.063c-.049.01-.1.01-.149 0l-3.156-.45 1.708.984c.123.069.187.132.197.196.011.063-.048.121-.165.19l-.59.334a.572.572 0 01-.325.095.71.71 0 01-.335-.117l-4.046-2.317c-.122-.069-.186-.138-.197-.196-.01-.058.043-.127.154-.19l.586-.339a.642.642 0 01.335-.09.76.76 0 01.341.111l1.677.963-.799-1.761a.09.09 0 010-.09.402.402 0 01.117-.09l.932-.53a.268.268 0 01.26.006.18.18 0 01.091.1l.793 1.942 3.476.45a.4.4 0 01.176.058zm2.38-1.82a5.085 5.085 0 01-2.443-.72c-.814-.47-1.235-.93-1.272-1.396-.037-.466.309-.894 1.022-1.307.3-.172.618-.312.947-.418.304-.1.619-.163.937-.19a.321.321 0 01.192.037.326.326 0 01.101.105l.25.445c.037.047.037.085 0 .106a.439.439 0 01-.17.042c-.376.049-.737.17-1.065.36-.378.211-.532.45-.495.709.037.259.309.529.793.81.434.261.926.414 1.432.444.442.025.881-.076 1.267-.291a1.44 1.44 0 00.644-.64.248.248 0 01.075-.096.283.283 0 01.18 0l.81.148c.055.01.11.027.16.053a.117.117 0 01.058.117c-.07.349-.437.714-1.097 1.09-.704.41-1.51.615-2.326.592zm3.769-1.698a.475.475 0 01-.112-.101l-2.71-3.317a.248.248 0 01-.08-.17c0-.042.043-.084.118-.126l.532-.318a.459.459 0 01.224-.069 1 1 0 01.293.048l5.785 1.555c.057.01.11.03.16.059.043 0 .064.047.064.074 0 .026 0 .053-.059.074l-.936.529a.402.402 0 01-.17.053.535.535 0 01-.208-.032l-.884-.26-1.272.73.468.53c.038.042.059.085.048.116-.01.032-.037.069-.1.1l-.932.53a.225.225 0 01-.23-.005zm.82-2.386l-1.555-.466.82.894.734-.428zm3.933-.296a.779.779 0 01-.34-.112L87.655 69.1c-.117-.069-.181-.132-.192-.196-.01-.063.038-.121.155-.19l1.485-.852a3.037 3.037 0 013.257 0c.666.38.9.772.708 1.174l2.103.53a.43.43 0 01.133.047.127.127 0 01.069.085c0 .032 0 .058-.064.084l-.846.487a.685.685 0 01-.17.064.365.365 0 01-.181 0l-1.922-.53-.468.27 1.203.688c.122.069.186.138.191.196.005.058-.042.122-.16.19l-.59.339a.62.62 0 01-.325.047zm-.868-2.334c.368-.211.352-.428-.037-.65a1.069 1.069 0 00-1.112-.043l-.48.275 1.182.678.447-.26zm4.706.127a.78.78 0 01-.336-.11L91.5 66.893c-.117-.07-.186-.133-.197-.196-.01-.064.043-.122.154-.185l1.336-.767a4.15 4.15 0 012.156-.577c.83.04 1.635.287 2.342.72.793.46 1.208.904 1.24 1.338.032.434-.298.852-.99 1.248l-1.33.762a.578.578 0 01-.33.09zm.702-1.465c.293-.17.405-.35.34-.53-.063-.18-.345-.438-.85-.73a3.344 3.344 0 00-1.262-.48 1.493 1.493 0 00-.942.195l-.48.275 2.715 1.56.48-.29z" fill="#fff"/><path d="M42.002 99.954l11.13-6.39a2.065 2.065 0 011.847 0l8.964 5.147a.56.56 0 01.388.529.553.553 0 01-.388.53l-11.13 6.385a2.057 2.057 0 01-1.842 0l-8.969-5.143a.56.56 0 010-1.058z" fill="#E0E0E0"/><path d="M58.429 105.673l-7.761-4.364a1.898 1.898 0 00-1.863 0l-5.43 3.11-.265-.455 5.429-3.116a2.437 2.437 0 012.39 0l7.76 4.365-.26.46zm-2.209-6.502a2.448 2.448 0 01-1.22-.322l-7.558-4.344.267-.455 7.563 4.338a1.904 1.904 0 001.9 0l5.403-3.1.266.46-5.402 3.1c-.37.214-.791.325-1.22.323z" fill="#fff"/><path d="M54.186 98.23l-.266-.46 6.09-3.492-1.63-.937-6.355 3.646-.266-.456 6.622-3.798 2.693 1.545-6.888 3.952zm-6.616 8.761l-2.699-1.545 6.936-3.952.266.455-6.132 3.497 1.629.931 6.398-3.666.266.455-6.664 3.825z" fill="#fff"/><path d="M57.593 108.377l10.209-5.857a3.077 3.077 0 012.768 0l1.554.894c.766.434.766 1.148 0 1.587l-10.204 5.857a3.065 3.065 0 01-2.768 0l-1.56-.894c-.76-.439-.76-1.153 0-1.587z" fill="#0064AF"/><path opacity=".7" d="M58.125 108.377l10.21-5.857a3.077 3.077 0 012.767 0l1.554.894c.767.434.767 1.148 0 1.587l-10.204 5.857a3.065 3.065 0 01-2.767 0l-1.56-.894c-.761-.439-.761-1.153 0-1.587z" fill="#fff"/><path d="M72.73 99.69l10.205-5.851a3.07 3.07 0 012.767 0l1.56.894c.761.439.761 1.148 0 1.587l-10.209 5.856a3.054 3.054 0 01-2.763 0l-1.56-.894c-.766-.444-.766-1.153 0-1.592z" fill="#0064AF"/><path d="M72.73 99.69l10.205-5.851a3.07 3.07 0 012.767 0l1.56.894c.761.439.761 1.148 0 1.587l-10.209 5.856a3.054 3.054 0 01-2.763 0l-1.56-.894c-.766-.444-.766-1.153 0-1.592z" fill="#0064AF"/><path opacity=".7" d="M72.73 99.69l10.205-5.851a3.07 3.07 0 012.767 0l1.56.894c.761.439.761 1.148 0 1.587l-10.209 5.856a3.054 3.054 0 01-2.763 0l-1.56-.894c-.766-.444-.766-1.153 0-1.592z" fill="#fff"/><path d="M87.864 91.003l10.209-5.857a3.061 3.061 0 012.762 0l1.56.894c.766.44.766 1.148 0 1.587l-10.204 5.857a3.07 3.07 0 01-2.768 0l-1.56-.894c-.76-.44-.76-1.148 0-1.587z" fill="#0064AF"/><path opacity=".7" d="M87.864 91.003l10.209-5.857a3.061 3.061 0 012.762 0l1.56.894c.766.44.766 1.148 0 1.587l-10.204 5.857a3.07 3.07 0 01-2.768 0l-1.56-.894c-.76-.44-.76-1.148 0-1.587z" fill="#fff"/><path d="M103.002 82.32l10.203-5.856a3.07 3.07 0 012.768 0l1.56.894c.761.434.761 1.148 0 1.587l-10.209 5.857a3.072 3.072 0 01-2.768 0l-1.554-.894c-.767-.44-.767-1.153 0-1.587z" fill="#0064AF"/><path opacity=".7" d="M103.002 82.32l10.203-5.856a3.07 3.07 0 012.768 0l1.56.894c.761.434.761 1.148 0 1.587l-10.209 5.857a3.072 3.072 0 01-2.768 0l-1.554-.894c-.767-.44-.767-1.153 0-1.587z" fill="#fff"/><path d="M124.575 81.4c.447.26.399.704-.112 1L98.201 97.468a1.92 1.92 0 01-1.736.063c-.447-.259-.399-.703.112-.994l26.263-15.073a1.952 1.952 0 011.735-.064z" fill="#0064AF"/><path opacity=".1" d="M124.575 81.4c.447.26.399.704-.112 1L98.201 97.468a1.92 1.92 0 01-1.736.063c-.447-.259-.399-.703.112-.994l26.263-15.073a1.952 1.952 0 011.735-.064z" fill="#000"/><path d="M128.918 83.887c.453.26.405.704-.106.995l-16.82 9.644a1.923 1.923 0 01-1.736.064c-.447-.254-.399-.704.112-.995l16.815-9.645a1.92 1.92 0 011.735-.063z" fill="#0064AF"/><path opacity=".1" d="M128.918 83.887c.453.26.405.704-.106.995l-16.82 9.644a1.923 1.923 0 01-1.736.064c-.447-.254-.399-.704.112-.995l16.815-9.645a1.92 1.92 0 011.735-.063z" fill="#000"/></g><defs><clipPath id="clip0_902_6036"><path fill="#fff" d="M0 0h139v125H0z"/></clipPath></defs></svg>