<svg width="46" height="47" fill="none" xmlns="http://www.w3.org/2000/svg"><path d="M23 9.88c-.192 0-.383-.02-.556-.058-.191-.038-.364-.096-.537-.153a4.124 4.124 0 01-.498-.269 4.05 4.05 0 01-.44-.364 2.872 2.872 0 010-4.063c.133-.134.287-.25.44-.364a2.47 2.47 0 01.498-.25 2.55 2.55 0 01.537-.172 2.872 2.872 0 012.588 4.85A2.906 2.906 0 0123 9.88zm0 8.625c-.192 0-.383-.02-.556-.058-.191-.038-.364-.096-.537-.153a4.132 4.132 0 01-.498-.268c-.153-.116-.306-.23-.44-.365a2.872 2.872 0 010-4.063c.133-.134.287-.25.44-.364a2.47 2.47 0 01.498-.25 2.717 2.717 0 012.185 0c.173.058.346.154.499.25.153.115.306.23.44.364a2.872 2.872 0 010 4.063c-.133.134-.287.25-.44.364a4.132 4.132 0 01-.498.269c-.173.057-.346.115-.537.153a2.597 2.597 0 01-.556.058zm0 7.666c-.192 0-.383-.019-.556-.057a4.378 4.378 0 01-.537-.154 4.132 4.132 0 01-.498-.268 4.046 4.046 0 01-.44-.364 2.791 2.791 0 01-.365-.441 4.117 4.117 0 01-.268-.498 4.384 4.384 0 01-.153-.537 2.598 2.598 0 01-.058-.556c0-.767.307-1.495.843-2.031.134-.135.288-.25.441-.365.154-.095.326-.191.498-.268.173-.058.346-.115.537-.153a2.872 2.872 0 013.43 2.817c.001.192-.018.384-.057.556a2.506 2.506 0 01-.172.537 2.42 2.42 0 01-.25.498c-.114.172-.23.307-.363.44-.134.135-.288.25-.441.365a4.132 4.132 0 01-.498.268 4.378 4.378 0 01-.537.154 2.597 2.597 0 01-.556.057zm0 6.709c-.498 0-.997-.211-1.36-.556a2.016 2.016 0 01-.557-1.361c0-.498.211-.997.556-1.361a1.97 1.97 0 011.725-.518c.134.02.25.058.364.116.115.038.23.095.326.172.115.077.211.153.307.23.345.364.556.863.556 1.36 0 .5-.211.997-.556 1.362-.096.076-.192.153-.307.23-.096.076-.21.134-.326.172a1.14 1.14 0 01-.364.115c-.115.02-.249.038-.364.038zm0 6.229c-.192 0-.383-.039-.556-.115a1.49 1.49 0 01-.46-.307 1.213 1.213 0 01-.307-.46 1.375 1.375 0 01-.114-.556c0-.383.153-.747.421-1.016a1.48 1.48 0 01.46-.306 1.4 1.4 0 011.112 0c.172.076.326.172.46.306s.23.288.307.46c.076.173.114.364.114.556 0 .192-.038.383-.114.556a1.487 1.487 0 01-.307.46 1.49 1.49 0 01-.46.307 1.445 1.445 0 01-.556.115zm0 3.967a.899.899 0 01-.67-.287.899.899 0 01-.288-.671c0-.25.095-.498.287-.671.345-.364.997-.364 1.342 0a.9.9 0 01.287.67.9.9 0 01-.287.672.899.899 0 01-.671.287zM6.708 18.505a2.872 2.872 0 01-2.031-.844 2.872 2.872 0 01-.844-2.031c0-.748.307-1.495.844-2.032 1.054-1.073 2.99-1.073 4.063 0 .537.537.843 1.284.843 2.032 0 .766-.306 1.495-.843 2.031a4.04 4.04 0 01-.44.364 2.424 2.424 0 01-.5.25 2.505 2.505 0 01-.536.172 2.597 2.597 0 01-.556.058zm32.584 0a2.906 2.906 0 01-2.032-.844 2.906 2.906 0 01-.843-2.031c0-.192.019-.384.057-.556a4.43 4.43 0 01.154-.537 4.11 4.11 0 01.268-.498c.115-.153.23-.307.364-.441.134-.134.288-.25.44-.364a2.46 2.46 0 01.5-.25 2.717 2.717 0 012.185 0c.172.058.344.154.498.25.153.115.306.23.44.364.135.134.25.287.364.44.096.154.192.327.25.5.076.172.134.344.172.536.038.172.058.364.058.556a2.87 2.87 0 01-.844 2.031c-.134.134-.287.25-.44.364a4.123 4.123 0 01-.499.269 4.38 4.38 0 01-.537.153 2.73 2.73 0 01-.555.058zm0 6.708c-.115 0-.25-.02-.364-.039a1.155 1.155 0 01-.365-.114 1.449 1.449 0 01-.345-.173c-.096-.058-.191-.153-.287-.23-.077-.096-.173-.192-.23-.288a1.448 1.448 0 01-.173-.345 1.216 1.216 0 01-.115-.345c-.019-.134-.038-.249-.038-.383 0-.498.21-.997.556-1.36l.287-.23a1.43 1.43 0 01.345-.173 1.14 1.14 0 01.364-.115c.23-.058.48-.058.729 0 .134.019.249.057.364.115.115.038.23.096.326.172.115.077.21.154.307.23.345.364.555.863.555 1.361 0 .134-.019.25-.038.384a1.22 1.22 0 01-.115.345c-.038.115-.096.23-.172.345l-.23.287c-.096.077-.192.172-.307.23a1.053 1.053 0 01-.326.172 1.14 1.14 0 01-.364.115c-.115.02-.25.039-.364.039zm-32.584 0c-.498 0-.996-.211-1.36-.556a2.016 2.016 0 01-.556-1.36c0-.5.21-.998.555-1.362a1.914 1.914 0 012.09-.402c.249.096.44.23.632.402.345.364.556.863.556 1.361s-.21.997-.556 1.361a2.016 2.016 0 01-1.36.556zm32.584 5.271a1.436 1.436 0 111.015-.422 1.49 1.49 0 01-.46.307 1.444 1.444 0 01-.555.115zm-32.584 0a1.44 1.44 0 01-1.016-.422 1.214 1.214 0 01-.306-.46 1.375 1.375 0 01-.115-.556c0-.191.038-.364.115-.556.057-.172.172-.325.306-.46.518-.536 1.496-.536 2.032 0 .134.135.23.288.307.46.077.192.115.365.115.556 0 .192-.038.384-.115.556a1.487 1.487 0 01-.307.46 1.436 1.436 0 01-1.016.422zm32.584 4.791a.778.778 0 01-.364-.076.681.681 0 01-.307-.211.9.9 0 01-.288-.671c0-.25.096-.498.288-.67.345-.365.996-.365 1.341 0a.9.9 0 01.288.67.9.9 0 01-.288.67.9.9 0 01-.67.288zm-32.584 0a.9.9 0 01-.67-.287.9.9 0 01-.288-.671c0-.25.096-.498.288-.67.345-.365.996-.365 1.341 0a.899.899 0 01.288.67.9.9 0 01-.288.67.9.9 0 01-.67.288zm8.146-21.083c-.191 0-.383-.019-.556-.057a2.505 2.505 0 01-.536-.173 2.022 2.022 0 01-.499-.249 2.906 2.906 0 01-1.284-2.396c0-.747.307-1.495.843-2.032 1.074-1.073 2.99-1.073 4.064 0a2.872 2.872 0 010 4.064c-.134.134-.288.249-.441.364a2.423 2.423 0 01-.498.25 2.505 2.505 0 01-.537.172 2.597 2.597 0 01-.556.057zm16.292 0c-.192 0-.383-.019-.556-.057a2.505 2.505 0 01-.537-.173 2.423 2.423 0 01-.498-.249 4.027 4.027 0 01-.44-.364 4.046 4.046 0 01-.365-.441 4.131 4.131 0 01-.268-.498 4.384 4.384 0 01-.154-.537 2.604 2.604 0 01-.057-.556c0-.747.306-1.495.843-2.032a4.03 4.03 0 01.441-.364 2.44 2.44 0 01.498-.249 2.714 2.714 0 012.185 0c.173.058.345.153.499.25.153.114.306.23.44.363.537.537.844 1.285.844 2.032 0 .192-.02.383-.058.556a4.384 4.384 0 01-.153.537 4.117 4.117 0 01-.268.498c-.115.153-.23.307-.364.44-.135.135-.288.25-.441.365a2.423 2.423 0 01-.499.25 2.505 2.505 0 01-.536.172 2.597 2.597 0 01-.556.057zm-16.292 8.146c-.191 0-.383-.02-.556-.058-.191-.038-.364-.096-.536-.153a4.11 4.11 0 01-.499-.268 2.906 2.906 0 01-1.284-2.396c0-.767.307-1.495.843-2.032 1.074-1.073 2.99-1.073 4.064 0a2.872 2.872 0 010 4.063 2.906 2.906 0 01-2.032.844zm16.292 0c-.192 0-.383-.02-.556-.058a2.505 2.505 0 01-.537-.172 2.418 2.418 0 01-.498-.25 4.038 4.038 0 01-.44-.363 4.038 4.038 0 01-.365-.441 4.124 4.124 0 01-.268-.499 4.378 4.378 0 01-.154-.536 2.603 2.603 0 01-.057-.556c0-.748.306-1.495.843-2.032.134-.134.288-.249.441-.364.153-.096.326-.192.498-.25a2.713 2.713 0 012.185 0c.173.058.345.154.499.25.153.115.306.23.44.364.537.537.844 1.284.844 2.032 0 .192-.02.383-.058.556-.038.191-.096.364-.153.536a4.11 4.11 0 01-.268.499c-.115.153-.23.306-.364.44-.135.135-.288.25-.441.365a2.418 2.418 0 01-.499.249 2.505 2.505 0 01-.536.172 2.604 2.604 0 01-.556.058zm-16.292 6.708c-.249 0-.498-.057-.728-.153a1.79 1.79 0 01-.633-.403 2.213 2.213 0 01-.402-.632 1.907 1.907 0 01-.153-.729c0-.498.21-.996.555-1.36.71-.71 2.013-.71 2.722 0 .345.364.556.862.556 1.36 0 .25-.058.499-.154.729-.095.23-.23.44-.402.632a2.015 2.015 0 01-1.36.556zm16.292 0c-.498 0-.997-.21-1.361-.556a2.015 2.015 0 01-.556-1.36c0-.499.21-.997.556-1.361.71-.71 1.993-.71 2.722 0 .345.364.556.862.556 1.36 0 .135-.02.25-.039.384-.019.115-.057.23-.115.345-.038.115-.096.23-.172.326-.077.115-.154.21-.23.306a2.016 2.016 0 01-1.361.556zm-16.292 5.75c-.383 0-.747-.153-1.016-.422a1.486 1.486 0 01-.306-.46 1.375 1.375 0 01-.115-.555 1.469 1.469 0 01.421-1.016c.134-.134.288-.23.46-.307a1.4 1.4 0 011.112 0c.172.077.326.173.46.307.268.268.422.632.422 1.016 0 .191-.039.383-.115.555a1.488 1.488 0 01-.307.46 1.436 1.436 0 01-1.016.422zm16.292 0a1.37 1.37 0 01-.556-.115 1.489 1.489 0 01-.46-.306 1.214 1.214 0 01-.307-.46 1.376 1.376 0 01-.115-.556c0-.192.039-.384.115-.556.077-.173.173-.326.307-.46s.288-.23.46-.307a1.4 1.4 0 011.112 0c.172.077.326.173.46.307a1.469 1.469 0 01.421 1.016c0 .191-.038.383-.115.555a1.486 1.486 0 01-.306.46 1.436 1.436 0 01-1.016.422zm-16.292 4.313a.899.899 0 01-.67-.288.9.9 0 01-.288-.67.9.9 0 01.287-.672c.345-.364.997-.364 1.342 0a.9.9 0 01.287.671.9.9 0 01-.287.671.899.899 0 01-.67.288zm16.292 0a.778.778 0 01-.364-.077.681.681 0 01-.307-.21.682.682 0 01-.21-.308.778.778 0 01-.078-.364.9.9 0 01.288-.67c.345-.365.997-.365 1.342 0a.9.9 0 01.287.67.78.78 0 01-.076.364.68.68 0 01-.211.307.899.899 0 01-.671.288z" fill="#fff"/></svg>